<?xml version="1.0" encoding="UTF-8" standalone="no"?>
<!-- Created with Inkscape (http://www.inkscape.org/) -->

<svg
   width="297mm"
   height="210mm"
   viewBox="0 0 297 210"
   version="1.1"
   id="svg1"
   xml:space="preserve"
   inkscape:version="1.4.2 (f4327f4, 2025-05-13)"
   sodipodi:docname="cst.svg"
   inkscape:export-filename="..\Documents\GitHub\NC_Godisnji_Projekt\slike\cst_svg.svg"
   inkscape:export-xdpi="96"
   inkscape:export-ydpi="96"
   xmlns:inkscape="http://www.inkscape.org/namespaces/inkscape"
   xmlns:sodipodi="http://sodipodi.sourceforge.net/DTD/sodipodi-0.dtd"
   xmlns="http://www.w3.org/2000/svg"
   xmlns:svg="http://www.w3.org/2000/svg"><sodipodi:namedview
     id="namedview1"
     pagecolor="#ffffff"
     bordercolor="#000000"
     borderopacity="0.25"
     inkscape:showpageshadow="2"
     inkscape:pageopacity="0.0"
     inkscape:pagecheckerboard="0"
     inkscape:deskcolor="#d1d1d1"
     inkscape:document-units="mm"
     inkscape:zoom="0.80000879"
     inkscape:cx="401.24559"
     inkscape:cy="404.37056"
     inkscape:window-width="1600"
     inkscape:window-height="837"
     inkscape:window-x="-8"
     inkscape:window-y="-8"
     inkscape:window-maximized="1"
     inkscape:current-layer="layer2"><inkscape:page
       x="0"
       y="0"
       width="297"
       height="210"
       id="page2"
       margin="0"
       bleed="0" /></sodipodi:namedview><defs
     id="defs1" /><g
     inkscape:groupmode="layer"
     id="layer2"
     inkscape:label="Sloj 2"
     style="display:inline"><path
       id="path3"
       style="fill:#000000;stroke-width:0.264583"
       d="m 46.632296,43.490369 -7.110677,0.785481 -7.110677,2.397787 -5.002279,3.017904 -3.803385,3.389973 -2.852023,3.017904 -3.431315,5.084961 -2.687174,5.04362 -2.232422,5.580538 -1.405599,5.622396 -0.950847,5.953125 -0.6614579,7.441406 -0.041341,5.78776 0.3720703,4.299476 0.4960936,3.67937 0.826823,3.59668 1.116211,3.26595 1.860351,3.7207 1.901693,3.22409 2.191081,2.85254 2.89388,2.8112 1.901176,1.65364 3.017904,1.69499 4.795573,2.02572 2.521809,1.03353 0.04134,0.53743 3.224609,0.66146 5.457031,0.41341 4.423503,-0.28939 5.622396,-1.03353 5.333008,-1.6123 6.407877,-2.76986 7.068819,-4.13411 6.325196,-3.76205 3.63802,-1.77715 5.04362,-1.73633 2.315104,-0.41341 3.100586,0.62012 3.886068,1.32292 4.423503,1.98385 3.555336,1.57097 2.93523,0.78548 3.26595,0.62012 2.93522,-0.0827 2.64583,-0.95084 1.61179,-1.48828 0.78548,-1.69499 -0.16536,-1.73581 -0.53744,-1.32292 -1.15703,-1.36426 -2.39779,-1.81901 -1.69499,-1.44694 -1.94303,-2.48047 -0.82682,-2.97656 -0.16537,-1.73633 0.16537,-7.110674 -2.02572,-2.645833 h -7.193362 l -0.206706,4.010091 -0.37207,0.950847 L 98.184188,97.8948 87.187443,97.646753 86.525985,97.192 86.153914,96.530542 86.443302,90.577417 75.115828,90.536076 74.45437,96.489201 73.999618,97.192 l -0.744141,0.372071 -10.996228,0.04134 -0.454753,-0.537435 -0.413411,-0.7028 -0.165365,-1.074869 0.372071,-4.051433 -0.289388,-0.04134 -0.08268,0.661459 -0.330729,0.04134 -0.08268,1.736328 -1.033529,0.248047 -0.08268,1.488281 0.37207,0.496094 0.413412,0.165364 0.206705,0.537435 -0.289388,0.620117 -0.496093,0.330729 -0.661459,0.248047 -0.620117,0.124024 H 57.877087 56.926241 L 55.892712,97.605412 55.231254,97.192 54.73516,96.985295 54.073702,96.44786 53.866996,96.075789 v -0.578776 l -0.206705,-0.289388 v -0.702799 l 0.206705,0.04134 0.289388,-5.04362 0.289388,-5.539713 0.248047,-0.496094 0.08268,-4.092774 0.165365,-0.124023 -0.08268,-2.645833 0.330729,-0.578776 0.08268,-4.340821 0.909505,-0.992187 1.405599,-0.578259 1.322917,-0.206706 1.653646,0.578259 1.116211,0.744141 0.37207,0.578776 0.124024,0.289388 H 60.56426 l 0.08268,0.620117 0.165365,0.248047 0.04134,0.785482 0.909505,-0.124024 v 2.025716 l 1.116211,0.04134 0.08268,-2.521809 0.496094,-1.157552 0.578776,-0.206706 10.913546,-0.04134 0.620117,0.413411 0.578776,0.992188 -0.08268,2.811198 11.20345,0.289388 0.248047,-3.100586 0.413412,-0.578776 0.578776,-0.537435 11.038086,0.37207 0.578779,0.330729 0.16537,0.454753 -0.0413,2.811198 10.45931,0.165364 2.36006,0.07648 0.0377,-0.200504 2.06706,-3.348633 2.9347,-2.934705 3.05925,-2.397786 3.76204,-1.529622 3.84473,-0.826823 3.59668,-0.124024 1.98437,-0.702799 0.7028,-0.826823 0.28939,-0.578776 -0.78548,-0.289388 -0.0827,-1.240235 0.37207,-2.025716 -0.74414,-1.984375 -1.36426,-1.777669 -1.69499,-1.405599 -2.89388,-1.198893 -3.96875,-0.372071 -3.43131,0.124024 -4.87774,0.992187 -6.90397,2.273763 -4.67155,1.901693 -3.38998,1.07487 -3.389976,0.868164 -3.596679,0.165365 h -3.59668 L 87.311461,59.48939 83.384053,58.083791 80.200784,56.636851 75.735941,54.239065 69.94818,50.683726 65.277148,48.120575 58.993293,45.309377 53.701627,44.027802 Z m 29.37185,33.039843 -0.292488,2.22157 11.459249,0.204639 0.116788,-2.251025 z m -0.438733,2.747636 -0.02894,2.251026 11.400337,0.116788 0.175183,-2.309419 z m -0.146244,2.660303 v 2.367814 l 11.34246,0.0584 0.175183,-2.367815 z m -0.08733,2.689242 v 2.601908 l 11.370882,-0.02946 0.08785,-2.484602 z m 11.283549,3.040124 -11.400855,0.05839 -0.05839,2.338876 11.313005,-0.02946 z m -54.021509,14.528313 0.935344,0.0879 1.023193,0.99374 0.994254,-0.6134 0.935344,-0.1757 0.964282,0.40928 0.906405,0.7307 0.613916,1.11104 -0.05839,1.05214 -0.730704,0.9064 -0.789616,0.64285 -0.876949,0.1757 h -0.876949 l -0.993738,-0.52606 -0.672311,-0.52658 -0.146244,-0.67231 0.116789,-0.87695 -1.023193,-0.49661 -0.7891,-0.26355 -0.350883,-0.58446 0.05839,-0.73071 0.234094,-0.32143 z m 35.370968,0.76016 1.461926,0.81855 1.374076,1.34463 0.116789,0.67231 0.08733,1.02319 -0.321427,0.93534 -0.964282,0.87695 -0.877466,0.32195 -0.964282,-0.0589 -1.111044,-0.78909 -1.081587,-1.05214 -0.438217,-1.08158 0.0584,-1.16944 0.67231,-0.99374 0.905888,-0.64337 z m -21.719605,12.30674 1.345138,0.32195 1.315165,0.70125 0.76016,0.93534 0.233578,1.22783 -0.263033,0.55552 -0.350366,0.93535 -0.906405,0.67231 -1.286226,0.38033 -0.964799,-0.35088 -1.081588,-0.52606 -0.935344,-0.9648 -0.292488,-1.16944 0.438733,-1.46141 0.964799,-0.84801 z" /><path
       id="path13"
       style="fill:#000000;fill-opacity:1;stroke-width:0.264583"
       d="m 251.63167,74.250248 -0.76016,0.408761 -0.93534,1.345137 -0.76016,1.286227 -0.76017,0.759643 -1.5198,0.760161 -2.10478,0.526066 -2.10478,0.05839 -0.93534,-0.116789 0.0289,0.350883 h 2.13424 l 1.5198,0.175183 3.50832,0.350883 3.36155,0.292489 1.16944,0.05839 -0.0879,-0.847493 0.14624,-0.672827 0.58446,-0.584461 0.73071,-0.350883 0.84801,-0.08733 0.87695,0.321428 0.67231,0.730704 0.26303,0.730705 -0.0584,1.023193 -0.35089,0.672311 -0.84801,0.555521 -1.13998,0.116789 -0.61392,-0.350883 -0.64285,-0.379822 -0.1757,-0.409277 -8.79895,-0.67231 -3.04012,-0.146245 0.0294,0.584978 2.68925,0.233577 2.07584,0.497127 1.54926,0.350883 1.28622,0.584461 13.44673,1.637109 -0.1757,-1.052649 0.81855,-1.198376 1.16944,-0.497128 1.25677,0.380339 0.87747,0.730705 0.26303,1.286226 -0.40928,1.111043 5.64152,0.350367 0.40928,-1.139982 0.67231,-0.526067 1.16943,-0.05839 0.99374,0.204639 0.70177,0.49661 0.23358,0.906405 -0.11679,1.023193 -0.40928,0.789099 -0.55552,0.467672 -1.40302,0.117306 -0.93534,-0.584978 -0.61392,-0.730704 -0.23357,-0.584461 -5.93453,-0.350883 -0.78909,0.467672 -0.90641,-0.146244 -0.99374,-0.409278 -0.17518,-0.263033 -10.78694,-0.467671 2.04639,1.637109 -0.11679,0.379822 -0.76016,0.438733 17.97771,2.338358 0.52607,-0.175183 1.08159,0.02894 0.64337,0.321944 0.83354,1.367358 -0.12402,1.446941 -0.82683,0.74414 -0.7028,0.206706 -1.15755,-0.08268 -1.11621,-0.992188 -0.28939,-0.868164 0.20671,-0.992187 0.53743,-0.661459 -17.94154,-2.356445 -3.10058,1.364258 11.82305,1.074869 0.57877,-0.413411 1.32292,0.04134 0.62012,0.248047 0.78548,0.413412 0.16536,0.578776 v 0.37207 l 0.28939,0.537435 -0.28939,0.826823 -0.57877,0.826823 -0.53744,0.248046 h -1.19889 l -0.74414,-0.496093 -0.66146,-0.7028 -0.20671,-0.578776 -0.0827,-0.909505 0.28939,-0.661458 -13.10463,-1.07487 -0.2067,0.248047 -2.19108,0.165364 -2.85254,0.08268 9.26042,1.198893 0.49609,-0.37207 1.03353,-0.04134 0.78496,0.248047 0.7028,0.620117 0.41341,0.744141 0.16537,0.661458 -0.24805,0.496094 -0.28939,0.496094 -0.62011,0.578776 -0.82631,0.248047 -1.19889,-0.330729 -0.66146,-0.7028 -0.33073,-0.620117 -0.0413,-0.785482 0.0827,-0.868164 -10.58333,-1.322917 0.0413,1.240235 -0.28939,0.165364 h -1.44694 l 0.10697,0.389124 4.09277,1.695504 2.68925,1.812292 1.87068,2.748153 0.58446,1.286226 0.87747,0.175183 3.4494,-1.052132 3.97547,-1.052649 3.62458,-0.876949 4.67724,-0.291972 4.44314,0.0584 4.15116,0.233577 2.51406,0.234094 1.87069,0.70125 1.46193,-0.467672 0.81855,-0.701249 v -1.461927 l 0.52607,-1.695503 0.81855,-1.578198 1.34462,-1.169438 0.40928,-1.519804 0.0584,-1.520321 0.81856,-1.578715 1.5198,-1.636592 1.05265,-1.169438 -0.0584,-0.643372 -1.05265,-0.291971 -7.01559,0.05839 -5.32009,-0.292489 -5.14491,-0.818554 -5.08651,-1.286227 -4.61884,-1.578198 -3.4494,-1.461926 -2.33836,-1.110527 -1.22783,-0.701766 z m -0.93586,8.857341 1.22783,0.642855 8.74055,0.438732 z" /></g></svg>
