<?xml version="1.0" encoding="UTF-8" standalone="no"?>
<!-- Created with Inkscape (http://www.inkscape.org/) -->

<svg
   width="297mm"
   height="210mm"
   viewBox="0 0 297 210"
   version="1.1"
   id="svg1"
   xml:space="preserve"
   xmlns:inkscape="http://www.inkscape.org/namespaces/inkscape"
   xmlns:sodipodi="http://sodipodi.sourceforge.net/DTD/sodipodi-0.dtd"
   xmlns="http://www.w3.org/2000/svg"
   xmlns:svg="http://www.w3.org/2000/svg"><sodipodi:namedview
     id="namedview1"
     pagecolor="#ffffff"
     bordercolor="#000000"
     borderopacity="0.25"
     inkscape:showpageshadow="2"
     inkscape:pageopacity="0.0"
     inkscape:pagecheckerboard="0"
     inkscape:deskcolor="#d1d1d1"
     inkscape:document-units="mm"><inkscape:page
       x="0"
       y="0"
       width="297"
       height="210"
       id="page2"
       margin="0"
       bleed="0" /></sodipodi:namedview><defs
     id="defs1" /><g
     inkscape:label="Sloj 1"
     inkscape:groupmode="layer"
     id="layer1"><path
       id="path1"
       style="display:inline;fill:#2c2ca0;stroke-width:0.264583"
       d="m 14.14849,56.243079 -1.052649,0.175183 -0.876949,0.76016 -0.291971,1.110527 -0.292489,2.280481 -0.350883,8.00933 v 5.612577 l 0.292489,6.665226 0.409277,5.963461 0.876949,8.535913 0.409277,1.110526 0.876949,1.286227 1.052133,0.993737 1.695503,1.987993 0.818555,1.34462 0.701766,1.7539 0.701249,2.51406 0.350883,2.86494 v 1.87069 l -0.175183,1.92959 -0.409277,1.8123 -0.409278,1.6955 -0.467671,1.34462 0.116788,1.05213 0.643372,2.39727 1.110526,3.2737 1.052649,3.09904 0.935344,2.68924 1.227832,3.04013 1.227832,2.74763 1.052132,2.39727 1.344621,2.86494 1.169437,2.27997 1.227832,2.33836 1.403016,1.92959 0.409277,0.76016 1.344621,1.22732 1.812292,1.22783 0.876949,0.29249 5.495789,-1.40302 14.14849,-4.56044 22.391915,-7.60057 2.104781,0.23409 30.693735,8.18503 19.52697,5.32009 2.74816,0.35089 1.4614,-0.0584 0.46768,-0.46767 v -0.64337 l -2.10478,-3.3321 -3.97547,-4.61884 -9.35447,-9.82214 -4.91081,-5.67097 -0.23358,-2.45566 -0.0589,-1.69551 0.76016,-1.34462 1.11104,-1.63711 1.11053,-0.75964 1.16944,-0.58498 1.98799,-0.23358 8.5354,-0.1173 0.1173,-1.98748 -1.28622,0.11679 -9.82214,0.0584 -0.40928,-0.70125 -0.87695,-0.70177 h -8.94519 l -0.35088,-0.52606 -1.8123,0.0584 -0.35088,4.50153 3.80029,-0.0584 0.1757,1.52032 0.11678,1.46141 0.52607,1.6955 0.93534,2.04639 0.99426,1.28623 17.59737,18.35753 0.11731,0.58498 -0.46767,0.11679 -0.46819,0.0584 -31.278196,-9.82214 -34.669718,-10.93266 -1.578198,-1.11053 -0.994255,-1.22783 -0.467671,-1.11104 -0.116789,-1.46141 0.233577,-1.40354 0.350883,-0.29197 h 4.911328 l -0.234094,-0.46767 0.818555,-8.53591 -1.812293,-0.0584 0.05839,0.64286 -0.760161,0.11679 v 1.11104 l 0.584978,0.17518 0.05839,1.05265 -0.818555,0.17519 v 1.6371 l 0.935344,0.46768 0.116788,0.93534 -0.233577,1.16944 -0.409277,0.70176 -0.935344,0.23358 -1.111043,-0.11679 -0.876949,-0.70176 -0.467672,-0.75965 -0.292488,-1.52032 0.234094,-5.379 -7.249687,0.64337 -0.701766,5.78776 0.292489,0.93586 -0.05839,1.11053 -0.526066,0.99426 -1.169437,0.64285 -1.63711,-0.11679 -0.935343,-0.40928 -0.76016,-0.46767 -0.642855,-0.58497 0.05839,-1.11053 2.923336,-22.450311 0.759643,-0.93586 0.643372,-0.233577 1.169438,-0.116789 0.993737,0.233577 0.818555,0.584461 0.409277,0.76016 0.116789,0.876949 0.350883,0.409278 -0.526066,3.274218 6.430615,-0.818554 0.292489,-2.689242 0.526066,-0.526583 0.76016,-0.467671 1.052649,0.292488 0.584461,0.584461 0.818554,0.468188 0.292489,0.467672 0.233577,0.642855 0.175184,0.526066 -0.05839,0.409277 -0.05839,0.350883 h 1.578715 l 0.233577,-2.864941 0.468189,-0.584461 11.049455,0.0584 0.467671,0.350883 0.350883,0.701765 -0.467671,2.514059 15.434716,0.526066 0.350883,-3.274219 0.233578,-0.642855 0.467671,-0.117305 11.225153,0.117305 0.29249,0.350367 0.29249,0.76016 -0.35088,2.923336 13.44672,0.409284 -1.92908,-0.93535 -0.81856,-0.760161 -1.46192,-1.403015 -0.40876,-0.526066 -0.76016,-1.345137 -0.64337,-1.168921 -0.64286,-1.578715 -0.64337,-2.338359 -0.58446,-1.578715 -0.81856,-1.461409 -0.99373,-0.701766 -1.69551,-0.234095 -1.7539,0.1757 c 0,0 -1.34478,0.292418 -1.63711,0.350883 -0.29232,0.05847 -9.705345,1.636593 -9.705345,1.636593 l -10.2309,1.637109 -2.046387,0.409278 -2.22157,0.116788 -1.695504,-0.175183 -1.812809,-0.58446 L 76.004146,89.56766 49.226969,75.30238 15.025439,56.476656 Z m 49.431608,43.205114 -0.233577,0.730707 -0.67231,0.20464 v 1.02319 l 2.835485,-0.0289 0.116789,-1.841747 z m -4.004923,0.02946 -6.606315,0.876947 -0.292489,2.07532 6.723621,-0.7307 z m 18.358053,0.467672 -0.292489,1.987475 15.639355,0.29248 0.05839,-1.90014 z m -14.599109,2.124935 -0.04134,0.66145 -0.868165,0.0413 v 1.19889 l 2.687175,0.0827 0.330729,-1.90169 z m -3.875733,0.009 -6.986653,0.90641 -0.116789,2.07532 6.869865,-0.84749 z m 18.09502,0.35088 -0.263033,1.87069 15.785083,0.49713 v -1.98799 z m -14.425993,2.20349 0.08268,0.7028 -1.033528,0.0827 -0.04134,1.28157 h 2.935222 l -0.04134,-2.02571 z m -3.815271,0.13487 -7.103442,0.84801 -0.321428,1.92908 7.308081,-0.64285 z m 17.948775,0.2341 -0.263033,1.95853 15.931327,0.32143 -0.02894,-1.92908 z m -12.521199,2.19418 -1.77767,0.0413 v 0.86816 h -0.868164 l 0.04134,1.1989 0.785482,0.0413 v 0.16536 c 0,0 1.777667,0.20627 1.736328,0.0408 -0.04109,-0.16439 0.08123,-2.33024 0.08268,-2.35593 z m -5.690609,0.17363 -7.220231,0.64286 -0.116789,2.28048 7.161837,-0.58498 z m -0.717269,18.67741 1.281576,0.45476 1.777669,1.57096 0.454752,0.9095 -0.165364,0.95085 -0.744141,1.11621 -0.868164,0.4961 -1.488281,0.2067 -1.198893,-1.15755 -0.909506,-0.41341 -0.454752,-0.95085 -0.206706,-1.11621 0.661458,-0.86816 0.7028,-0.90951 z m -13.766602,5.53972 1.07487,0.12402 1.07487,0.66146 1.405599,1.32292 0.124023,0.28938 0.165365,0.7028 c 0,0 -0.08268,0.62013 -0.165365,0.82683 -0.08268,0.20671 -0.206708,0.57878 -0.289388,0.78548 -0.08268,0.2067 -0.620117,0.49609 -0.620117,0.49609 0,0 -0.702802,0.37205 -0.909505,0.45475 -0.206704,0.0827 -0.702799,-0.0413 -0.702799,-0.0413 l -0.7028,-0.0827 -1.943034,-1.52962 -0.248047,-0.66146 -0.248047,-0.82682 0.165365,-1.24024 0.661458,-0.74414 z" /><path
       style="display:inline;fill:#338000;stroke-width:0.264583"
       d="m 270.57404,115.75987 -1.46164,-3e-5 -0.52618,0.40925 -0.23386,0.52619 -0.17539,0.52618 v 0.17539 l -25.43209,-4.38484 4.03406,-0.58465 0.11693,-0.40925 15.49311,2.28012 0.11693,0.70157 0.46771,0.40926 0.52618,0.52618 1.57672,0.14942 0.78547,-0.0827 0.86815,-0.82681 -0.12402,-1.24022 -0.53743,-0.95084 -0.33072,-0.37207 -0.57877,-0.33072 -1.03352,0.12402 -1.07486,0.37207 -0.45475,0.62011 -0.12402,0.53743 -15.87482,-2.56313 0.0413,-1.57094 9.63238,1.19888 0.33072,0.74413 0.41341,0.41341 0.74413,0.53743 c 0,0 0.62011,0.12402 0.95084,0.0413 0.33072,-0.0827 1.24022,-0.33073 1.24022,-0.33073 l 0.41341,-0.66145 0.0827,-0.86815 -0.20671,-0.9095 -0.45474,-0.45475 -0.49609,-0.57877 -0.78547,-0.12402 h -0.95084 l -0.86815,0.41341 -0.20671,0.45475 -0.2067,0.66145 -9.59104,-0.95084 -0.0413,-0.24804 -7.68937,-2.27374 11.41003,0.95083 v 0.41341 l 0.28938,0.49609 0.53743,0.33072 0.57877,0.33073 1.15754,0.12402 1.03352,-0.24804 0.66145,-0.57877 0.0827,-0.86816 -0.24804,-0.99217 -0.45475,-0.62011 -0.12402,-0.45475 -0.37207,-0.12402 -0.49609,-0.20671 -0.66145,0.0827 -0.62011,0.0827 -0.62011,0.12402 -0.33072,0.41341 -0.16537,0.57877 -0.28938,0.45474 0.0413,0.16537 -13.89047,-1.1162 -1.65363,-0.66145 0.0413,-0.7028 9.7564,-0.24804 0.24805,0.57877 0.33072,0.33073 c 0,0 0.41341,0.24804 0.57877,0.28938 0.16537,0.0413 0.53743,0.16536 0.70279,0.16536 0.16537,0 0.86816,0 0.86816,0 l 1.1162,-0.62011 0.28938,-0.4134 -0.0827,-1.1162 -0.0413,-0.53743 -0.28938,-0.20671 -0.12403,-0.37206 -0.49608,-0.57877 -0.7028,-0.16536 -0.37206,0.12402 h -0.53743 l -0.78547,0.24804 -0.41341,0.57877 -0.28939,0.62011 v 0.49609 l -6.77902,0.34607 1.0816,-0.32156 1.84164,-0.8185 1.31545,-1.08159 0.7308,-0.9939 0.87697,-1.08159 0.76004,-0.613883 0.78927,-0.11693 1.11083,0.175395 0.67234,0.292322 42.03603,24.204336 0.61386,0.55541 0.46773,0.61388 0.14616,0.78927 -0.11692,0.8185 -0.46773,0.55542 -0.61386,0.49694 -0.35079,0.29233 -8.79893,2.22165 -1.22774,-0.0292 -0.87699,-0.14616 -0.43847,-0.1754 -39.78514,-13.7684 -3.1156,-0.84569 -0.0827,-1.15754 39.62171,6.79732 0.17539,0.58465 0.35078,0.76004 1.1693,0.46771 0.87696,0.23386 0.93544,-0.52618 c 0,0 0.58465,-0.23386 0.64309,-0.46771 0.0585,-0.23386 0.17542,-1.1693 0.17542,-1.1693 v -0.64311 l -0.35081,-0.64311 -0.70157,-0.40925 -1.05235,-0.40925 -0.81852,0.23386 -0.58465,0.70157 -0.4677,0.70158 -0.17539,0.29232 -39.05434,-6.72343 6.02185,-0.8185 26.95218,4.44331 0.11692,0.46771 0.40925,0.64312 0.76005,0.52617 1.05235,0.23386 1.05235,-0.11693 0.40926,-0.52618 0.35079,-0.64311 0.0585,-0.8185 -0.23387,-0.64311 -0.23384,-0.46772 -0.5262,-0.40925 -0.76001,-0.11693"
       id="path13" /></g></svg>
