<?xml version="1.0" encoding="UTF-8" standalone="no"?>
<!-- Created with Inkscape (http://www.inkscape.org/) -->

<svg
   width="297mm"
   height="210mm"
   viewBox="0 0 297 210"
   version="1.1"
   id="svg1"
   xml:space="preserve"
   xmlns:inkscape="http://www.inkscape.org/namespaces/inkscape"
   xmlns:sodipodi="http://sodipodi.sourceforge.net/DTD/sodipodi-0.dtd"
   xmlns="http://www.w3.org/2000/svg"
   xmlns:svg="http://www.w3.org/2000/svg"><sodipodi:namedview
     id="namedview1"
     pagecolor="#ffffff"
     bordercolor="#000000"
     borderopacity="0.25"
     inkscape:showpageshadow="2"
     inkscape:pageopacity="0.0"
     inkscape:pagecheckerboard="0"
     inkscape:deskcolor="#d1d1d1"
     inkscape:document-units="mm"><inkscape:page
       x="0"
       y="0"
       width="297"
       height="210"
       id="page2"
       margin="0"
       bleed="0" /></sodipodi:namedview><defs
     id="defs1" /><g
     inkscape:label="Sloj 1"
     inkscape:groupmode="layer"
     id="layer1"><path
       id="path1"
       style="display:inline;fill:#338000;stroke-width:0.264583"
       d="m 13.539225,50.580375 -0.661458,0.02067 -0.496094,0.537435 -0.248047,0.826823 -0.124023,1.054199 -0.475423,4.733561 0.04134,2.645833 v 4.836914 l 0.289388,5.828585 0.37207,4.051432 0.37207,5.663737 0.496094,4.010092 0.578776,4.754231 0.620117,2.893881 0.454753,0.496093 0.537435,0.578776 1.157552,1.033529 1.281576,1.157552 1.157552,1.653646 1.074869,2.025716 0.868164,2.06706 0.372071,1.73633 0.248047,1.94303 0.04134,1.69499 -0.04134,1.86035 -0.248047,2.06706 -0.578776,1.69498 -0.496094,1.03353 -0.206706,0.57878 0.08268,0.86816 3.430798,8.72247 2.811198,6.65592 2.273763,5.04362 1.777669,3.63802 1.612305,2.60449 1.364258,2.31511 1.198893,1.36426 3.26595,2.06705 0.661459,0.33073 1.281575,-0.12402 1.281576,-0.41341 2.108398,-0.78548 38.033338,-12.48503 c 0,0 0.711004,-0.25476 0.871781,-0.25476 h 0.759644 l 1.052648,0.17518 1.037663,0.32143 50.021243,12.16049 1.34358,0.31006 0.93018,0.33073 1.07487,-0.0413 0.7028,-0.57878 0.10335,-0.57877 -0.37207,-0.55811 -0.53743,-1.03353 -0.45476,-0.74414 -2.12906,-2.68717 -5.84978,-5.89111 -8.05842,-8.06928 -2.92334,-3.12797 -0.49712,-0.64286 -0.11679,-0.87695 -0.0295,-1.37407 -0.11679,-1.57872 0.0879,-0.96428 0.35089,-0.87695 0.75964,-1.02319 0.81856,-0.76016 0.78961,-0.61392 0.64286,-0.49713 0.46767,-0.0873 0.46767,0.0434 0.20464,-0.3359 0.61391,-0.0439 1.09606,-0.20464 6.98666,0.0729 0.27801,0.16123 0.29198,-0.0589 0.36535,-0.20464 0.0295,-0.40928 -0.0439,-1.31516 -10.64069,0.14624 -0.20464,-0.33641 -0.21911,-0.36535 -0.26303,-0.20464 -0.33642,-0.19017 -11.75122,-0.0584 v 1.28622 l -0.23358,2.68924 -0.23409,0.32195 -0.32143,0.26303 -11.166762,-0.11679 -0.526066,-0.43873 -0.321944,-0.52607 0.994254,-11.10836 -15.259534,-0.0295 -0.789099,11.3714 -0.321427,0.52658 -0.409277,0.0873 -10.991578,-0.20464 -0.350883,-0.46767 -0.379821,-0.43822 0.730704,-11.22515 -2.835485,0.0584 -0.0088,0.76274 -0.06201,0.22738 -0.268718,0.16536 h -0.186035 l -0.227376,-0.12402 0.04134,1.13688 0.7028,0.16537 -0.04134,0.86816 -0.165364,0.3514 -0.640788,0.20671 -0.06201,1.30224 0.764812,0.0827 -0.04134,1.07486 -0.950846,0.12403 0.06201,0.3514 0.227376,0.0207 v 0.80615 l 0.413412,0.55811 0.268717,0.22737 0.186035,0.62012 0.08268,0.66146 -0.206705,0.82682 -0.578776,0.49609 -0.661459,0.33073 -0.72347,0.18604 -0.640787,-0.24805 -0.7028,-0.41341 -0.330729,-0.51676 v -0.95085 l -0.310059,-0.18603 c 0,0 -0.248047,-0.31007 -0.248047,-0.41342 0,-0.10335 0.310059,-8.59895 0.310059,-8.59895 l -7.854818,0.49609 -1.038179,8.08478 0.321427,0.61391 0.350883,0.55501 0.116789,1.02319 -0.233578,0.70177 -0.964799,0.90588 -1.023193,0.0589 H 50.83514 49.811947 l -0.555522,-0.49713 -0.350883,-0.84801 -0.08733,-0.70125 -0.08785,-1.84175 0.175183,-1.5198 0.234094,-1.63711 0.233578,-2.07584 0.02946,-2.16318 0.233578,-1.43195 0.05891,-1.34514 0.116789,-1.28623 0.993737,-6.694164 0.05839,-1.25677 -0.02894,-1.432471 0.438216,-0.409277 0.818555,-0.70125 0.818554,-0.117305 1.432471,0.08785 0.847494,0.643371 0.613916,0.818038 0.263033,0.848011 0.321944,0.905887 -0.204639,0.409278 -0.02945,0.613916 -0.613916,0.146244 -0.409278,0.204639 0.08785,0.730705 0.08785,0.292488 7.453809,-0.58446 -0.05839,-1.169438 0.117306,-1.052132 0.526066,-0.84801 0.876949,-0.497128 0.876949,0.02946 0.730705,0.58446 0.146244,0.350883 0.789099,0.08785 0.467672,0.467672 0.321944,0.613916 0.204639,0.497127 -0.204639,0.438216 -0.204639,0.555522 2.659786,-0.05839 0.204639,-2.630847 0.234094,-0.438733 0.496611,-0.321428 10.933183,0.292489 0.642854,0.730705 -0.08733,1.16892 -0.02945,1.578715 15.282271,0.375171 0.08268,-2.976562 0.372071,-0.661458 0.496093,-0.206706 10.666023,0.08268 0.45475,0.289388 0.28939,0.620117 v 1.116211 1.819011 l 13.8901,0.496093 -1.48828,-0.578776 -1.32291,-0.702799 -1.07487,-0.826823 -0.66146,-0.661458 -0.82682,-0.909506 -0.86817,-1.157552 -0.57826,-1.074869 -0.57877,-1.240235 0.2067,-0.454752 0.28939,-0.08268 -0.0413,-0.620117 -0.62012,-1.157552 -0.49609,-0.992188 -0.7028,-1.364257 -0.62012,-1.116211 -0.78548,-0.661459 -0.7028,-0.496093 -0.7028,-0.124024 -1.19889,0.08268 -1.77767,0.289388 -2.27376,0.330729 -16.205737,2.728515 -3.183268,0.537435 -1.281576,0.372071 -1.033528,0.08268 -1.943034,-0.04134 -1.364258,-0.04134 L 80.200846,85.616554 78.836589,85.07912 14.717505,50.93185 Z m 49.216118,44.709933 -7.56543,0.785481 -0.04134,1.77767 7.482747,-0.454753 z m 4.092773,0.04134 -0.248047,0.909505 -0.578776,-0.04134 -0.04134,1.033528 3.679362,0.04134 0.248047,-1.943034 z m 15.37839,0.413411 -0.04134,1.901693 15.213542,0.330729 0.04134,-1.984375 z m -15.667778,2.108399 v 0.74414 l -0.702799,-0.08268 v 1.281576 l 3.63802,0.165364 0.165365,-2.067057 z m -3.96875,0.08268 -7.56543,0.661458 -0.165364,1.943034 7.689453,-0.49609 z m 19.553845,0.248047 -0.08268,2.067065 14.965495,0.28938 0.165364,-2.025716 z m -19.677868,2.315105 -7.689454,0.66146 -0.124023,1.98438 7.648112,-0.45476 z m 4.134114,0 v 0.74414 l -0.289388,0.20671 -0.661458,-0.16537 -0.08268,1.24024 0.785481,0.24805 2.935222,-0.0827 0.206705,-2.14974 z m 15.295707,0.28939 -0.124023,1.90169 15.130859,0.33073 0.124024,-1.90169 z m -14.551566,18.97507 1.07487,0.53743 0.868164,0.99219 0.454752,0.90951 -0.08268,1.4056 -0.330729,0.62011 c 0,0 -0.578776,0.66146 -0.744141,0.78548 -0.165362,0.124 -0.950846,0.20671 -0.950846,0.20671 h -1.07487 l -0.537435,-0.41341 -0.950846,-0.78548 -0.868164,-1.24024 -0.124024,-1.24023 0.496094,-1.03353 1.322917,-0.7028 z m -12.361003,5.33301 0.661459,0.0827 0.826822,0.24805 0.537435,0.86816 0.496094,0.57878 0.206706,0.7028 -0.620117,0.95084 -0.620118,0.78548 -0.661458,0.53744 -0.909505,0.0413 h -0.578776 c -0.165365,0 -0.826823,-0.33073 -0.826823,-0.33073 l -0.37207,-0.49609 -0.289388,-0.7028 -0.08268,-0.78548 0.330729,-0.57878 0.372071,-0.78548 0.826823,-0.4961 z m -12.85968,3.02824 1.198893,0.61391 1.081588,0.87695 0.701249,0.9648 v 1.02319 l -0.438216,0.9648 -0.643372,0.75965 -1.139982,0.38033 -0.789099,-0.0584 -1.052649,-0.58498 -0.964282,-0.81855 -0.643372,-0.7891 -0.175183,-0.7891 0.263033,-0.9064 0.409278,-0.73071 0.701249,-0.52607 0.76016,-0.29248 z" /><path
       id="path12"
       style="display:inline;fill:#0055d4;stroke-width:0.264583"
       d="m 246.13588,94.128105 -1.11104,0.350883 -0.87695,0.818038 -0.81856,0.994254 -0.64285,1.168921 -1.69551,0.93586 -1.6371,0.759644 6.37273,-0.263033 -0.11679,-0.555005 0.20464,-0.701766 0.35037,-0.584461 0.46819,-0.321944 0.87695,-0.116788 0.40927,0.263033 0.55501,0.02945 0.52658,0.379822 0.0873,0.526066 0.23409,0.994255 -0.1757,0.905887 -0.70125,0.555529 -0.67231,0.20463 -0.67231,-0.17519 -0.46767,-0.0294 -0.52659,-0.497134 -0.17518,-0.438216 -9.76374,0.409277 -0.0289,1.169443 0.37982,0.0289 1.19838,0.0294 h 0.93586 l 1.05213,0.35037 11.48819,0.52658 -0.0879,-0.84801 0.87746,-0.93534 1.51981,0.0289 0.7891,0.20464 0.38033,0.64337 0.0289,0.7891 -0.0873,0.9648 -0.70177,0.55552 -0.61391,0.23358 -1.11105,-0.0289 -0.7307,-0.55552 -0.20464,-0.64286 -10.05572,-0.40927 1.95854,0.67231 0.81856,0.32143 0.90588,0.58446 0.55552,0.35088 11.34246,1.08159 0.35037,-0.7307 0.35088,-0.7891 1.0232,-0.0295 1.05265,-0.14624 0.46767,0.52606 0.29197,0.64338 0.0589,0.9064 -0.0879,0.58446 -0.46767,0.7891 -0.76016,0.43873 -0.76016,-0.1173 -0.49661,-0.23358 -0.70177,-0.37982 -0.32143,-0.49713 v -0.61392 l -10.84533,-0.99373 1.95854,1.60765 -0.55552,0.37982 15.11329,1.95854 v -0.70125 l 0.23357,-0.76016 0.81856,-0.46767 0.99425,0.17518 0.93535,0.29249 0.52606,0.99374 v 0.58498 l -0.0584,0.75964 -0.29249,0.76016 -1.22783,0.1757 -0.70125,-0.0589 -0.87695,-0.52607 -0.40928,-1.05213 -15.61041,-1.9296 -0.46768,0.40928 -2.04638,1.16944 -1.92908,0.40927 -1.11105,0.23358 h -4.9692 l 0.0584,1.40353 0.70177,0.0584 0.70125,0.17518 1.16943,0.29249 1.46141,0.52607 1.75442,0.52606 1.28622,0.40928 24.26261,7.83415 9.12037,3.391 0.40928,0.1757 0.99374,0.11679 0.64337,-0.29249 5.90506,-1.63659 1.22732,-0.40928 1.40353,-0.76016 0.70125,-0.76016 0.1757,-0.87695 -0.2341,-0.81855 -0.46767,-0.52607 -39.46374,-22.684406 -0.93534,-0.350883 z m 23.59029,15.493115 h 0.49713 l 0.52607,0.0584 0.43873,0.23358 0.26303,0.61391 -0.0584,0.81856 v 0.49713 l -0.32195,0.70176 -0.81855,0.43822 c 0,0 -0.58456,0.0294 -0.73071,0.0294 -0.14616,0 -0.67231,-0.29249 -0.67231,-0.29249 l -0.49661,-0.37982 -0.32194,-0.73122 -0.0873,-0.64285 0.17519,-0.58498 0.49713,-0.6134 z m 5.40794,3.2153 0.55552,0.0295 0.43874,0.0873 0.67231,0.29249 0.37982,0.87695 -0.14625,0.9648 -0.49712,0.87695 -0.93535,0.46767 -0.7307,-0.0879 -0.61392,-0.35037 -0.58446,-0.78961 -0.0879,-0.90589 0.2341,-0.58498 0.55552,-0.64285 z" /></g></svg>
