<?xml version="1.0" encoding="UTF-8" standalone="no"?>
<!-- Created with Inkscape (http://www.inkscape.org/) -->

<svg
   width="297mm"
   height="210mm"
   viewBox="0 0 297 210"
   version="1.1"
   id="svg1"
   xml:space="preserve"
   xmlns:inkscape="http://www.inkscape.org/namespaces/inkscape"
   xmlns:sodipodi="http://sodipodi.sourceforge.net/DTD/sodipodi-0.dtd"
   xmlns="http://www.w3.org/2000/svg"
   xmlns:svg="http://www.w3.org/2000/svg"><sodipodi:namedview
     id="namedview1"
     pagecolor="#ffffff"
     bordercolor="#000000"
     borderopacity="0.25"
     inkscape:showpageshadow="2"
     inkscape:pageopacity="0.0"
     inkscape:pagecheckerboard="0"
     inkscape:deskcolor="#d1d1d1"
     inkscape:document-units="mm"><inkscape:page
       x="0"
       y="0"
       width="297"
       height="210"
       id="page2"
       margin="0"
       bleed="0" /></sodipodi:namedview><defs
     id="defs1" /><g
     inkscape:label="Sloj 1"
     inkscape:groupmode="layer"
     id="layer1"><path
       id="path1"
       style="display:inline;fill:#00d400;stroke-width:0.264583"
       inkscape:label="body"
       d="m 43.936336,60.101758 -2.485119,0.409277 -3.536735,0.789099 -3.683496,1.111044 -2.572453,1.227315 -2.601392,1.315682 -2.280481,1.286226 -2.484603,1.753898 -1.841748,1.54926 -0.935343,1.081587 -1.198377,1.286227 -0.906404,1.198376 -1.783354,2.514059 -0.759644,1.286226 -1.198893,1.812293 -0.847493,2.046386 -1.695504,4.297412 -0.701766,2.659786 -1.139982,4.267957 -0.847493,3.391007 -0.9064051,5.642035 -0.4966105,3.24476 -0.350883,3.47834 -0.4387329,6.66523 0.1167887,3.12797 0.1756999,2.63085 0.6723104,3.12746 0.9353435,2.68976 1.023193,2.27996 1.54926,2.10478 1.637109,1.87069 2.104781,1.9296 4.092257,1.95853 2.806547,0.8475 2.367814,0.32194 2.659786,-0.0589 2.572453,-0.0289 3.362068,-0.67231 2.689242,-0.81855 2.864941,-1.19838 3.566191,-1.75442 7.541659,-4.73562 3.274218,-1.66605 2.163176,-0.76016 2.367814,-0.67231 2.543514,-0.17519 4.033862,0.0584 1.900143,0.49713 2.426208,0.64285 1.929081,0.78962 2.660303,1.19837 2.864941,1.0232 2.777092,0.7891 3.887618,0.87694 2.660303,0.37983 2.367814,0.20463 2.396753,0.0879 3.478857,0.0584 2.747636,-0.29197 2.251025,-0.40928 2.630844,-0.84801 2.57246,-1.05213 1.13998,-0.84801 1.46192,-1.28623 0.61392,-1.37356 0.0289,-1.66656 -0.20464,-1.37356 -0.87695,-1.52032 -1.87069,-1.0232 -3.97546,-0.52606 -2.075845,-0.46768 -1.782837,-0.87694 -1.432471,-0.99374 -1.520321,-1.66657 -0.847493,-1.75389 -0.409277,-1.46141 -0.0584,-1.84175 0.467672,-1.13998 0.818555,-1.16944 1.43247,-0.99374 1.315166,-0.76016 0.906404,-0.29249 11.926397,-0.29197 0.49713,-0.29249 0.1757,-0.76016 v -0.20464 l -13.154748,0.52607 -0.175184,-0.67231 -5.487003,-0.1447 -0.973584,1.46038 -0.642855,1.5198 -0.1757,1.9296 v 1.46141 l 0.116789,1.7539 0.468188,1.6955 0.526067,1.63711 1.286226,1.87069 1.286226,1.11104 1.286227,0.93535 1.227832,0.81855 1.870687,0.70177 1.695503,0.46767 1.812289,0.58446 2.27996,0.40928 0.99426,0.17518 v 0.87695 l -0.93535,0.87746 -1.22783,0.75965 -1.9296,0.76016 -3.127965,0.9064 -2.864425,0.35037 -1.666565,0.0878 -2.484603,0.0584 -2.13372,-0.20464 -2.660302,-0.35036 -1.841748,-0.43874 -2.542998,-0.67231 -3.303157,-0.9064 -5.159892,-1.66501 -1.612305,-0.57878 -1.818493,-0.86816 -2.211752,-0.74363 -1.922363,-0.43408 -2.025716,-0.24805 -1.674316,-0.12402 h -1.095541 c 0,0 -1.260905,0.12402 -1.343587,0.16536 -0.08268,0.0413 -1.44694,0.31006 -1.44694,0.31006 l -0.03049,-0.34468 -0.06305,0.0878 -1.052132,0.23409 -2.046386,0.35089 -1.870687,0.58446 -2.864942,1.46141 -3.156913,1.81229 -4.326351,2.57245 -3.449402,1.75442 -4.209562,2.04587 -2.338875,0.87695 -1.753898,0.35088 -1.46141,-0.0584 -1.052649,-0.0584 -1.286226,-0.40928 -0.701249,-0.35088 -0.584978,-0.99374 v -0.93586 l 0.409278,-1.40301 0.876949,-1.46141 0.93586,-1.57872 1.110527,-1.16943 1.812292,-1.5782 2.631364,-1.87121 3.858679,-2.86442 5.144389,-3.15743 4.287077,-3.34295 1.198893,-1.28158 0.992188,-1.32291 0.842842,-1.37925 0.748792,-2.27944 0.537435,-1.36426 0.378271,-1.15807 -6.880717,0.0847 0.05891,4.56044 -0.1757,0.32143 -0.379821,0.26303 -3.94653,-0.0289 -0.233577,-0.35089 -0.26355,-0.49712 0.204639,-4.15066 -8.18503,0.14573 -0.05839,2.45567 -0.379821,0.35088 -0.409278,0.23358 -10.173022,-0.0289 -0.175183,-1.08159 -0.08785,-0.11679 -0.350883,-0.1173 0.08785,-1.13999 -0.993738,-0.0873 -0.117306,-1.02319 0.789616,-0.0295 -0.08785,-0.93534 h 0.497128 l 0.05839,-2.104783 -0.76016,-0.204638 -0.116789,-1.110527 0.58446,-0.05891 -0.02894,-0.818038 0.526066,-0.146244 0.02894,-1.900143 -0.321428,-0.05839 -0.05839,-0.438733 -0.438216,-0.02894 0.02894,-0.76016 h 0.935344 l 0.117305,-2.718697 -0.380338,-0.116789 -0.146245,-0.438733 -0.555004,-0.467671 0.291971,-0.87695 0.760161,0.1757 0.233577,-1.987992 10.202478,0.292489 0.642855,0.263033 0.08785,1.607653 8.360213,0.05839 v -4.033863 h 4.180624 l 0.642854,0.613917 v 3.536735 l 9.276437,0.07958 0.180867,-1.240751 0.537435,-3.886068 0.537435,-1.157552 1.116211,-1.653646 1.198893,-1.198893 1.44694,-0.909505 1.984375,-0.785482 2.397787,-0.206705 h 1.901693 l 1.612304,0.165364 2.191081,0.620117 5.29115,1.860352 2.273763,0.992187 2.149739,1.033529 2.108399,0.909505 2.480469,0.992188 2.025716,0.620117 1.984375,0.37207 2.315104,0.08268 2.52181,-0.289389 4.175456,-0.950846 2.19108,-0.661458 1.777668,-0.537435 1.24023,-0.165365 1.07488,0.248047 1.07487,0.578776 0.41341,0.785482 -0.12402,0.785482 -2.24586,3.266984 7.11378,0.280086 -0.76016,-0.84801 -0.37982,-0.964282 0.0584,-1.169438 0.49661,-0.935343 0.84801,-0.848011 1.05213,-0.789099 2.25103,-1.023193 c 0,0 2.13402,-0.467672 2.30942,-0.467672 0.17539,0 2.22157,-0.116789 2.22157,-0.116789 l 5.52473,-0.350883 2.01744,-0.116788 2.27997,-0.350883 0.9648,-0.438733 1.28622,-0.818555 0.58446,-1.022677 0.32143,-0.409277 0.67231,-2.689758 -0.0584,-1.315165 -0.29249,-0.964799 -0.46767,-0.789099 -0.70125,-0.848011 -2.7187,-2.016931 -1.9296,-1.081588 -2.60139,-0.993737 -2.7187,-0.584978 -3.01066,-0.555005 h -2.19264 l -2.77709,-0.02945 -2.33836,0.234094 -3.27421,0.408761 -3.01067,0.526583 -4.092782,0.818554 -2.426209,0.642855 -5.203299,1.520321 -3.069581,0.730704 L 84.744181,72.32065 82.405823,72.2328 80.944413,71.999223 78.839632,71.531551 76.822701,71.122274 75.243986,70.508358 73.811515,69.894442 71.794584,69.046431 69.982292,68.198938 67.760205,67.0295 65.772729,66.094157 61.679956,64.22347 57.646094,62.644755 54.371875,61.504773 52.091911,60.949251 49.928735,60.48158 47.911804,60.306396 Z m -12.189953,29.641601 -0.0584,3.449402 7.33702,0.02894 -0.409277,-0.497127 v -0.555005 l 0.08785,-0.584977 0.175183,-0.438216 0.613916,-0.380339 0.497127,-0.175183 0.08785,-0.818555 z m 13.183691,0.0584 0.02894,0.876949 0.321944,0.05839 0.496611,0.584461 0.350883,0.467671 -0.02894,0.643372 -0.380339,0.818555 7.894609,0.09095 0.253214,-1.317749 0.307475,-2.109432 z m -13.359391,4.092256 -0.05839,3.654041 8.185031,-0.05839 0.292488,0.05839 -0.08785,-3.624585 z m 13.183691,0.08785 -0.263033,0.379822 -0.08733,3.127975 8.403621,-0.04341 0.43925,-2.197282 0.243913,-1.267106 z m 7.926648,4.095874 -8.101831,0.08423 0.05839,0.964799 0.730705,0.175183 0.26355,0.409277 0.233577,0.730702 -0.02945,0.58498 -0.263033,0.40928 -0.263033,0.23357 -0.116789,0.0295 6.352584,-0.11989 1.122412,-3.436481 z m -12.925309,0.05529 -8.18503,0.0584 0.02946,3.799771 7.629509,-0.20464 -0.350883,-0.35036 -0.263033,-0.38034 -0.233578,-0.49661 v -0.55552 l 0.379822,-0.497136 0.292489,-0.467672 h 0.613916 z" /><path
       id="path3"
       style="display:inline;fill:#0055d4;stroke-width:0.264583"
       inkscape:label="pickguard"
       d="m 63.664848,78.257756 -2.397787,0.206705 -1.984375,0.785482 -1.44694,0.909505 -1.198893,1.198893 -1.116211,1.653646 -0.537435,1.157552 -0.537435,3.886068 -0.180867,1.240751 7.12618,0.0615 0.04134,-4.030762 4.733561,0.02067 v 4.237467 l 20.81475,0.248047 0.0217,0.285771 0.143661,-0.575159 0.454752,-0.496093 0.744141,-0.124024 13.72526,0.08268 2.27376,-3.307291 0.12402,-0.785482 -0.41341,-0.785482 -1.07487,-0.578776 -1.07487,-0.248047 -1.24023,0.165365 -1.777668,0.537435 -2.19108,0.661458 -4.175456,0.950846 -2.52181,0.289389 -2.315104,-0.08268 -1.984375,-0.37207 -2.025716,-0.620117 -2.480469,-0.992188 -2.108399,-0.909505 -2.149739,-1.033529 -2.273763,-0.992187 -5.29115,-1.860352 -2.191081,-0.620117 -1.612304,-0.165364 z m 9.942029,3.066479 0.379821,0.08785 0.321945,0.321427 0.08733,0.584461 -0.145728,0.263033 -0.497127,0.117305 -0.613916,0.05839 -0.234094,-0.380339 0.02945,-0.642855 0.204639,-0.379821 z m 29.553753,2.718697 0.52606,0.350883 0.11731,0.496611 -0.0879,0.467671 -0.32143,0.204639 -0.40927,0.05839 -0.43874,-0.175183 -0.20464,-0.146244 0.0295,-0.555522 0.20464,-0.58446 z m -16.516306,2.13372 0.613916,0.497127 0.1757,0.321428 -0.1757,0.409277 -1.052132,0.146244 -0.409278,-0.05839 -0.116788,-0.438733 0.145727,-0.409277 0.350883,-0.409278 z m -32.469853,3.738273 -0.307475,2.109432 -0.253214,1.317749 7.277075,0.08423 -0.526066,-0.467672 -0.263033,-0.321427 -0.117306,-0.555522 0.263033,-0.526066 0.497128,-0.497127 0.67231,-0.438217 0.234094,-0.613916 -5.478735,-0.06718 0.0124,0.03772 -0.08785,0.292488 -0.146244,0.175184 -0.379822,0.204638 -0.263033,-0.02894 L 54.95685,90.4446 54.9274,90.093717 c 0,0 -0.02054,-0.07662 -0.03152,-0.170016 z m 11.97808,0.3545 -0.05839,0.555005 0.321427,0.05891 0.672311,0.350367 0.263549,0.584977 -0.02945,0.67231 -0.146244,0.584461 -0.701766,0.467671 20.093347,0.02894 v -0.183451 l 0.248047,-2.52181 0.113171,-0.452169 z m -12.661759,3.712435 -0.243913,1.267106 -0.43925,2.197282 8.609294,-0.04444 0.05839,-3.419947 z m 33.076534,0.08888 -20.589958,0.0863 0.02894,3.244764 c 0,0 18.075423,-0.127311 20.561019,-0.144178 z m 0,3.713468 -20.443714,0.143661 0.02894,0.876949 0.292489,0.08785 0.497127,0.380338 0.321428,0.642855 0.02894,0.467679 -0.291971,0.64337 -0.467672,0.46767 20.209102,-0.31368 -0.09198,-0.43356 -0.08268,-1.694992 z m -25.092009,0.202572 -8.794295,0.09095 -0.01292,0.06511 -1.122412,3.43648 9.140527,-0.1726 -0.642855,-0.61392 v -0.78909 l 0.08733,-0.497129 0.643371,-0.584461 0.672311,-0.116788 z m 25.316801,3.43029 -20.931539,0.45733 -0.146244,4.76509 -0.321944,0.32142 h -2.71818 l -1.081588,-0.0584 -0.438733,-0.20464 -0.02894,-4.70669 -9.752893,0.11989 -0.378271,1.15807 -0.537435,1.36426 -0.930176,2.83187 7.56543,4.15478 0.764811,8.72298 c 0,0 1.36426,-0.26876 1.44694,-0.31006 0.08268,-0.0413 1.343587,-0.16536 1.343587,-0.16536 h 1.095541 l 1.674316,0.12402 2.025716,0.24805 1.922363,0.43408 2.211752,0.74363 1.818493,0.86816 1.612305,0.57878 5.159892,1.66501 3.303157,0.9064 2.542998,0.67231 1.841748,0.43874 2.660302,0.35036 2.13372,0.20464 2.484603,-0.0584 1.666565,-0.0878 2.864425,-0.35037 3.127971,-0.9064 1.9296,-0.76016 1.22783,-0.75965 0.93535,-0.87746 v -0.87695 l -0.99426,-0.17518 -2.27996,-0.40928 -1.812295,-0.58446 -1.695503,-0.46767 -1.870687,-0.70177 -1.227832,-0.81855 -1.286227,-0.93535 -1.286226,-1.11104 -1.286226,-1.87069 -0.526067,-1.63711 -0.468188,-1.6955 -0.116789,-1.7539 v -1.46141 l 0.1757,-1.9296 0.642855,-1.5198 1.052649,-1.57872 -0.161231,-0.21962 -0.423746,-0.007 -1.77767,-0.031 -1.240234,-0.0832 -1.033529,-0.33073 -0.330729,-0.99167 z m 2.30787,3.23442 0.234094,0.0295 0.526066,0.26303 0.175183,0.20464 -0.263033,0.73071 -0.497127,0.29248 -0.526066,-0.14624 -0.321428,-0.49713 0.08785,-0.64285 z m -37.680388,0.84801 0.584461,0.14573 0.263033,0.40928 -0.08733,0.49713 -0.467672,0.35088 -0.67231,-0.0878 -0.350883,-0.20464 -0.116789,-0.64285 0.291972,-0.32195 z m 8.27288,12.07265 0.438217,0.2341 0.263033,0.35088 -0.233578,0.49661 -0.555521,0.29249 -0.409278,-0.14625 -0.175183,-0.49712 0.116789,-0.49661 z m 14.382068,3.15743 0.292489,0.46767 0.08733,0.40928 -0.233577,0.43822 -0.730705,0.14624 -0.409277,-0.14624 -0.08785,-0.52607 0.08785,-0.52607 0.467671,-0.23409 z m 27.946102,1.95854 0.46767,0.20412 0.17518,0.1757 0.0879,0.35088 -0.17518,0.49661 -0.20464,0.26304 -0.35088,0.0589 -0.37983,-0.14625 -0.29248,-0.35088 -0.0295,-0.40928 0.1757,-0.32142 z m -14.119039,1.84123 0.438216,0.0879 0.292489,0.26303 -0.146244,0.67231 -0.555522,0.29249 -0.49661,-0.20464 -0.263033,-0.43873 0.116788,-0.52607 z" /><path
       id="path20"
       style="fill:#aad400;stroke-width:0.264583"
       d="m 239.93833,84.013477 -0.93535,0.292488 -0.75964,0.789099 -0.49713,1.139982 -0.43873,1.344621 -0.32143,1.374076 -0.43821,1.227833 -0.46768,0.701765 -0.58497,0.496611 0.11679,0.731222 5.17436,-0.1757 -0.0879,-0.613916 0.0879,-0.906405 0.32142,-0.847493 0.84801,-0.672311 0.52607,-0.380338 1.02319,-0.0584 0.81856,0.380339 0.49661,0.379822 0.58498,0.497127 0.37982,0.67231 0.11679,1.198377 -0.32143,0.789099 -0.73071,0.672827 -0.70176,0.204639 -1.19838,0.321427 c 0,0 -0.64315,-0.263183 -0.81855,-0.350883 -0.17539,-0.0877 -0.43874,-0.526066 -0.43874,-0.526066 l -5.99239,0.08733 0.0878,1.549776 16.22382,-0.05891 -0.0294,-1.256771 0.14624,-0.906404 0.38034,-0.584461 1.46141,-0.497127 1.02319,0.08785 0.87695,0.497127 0.52607,0.584461 0.26303,0.555521 0.0584,0.760161 -0.0289,0.964282 -0.46767,0.613916 -0.55552,0.584977 -1.05213,0.321428 -0.73122,-0.02946 -0.37982,-0.145728 -0.49713,-0.204638 -0.52607,-0.26355 -0.29249,-0.526066 -16.37006,0.116789 v 1.783353 l 12.59923,0.146245 0.58498,-0.350883 0.52607,-0.292489 0.58446,-0.175183 h 0.70176 l 0.64286,0.379822 0.38034,0.409277 11.28355,0.05891 -0.0584,-0.292488 -0.23409,-0.760161 0.0295,-0.847493 0.35037,-0.584978 0.58498,-0.409277 0.7891,-0.263033 1.22783,0.02946 0.67231,0.204638 0.7307,0.526066 0.52607,0.613916 0.14624,0.905888 -0.17518,1.023194 -0.26303,0.526583 -0.58498,0.555004 -0.7891,0.438733 -0.52606,0.146245 -0.81856,-0.117306 -0.49713,-0.233577 -0.35036,-0.263033 -0.43874,-0.526066 -11.04997,-0.05891 0.20464,0.643372 -0.0289,0.497127 -0.35088,0.672311 21.7196,-0.0584 -0.0879,-0.146244 -0.0289,-0.613916 0.26303,-0.935343 0.49661,-0.701766 0.73122,-0.467672 0.96428,-0.263033 0.61392,0.116789 0.87695,0.350883 0.81855,0.935343 0.32195,0.76016 v 1.023194 l -0.32195,0.730706 -0.64285,0.70125 -0.90641,0.29249 -1.02319,0.11679 -0.70125,-0.23358 -0.58498,-0.32143 -0.37982,-0.58498 -22.65495,-0.05839 -0.43873,0.32143 -0.87695,0.23409 -0.84749,-0.0294 -0.52607,-0.29198 -0.38034,-0.438728 -12.71602,-0.379822 0.0879,1.22783 0.37983,0.0584 0.81855,0.14624 0.87695,0.26303 0.93534,0.23358 1.46193,0.64337 0.99374,0.64286 1.08158,0.78961 1.13999,0.93535 0.84801,0.9064 0.87695,0.96428 0.70124,0.9648 0.55553,0.9648 0.49712,0.90589 0.29198,0.67231 0.5519,0.42323 40.38978,1.28157 0.53744,-0.53743 -0.4961,-15.502929 z m -4.06281,13.47618 -0.0294,1.403015 12.51138,0.438733 -0.20464,-0.613916 -0.23358,-0.643372 0.17519,-0.350366 0.0878,-0.234094 z"
       inkscape:label="head" /></g></svg>
