<?xml version="1.0" encoding="UTF-8" standalone="no"?>
<!-- Created with Inkscape (http://www.inkscape.org/) -->

<svg
   width="297mm"
   height="210mm"
   viewBox="0 0 297 210"
   version="1.1"
   id="svg1"
   xml:space="preserve"
   xmlns:inkscape="http://www.inkscape.org/namespaces/inkscape"
   xmlns:sodipodi="http://sodipodi.sourceforge.net/DTD/sodipodi-0.dtd"
   xmlns="http://www.w3.org/2000/svg"
   xmlns:svg="http://www.w3.org/2000/svg"><sodipodi:namedview
     id="namedview1"
     pagecolor="#ffffff"
     bordercolor="#000000"
     borderopacity="0.25"
     inkscape:showpageshadow="2"
     inkscape:pageopacity="0.0"
     inkscape:pagecheckerboard="0"
     inkscape:deskcolor="#d1d1d1"
     inkscape:document-units="mm"><inkscape:page
       x="0"
       y="0"
       width="297"
       height="210"
       id="page2"
       margin="0"
       bleed="0" /></sodipodi:namedview><defs
     id="defs1" /><g
     inkscape:label="Sloj 1"
     inkscape:groupmode="layer"
     id="layer1"><path
       id="path1"
       style="display:inline;fill:#2c5aa0;stroke-width:0.264999;paint-order:fill markers stroke"
       d="m 54.139331,60.025793 -4.864303,0.159164 -3.886584,0.7953 -3.590995,1.272791 -3.841109,1.863969 -4.136182,2.750219 -2.886646,2.27273 -3.273185,3.54552 -2.522843,3.431832 -1.863452,3.364135 -2.205034,4.63641 -2.500106,6.591329 -1.817976,6.795968 -0.999939,5.22759 -1.09089,6.5226 -0.773079,6.15983 -0.567924,6.4549 0.204122,5.47719 0.56844,4.25038 1.318266,3.45457 1.250053,2.31821 2.272729,3.09128 2.568319,2.24999 3.636471,1.95492 3.841109,1.04542 4.068485,0.6134 4.432288,-0.15865 4.02301,-0.88677 4.909261,-1.84071 3.863847,-2.11409 5.886463,-3.70468 6.432165,-3.09077 4.386812,-1.45469 2.749703,-0.45475 2.727483,0.0227 4.159436,0.90898 7.409366,2.45464 6.454904,1.95491 5.20485,0.63614 4.841044,0.27285 3.11403,-0.65887 2.63653,-0.88677 1.7725,-1.13636 1.56838,-1.50017 1.31826,-2.61328 0.50023,-3.15949 -0.70486,-3.43184 -1.02268,-2.81843 -0.47749,-2.56832 0.27285,-2.36368 0.63665,-1.81849 1.02268,-1.50017 1.50017,-1.18184 1.79524,-1.06815 1.81849,-0.3638 12.90981,-0.22686 0.68161,-0.43202 0.0909,-0.63665 -14.13712,0.40928 -0.65888,-0.59066 -0.59117,-0.20464 -5.1139,-0.31833 -1.20458,0.81804 -1.47743,1.97765 -0.95447,1.65882 -0.81803,2.77296 -0.1819,2.0686 0.25011,2.18178 0.63614,2.18178 0.59118,2.04587 0.22737,1.04542 -0.0909,2.22725 -0.61392,1.72754 -1.56837,1.72703 -2.02262,1.11414 -2.682007,0.90899 -2.090829,0.15916 -4.091223,-0.0455 -3.93206,-0.63665 -4.11396,-1.13637 -5.159375,-1.90893 -3.500045,-1.27279 -3.363619,-1.00045 -3.659725,-0.22738 -3.06803,0.0227 -4.432287,1.02319 -3.500045,1.56787 -5.273063,2.65926 -5.364014,3.02308 -4.067969,2.18177 -3.886584,1.84124 -1.477429,0.45423 -1.659331,0.0227 -0.840775,-0.68161 -0.341065,-1.25006 0.250114,-2.18177 1.250053,-2.86391 1.749764,-2.65927 2.205033,-2.50011 1.999878,-1.8867 2.04587,-1.49965 2.522844,-1.88671 2.272729,-1.43195 2.841171,-1.68207 2.500105,-1.36374 2.431893,-1.22732 1.772502,-0.88625 2.000395,-0.95446 0.954463,-1.02268 0.250114,-5.4777 -0.591178,-0.0227 -0.159164,0.43202 -0.158646,0.0227 -0.02274,1.86346 0.249597,-0.0455 -0.04548,0.86351 -0.386023,0.65939 -0.318327,0.52297 -0.522965,0.49971 -0.636137,0.11369 -0.795817,-0.15916 -0.70435,-0.56793 -0.772563,-0.70486 -0.432015,-1.15911 0.181901,-8.29561 -6.77323,0.29507 -0.272851,8.31887 0.38654,0.34106 0.250114,0.81804 0.04548,0.65888 -0.432015,0.7276 -0.590662,0.47697 -0.659391,0.31833 -0.70435,0.0455 -1.204577,0.0682 -0.77308,-0.20464 -0.727087,-0.4315 -0.454753,-0.52296 0.06821,-3.54552 0.363802,0.0227 0.658875,-17.251139 -0.250114,-0.04548 0.227376,-3.272669 0.38654,-0.341064 1.022676,-0.499711 0.363802,-0.181901 1.113627,-0.04547 0.954464,0.318326 0.77308,0.795301 0.386023,0.840775 0.363802,0.999939 -0.272852,0.727604 -0.340548,0.38654 -0.02274,0.749825 -0.09095,0.977201 6.182052,-0.227376 0.181901,-2.545581 0.204639,-0.818038 0.386022,-0.272851 1.113628,-0.476974 0.977718,-0.113688 0.727087,0.658875 0.749825,0.841292 0.341065,0.545186 -0.02274,1.022677 -0.363802,0.409277 v 0.545703 l 1.431954,0.02274 0.02274,-4.182174 0.591179,-0.818038 0.476973,-0.545703 0.636654,-0.204638 2.159041,-0.02274 h 4.79609 l 2.36368,-0.295589 3.500045,-0.727088 2.568318,-0.863513 3.590996,-1.295528 3.204972,-1.023193 2.568319,-1.045415 14.023427,-5.477185 6.00015,-2.182295 4.27313,-1.295529 2.77244,-0.545186 2.13682,-0.204639 1.68155,0.159164 1.5229,0.40876 1.18184,0.818555 0.34107,1.113627 -0.15917,1.227315 -1.25005,1.613855 -2.06809,2.886129 -2.88664,4.136699 -0.31833,1.75028 -0.0227,1.295528 0.63665,0.772563 0.13643,0.954464 -0.25011,0.86403 -0.63666,0.908988 -0.72708,0.999939 -0.43202,0.704867 10.47791,0.181901 -1.47743,-1.454692 -0.36328,-1.795756 0.34055,-1.727026 1.45469,-2.477368 2.56832,-2.636532 3.77289,-2.954858 1.97766,-2.136304 1.47691,-2.114083 0.36381,-1.749764 -0.31833,-1.932182 -0.68161,-2.340942 -1.84124,-1.818494 -2.52284,-0.999939 -1.9544,-0.295589 -2.54558,-0.158647 -4.38681,0.386023 -4.63641,1.000456 -6.68228,1.658814 -6.8864,1.954919 -3.27319,0.658875 -2.022612,0.204638 -6.727754,0.04548 -3.068547,-0.568441 -4.022494,-1.09089 -5.977929,-2.954341 -8.568469,-4.568714 -3.182235,-1.522904 -3.136243,-1.522388 -2.84117,-0.95498 -3.272669,-0.6134 z m 3.572909,35.406108 -6.395992,0.257349 -0.176734,2.169893 6.540686,-0.321427 z m -0.01602,2.603975 -6.508647,0.272852 -0.06459,2.346622 6.605798,-0.43408 z m -0.04806,2.619474 -6.685897,0.57878 -0.03204,2.1854 6.733956,-0.33745 z" /><path
       id="path4"
       style="display:inline;fill:#2c5aa0;stroke-width:0.264999;paint-order:fill markers stroke"
       d="m 238.21078,93.310583 -0.9002,0.835608 -0.73897,1.028878 -0.93225,0.932243 -1.12499,0.449585 0.0227,0.751892 6.50192,0.533818 v -0.674895 l 0.35399,-1.028361 1.41386,-0.578776 0.28939,0.03204 1.09296,0.578776 0.48214,0.73949 0.032,1.157035 -0.93224,1.0604 -1.28571,0.0646 -0.89969,-0.353467 -0.35347,-0.675411 -6.67969,-0.33538 0.0372,1.239201 12.84572,0.414445 -0.032,-0.257349 0.032,-0.771529 0.61082,-0.674894 1.02888,-0.578776 0.73897,0.225309 0.77153,0.514181 0.48214,0.900203 -0.0966,1.09244 -0.61081,0.739481 -1.125,0.35347 -0.70693,-0.25683 -0.96428,-0.48214 -0.19276,-0.642852 -12.76821,-0.127641 0.0444,1.490863 10.24847,0.53278 -0.0961,-0.28887 h 1.63918 v 0.19275 l 7.00733,-0.0966 v -0.28887 l 0.22479,-0.80409 0.64285,-0.867641 1.06092,-0.192753 1.47846,0.578259 0.48214,0.675405 0.032,0.86765 -0.28938,0.86816 -0.73898,0.64286 -0.61081,0.16071 c 0,0 -1.09306,-0.16071 -1.22163,-0.16071 -0.12857,0 -0.54622,-0.35399 -0.54622,-0.35399 l -0.48215,-0.86764 c 0,0 -6.81457,0.32142 -6.97528,0.32142 -0.16064,0 -0.032,2.12132 -0.032,2.12132 l -1.76785,-0.16071 0.0646,-1.99264 -10.10791,-0.47233 0.20773,6.93291 1.92857,0.80357 2.15336,1.47846 1.25367,1.28571 1.44642,1.5751 1.02888,1.70377 0.80357,1.70326 0.32142,1.02888 40.49986,4.37131 0.3855,-0.32143 0.35399,-0.35347 -0.54674,-14.81822 -43.97148,-13.146476 -1.15703,-0.353467 z m 23.40012,7.907527 0.86765,0.19275 0.96428,0.57826 0.25735,1.02888 -0.22531,0.83561 -0.4501,0.70693 -1.28571,0.19327 -1.15703,-0.25735 -0.57826,-0.67489 -0.32143,-0.80357 0.35347,-0.86816 0.67489,-0.77102 z m 6.1712,1.60714 0.77153,0.0641 0.6749,0.41806 0.3855,0.86765 0.35399,1.09295 -0.67541,0.83561 -0.93173,0.41806 -0.99684,-0.0646 -0.70693,-0.25683 -0.38551,-0.70745 -0.25735,-0.70694 0.35347,-1.02888 0.12867,-0.57825 z m 6.33243,1.83193 0.89969,0.22479 0.9002,0.64286 0.32143,0.67541 -0.032,0.99632 -0.35398,0.77153 -0.99632,0.41754 -0.93225,-0.12867 -0.57825,-0.22479 -0.86817,-0.77153 -0.19275,-0.51418 0.32143,-1.22163 0.48214,-0.64286 z m -21.98573,0.25735 0.032,2.63549 -1.86449,-0.0966 0.032,-2.50682 z" /></g></svg>
