<?xml version="1.0" encoding="UTF-8" standalone="no"?>
<!-- Created with Inkscape (http://www.inkscape.org/) -->

<svg
   width="297mm"
   height="210mm"
   viewBox="0 0 297 210"
   version="1.1"
   id="svg1"
   xml:space="preserve"
   xmlns:inkscape="http://www.inkscape.org/namespaces/inkscape"
   xmlns:sodipodi="http://sodipodi.sourceforge.net/DTD/sodipodi-0.dtd"
   xmlns="http://www.w3.org/2000/svg"
   xmlns:svg="http://www.w3.org/2000/svg"><sodipodi:namedview
     id="namedview1"
     pagecolor="#ffffff"
     bordercolor="#000000"
     borderopacity="0.25"
     inkscape:showpageshadow="2"
     inkscape:pageopacity="0.0"
     inkscape:pagecheckerboard="0"
     inkscape:deskcolor="#d1d1d1"
     inkscape:document-units="mm"><inkscape:page
       x="0"
       y="0"
       width="297"
       height="210"
       id="page2"
       margin="0"
       bleed="0" /></sodipodi:namedview><defs
     id="defs1" /><g
     inkscape:label="Sloj 1"
     inkscape:groupmode="layer"
     id="layer1"><path
       id="path1"
       style="display:inline;fill:#44aa00;stroke-width:0.264583"
       d="m 46.79766,57.215629 -3.26595,0.330729 -2.769857,0.496094 -3.472656,0.868164 -2.769857,1.240234 -3.059245,1.529623 -2.273763,1.322916 -2.273763,1.653646 -2.604492,1.901693 -4.009574,3.762044 -1.77767,2.314588 -1.322916,1.81901 -1.157552,1.570964 -0.909506,2.067057 -1.074869,2.604492 -1.322917,2.769857 -1.07487,3.555338 -0.785482,2.604493 -0.826823,3.26595 -0.5374345,2.935222 -0.289388,2.480468 -0.2067057,3.472659 0.1240234,2.39778 -0.082682,4.09278 0.3307292,2.39778 0.3307292,2.43913 0.5787754,3.38998 0.909506,3.14141 1.240234,3.76204 1.364258,2.48047 1.240234,2.39779 1.116211,1.90169 0.992188,1.19889 1.777669,2.1084 2.108398,2.85254 1.116211,0.95085 1.07487,0.70279 0.991671,0.82683 0.950846,0.66146 0.826823,0.57877 1.529622,0.99219 0.950847,0.62012 0.868164,0.37207 2.067057,2.3151 1.984375,0.95085 1.488281,0.62011 1.653646,0.4961 1.07487,0.41341 1.943034,0.49609 1.405599,0.45476 2.273763,0.28938 2.232422,0.41342 1.901692,0.0827 1.694987,-0.0827 2.067058,0.0827 2.811198,-0.24805 3.059244,-0.66146 2.273763,-0.45475 4.216797,-1.44694 2.89388,-1.11621 2.191081,-1.15755 1.901693,-1.15756 2.893363,-1.98437 2.025716,-1.32292 1.694987,-1.32291 2.315105,-1.77767 2.149739,-1.57097 2.232422,-1.65364 1.364258,-0.74414 1.281575,-0.62012 1.736329,-0.90951 1.612304,-0.62011 2.563151,-0.45475 1.943034,0.0413 2.108399,0.37207 2.604492,0.74414 6.118489,2.3151 2.27376,0.78548 1.57097,0.57878 1.52962,0.37207 1.44694,0.45475 1.28157,0.12403 1.48829,0.0827 1.69498,0.12402 2.39727,0.0827 1.9017,-0.28938 1.28157,-0.45476 1.52962,-0.49609 1.1989,-0.49609 0.74414,-0.78549 -0.41341,-2.97656 -2.23243,-0.99219 -1.32291,-0.53743 -0.95085,-0.45475 -0.99219,-0.66146 -1.24023,-0.86817 -1.19838,-1.28157 -0.82682,-1.24024 -0.45475,-1.32291 -0.20671,-1.1989 0.24805,-1.24023 0.33073,-1.85984 0.66146,-1.32291 0.7028,-1.15755 0.8263,-1.1989 0.82682,-0.86816 1.03353,-0.95085 1.1989,-0.82682 1.07487,-0.95085 1.28157,-0.95084 0.99219,-0.82683 0.53743,-0.57877 -2.27376,-0.0413 -0.0413,-0.82683 -0.33073,-0.33073 -0.62012,-0.2067 -4.91908,0.16536 -0.53743,0.4961 -0.86817,0.66146 -0.70279,0.78548 -0.78549,0.78548 -0.45475,0.95085 -0.53743,1.07487 -0.99219,2.14973 -0.45475,0.41342 -0.99219,0.57877 -29.930991,11.16159 2.191081,2.85254 0.578776,1.11621 v 0.4961 l -0.165365,0.37207 -0.868164,0.57877 -0.702799,0.41342 -0.537435,0.16536 -0.413412,-0.37207 -3.183268,-4.13411 -2.52181,0.99218 -2.76934,1.03353 -2.14974,0.33073 h -1.653645 l -1.116211,-0.37207 -1.198894,-0.74414 -0.620117,-0.86816 -0.206705,-1.15756 0.289388,-2.02571 0.454752,-2.8112 0.413412,-2.81068 0.289388,-4.46484 0.165364,-2.8112 -0.37207,-0.41341 -0.248047,-0.90951 0.496094,-11.120767 -2.191081,0.04134 -0.04134,0.413417 -0.413412,0.0413 0.04134,1.86035 h 0.37207 l 0.08268,1.07487 -0.702799,0.2067 0.08268,1.65365 0.578776,0.0413 0.124023,0.62012 -0.124023,0.74414 -0.620117,0.12402 0.165364,2.19108 0.289388,0.41341 -0.04134,0.4961 -0.248047,0.49609 -0.454752,0.45475 -0.537435,0.45476 -0.7028,0.16536 -0.454752,-0.0413 -0.785482,-0.28939 -0.413411,-0.45475 -0.248047,-0.33073 0.08268,-0.37207 -0.578776,-0.49609 -0.206706,-0.33073 -0.124023,-0.53744 -0.248047,-8.557616 -8.598958,0.868166 -0.206706,8.18555 -0.496094,0.16536 0.289388,0.62012 0.289388,0.49609 0.124024,0.90951 -0.165365,0.66145 -0.785482,0.74415 -0.702799,0.2067 -0.496094,-0.0413 -1.405599,-0.12402 -0.868164,-0.37207 -0.785482,-0.4961 -0.248047,-0.41341 1.441256,-24.82019 0.708484,-0.852662 0.826823,-0.37207 h 0.909505 l 0.992188,0.04134 0.868164,0.413412 0.537435,0.661458 0.124023,1.07487 -0.37207,4.010091 7.9375,-0.702799 -0.04134,-2.439128 0.330729,-0.7028 0.661458,-0.620117 0.454753,-0.289388 0.74414,-0.165364 0.785482,0.413411 1.07487,0.909505 0.165364,0.950847 -0.04134,1.81901 3.59668,-0.08268 0.165365,-4.092774 13.104626,-0.04134 -0.04134,4.506185 16.412435,0.289388 V 86.69141 l 12.898437,-0.289388 0.16537,4.506185 24.22539,0.496094 0.12403,-1.116211 -0.0414,-1.488281 -0.0413,-1.240235 -0.24804,-0.950846 0.0413,-2.976563 -0.28939,-2.604492 -0.49609,-1.81901 -0.53744,-1.322917 -0.49609,-1.116211 -0.53744,-1.240234 -0.99218,-1.281576 -1.24024,-1.488281 -1.44694,-1.322917 -1.77767,-1.446423 -1.73633,-1.033529 -2.23242,-0.785481 -1.94252,-0.413412 -2.06705,-0.206705 -2.72852,-0.165365 -2.85254,0.248047 -2.64583,0.454752 -2.14974,0.620118 -1.81901,0.620117 -1.86035,0.826823 -5.002284,2.231905 -2.232422,0.785482 -2.14974,0.578776 -1.777669,0.330729 h -1.570964 l -2.273763,-0.248047 -1.364257,-0.330729 -1.281576,-0.661459 -1.943034,-1.074869 -1.488281,-1.07487 -4.216797,-3.14141 -2.935221,-2.067058 -2.231905,-1.281575 -1.819011,-1.116211 -2.232422,-1.033529 -2.273763,-1.116211 -3.472656,-1.364258 -1.81901,-0.702799 -3.100586,-0.785482 -2.52181,-0.330729 -2.563151,-0.289388 -5.04362,-0.248047 z m 71.24216,17.268197 1.34462,0.175183 1.11105,0.468188 0.93534,0.467672 0.58498,1.110527 0.46767,1.052648 0.17518,1.812293 -0.58446,1.403015 -0.70176,1.111043 -1.8123,1.110527 -1.28622,0.234094 h -1.22783 l -0.87695,-0.292488 -1.40302,-0.818555 -0.87695,-0.701249 -0.52658,-1.227832 -0.17518,-1.344621 v -0.994255 l 0.76016,-1.286226 0.64285,-0.993738 1.81229,-1.111043 z m -50.659437,16.720943 -2.689241,0.05839 -0.497128,2.251026 3.186369,-0.08785 z m 13.109794,0.116789 v 2.232421 l 16.495118,0.08268 0.165364,-2.108399 z m -21.000785,0.08268 -7.524088,0.909505 -0.04134,1.901693 7.606771,-0.661459 z m 7.832597,2.519226 -2.514058,0.05839 -0.906405,2.13372 3.215824,0.234094 z m 13.168188,0.08527 v 2.397787 l 16.536459,-0.04134 V 94.13276 Z m -20.794079,0.165365 -7.978841,0.702799 0.08268,2.067057 7.9375,-0.620117 z m 20.835421,2.604492 -0.165365,2.52181 16.412435,-0.04134 0.248047,-2.480469 z m -13.384713,0.0093 -2.39727,0.117305 -0.555522,2.075326 2.777092,0.204638 v -0.263033 z m -7.450708,0.114721 -8.185547,0.868164 0.04134,2.191081 8.226888,-0.537435 z m 20.628715,2.811198 -0.08268,7.77214 16.536458,0.0827 0.04134,-7.85482 z m -31.331421,18.32601 1.052132,0.29249 0.994255,0.52607 0.818038,1.40301 0.292488,1.40354 -0.467672,1.22783 -0.642854,1.11052 -1.461927,0.87695 -1.34462,0.46767 -1.286227,-0.17518 -1.227832,-0.93534 -0.935343,-1.22783 -0.233578,-1.52032 0.408761,-1.22784 0.643371,-0.99373 0.935344,-0.87695 1.344621,-0.29249 z m -16.896126,0.0584 h 0.526066 l 1.519804,0.29249 1.111043,0.76016 0.701766,1.11052 0.291972,1.05265 -0.876949,2.51406 c 0,0 -1.344341,1.05203 -1.578199,1.11053 -0.233857,0.0585 -1.461926,0.64337 -1.461926,0.64337 l -1.344621,-0.35088 -1.227832,-0.76016 -0.701249,-1.40302 -0.234094,-1.46141 0.292488,-1.34514 1.052133,-1.05213 0.935343,-0.76016 z m 7.834147,11.22515 1.052132,0.46819 0.935343,1.28623 0.526583,1.5198 v 1.63711 l -1.111043,1.57872 -1.344621,0.87694 -1.227832,0.17519 h -1.169438 l -1.34462,-0.81856 -0.642855,-1.11052 -0.409277,-1.9296 0.467671,-1.7539 1.227832,-1.11104 1.695504,-0.64286 z m 16.077571,1.57872 1.870687,0.64337 0.877466,0.52607 0.993738,1.11052 0.116789,1.11104 -0.175184,1.34463 -0.994254,1.6955 -1.519804,0.87695 H 55.95059 l -1.344621,-0.11679 -1.578715,-1.28623 -0.467671,-1.52032 0.175699,-1.7539 0.70125,-1.16892 1.286226,-0.99425 z" /><path
       id="path15"
       style="display:inline;fill:#0044aa;stroke-width:0.264583"
       d="m 117.10448,107.38466 -6.85488,0.0439 -0.0294,4.22404 -0.18966,0.27802 -13.045195,0.2682 -0.08268,-4.63021 -16.630509,0.006 -0.1757,4.61884 H 67.234139 l -0.496611,7.39541 -1.169437,7.57112 0.204638,1.11104 0.613917,0.9064 1.198376,0.73071 1.111043,0.37982 1.666048,0.0295 2.104782,-0.35089 5.232755,-2.27996 3.215308,-1.34514 29.816782,-11.04945 1.09658,-0.59945 0.45268,-0.40928 1.97352,-4.15065 1.47588,-1.54977 z m -4.18011,1.00872 0.5116,0.11679 0.2775,0.39481 0.0295,0.5116 -0.4532,0.35088 -0.65785,0.0873 -0.35088,-0.23357 -0.20464,-0.54106 0.26355,-0.42374 z m -36.092884,14.59498 0.516764,0.10335 0.392741,0.45475 -0.08268,0.57878 -0.537435,0.37207 -0.454753,0.10335 -0.661458,-0.37207 -0.103353,-0.51676 0.248047,-0.43408 z" /><path
       id="path17"
       style="fill:#ff7f2a;stroke-width:0.264583"
       d="m 254.87643,89.889087 -0.38034,0.234094 -0.81855,0.76016 -1.31517,0.70125 -1.54926,0.730704 -1.43247,0.321945 -1.98799,0.467671 10.24279,1.027845 -0.062,-0.537435 0.28938,-0.640788 0.33073,-0.516764 0.47543,-0.268718 0.74414,-0.04134 0.62011,0.04134 0.45424,0.248047 0.18603,0.227376 h 0.20671 l 0.45475,-0.02067 0.43408,0.206705 0.26872,0.206706 0.0413,0.516764 -0.12402,0.475424 -0.18604,0.310058 0.0414,0.3514 -0.1447,0.37207 5.00228,0.08268 0.16537,-0.992188 0.2067,-0.413411 0.31006,-0.454753 0.93018,-0.248047 0.70279,0.02067 0.45476,0.144694 0.33073,0.268717 0.51676,-0.02067 0.49609,0.124023 0.31006,0.268718 0.0207,0.620117 -0.14469,0.37207 -0.22738,0.37207 0.0413,0.640788 4.94027,-0.227376 0.10335,-1.343587 c 0,0 0.28941,-0.372072 0.39275,-0.558106 0.10335,-0.186034 0.53743,-0.310059 0.53743,-0.310059 l 0.57878,-0.124023 0.57877,0.206706 0.53744,0.3514 0.45475,-0.04134 h 0.31006 l 0.47542,0.3514 0.28939,0.640788 -0.14469,0.413411 -0.37207,0.268718 -0.0414,0.578776 -0.0827,0.516764 -0.22737,0.268718 -0.39275,0.413411 -0.41341,0.289388 -0.5581,0.08268 -0.64079,-0.144694 -0.59945,-0.227376 -0.31006,-0.310059 -0.31005,-0.413411 -0.0827,-0.454753 -5.20898,0.186036 -0.16537,0.227376 -0.39274,0.434082 -0.66145,0.289388 -0.53744,0.02067 -0.59945,-0.144694 -0.47542,-0.289388 -0.37207,-0.37207 -13.74593,0.434082 2.85306,2.367814 0.48214,0.555005 -0.17519,0.468194 -0.3948,0.23358 -0.5116,0.35088 -0.45269,0.2775 12.97854,2.94039 h 0.72347 l 0.62012,0.062 0.45475,0.16537 0.2067,0.31006 0.43409,-0.0414 0.3514,0.0207 0.31006,0.18604 5.39501,1.4056 0.43409,-0.43408 0.86816,-0.33073 0.57878,0.18603 0.47542,0.22738 0.37207,0.26872 0.16536,0.18603 0.59945,-0.062 0.31006,0.24805 0.0827,0.49609 v 0.55811 l -0.31006,0.14469 -0.0827,0.95085 -0.22737,0.64078 -0.68213,0.43409 -1.01286,0.0207 -0.68213,-0.0827 -0.39274,-0.31005 -0.4961,-0.62012 -0.41341,-0.55811 -0.0207,-0.7028 0.0827,-0.64078 0.26871,-0.57878 -4.98161,-1.13688 v 0.22737 l -0.10335,0.62012 -0.2067,0.28939 0.0207,0.64079 -0.59945,0.86816 -0.51676,0.62012 -0.82683,0.10335 -0.62011,-0.0827 -0.53744,-0.22738 -0.47542,-0.43408 -0.28939,-0.68213 -0.16537,-0.66146 -0.0207,-0.86816 0.24805,-0.64079 0.60358,-0.62683 -7.44709,-1.62264 -0.35088,0.89917 0.31161,-0.014 0.22686,0.18604 0.33073,0.28939 h 0.62011 l 0.43408,0.24804 0.24805,0.4961 -0.0207,0.72347 -0.33073,0.43408 -0.10335,0.59945 -0.39274,0.64078 -0.64079,0.55811 -0.99219,0.12402 -0.66146,-0.18603 -0.53743,-0.45475 -0.23875,-0.45114 -0.24804,-0.6289 -0.10232,-0.62839 0.13126,-0.7891 0.35088,-0.58446 0.35088,-0.30695 0.55552,-0.27802 0.70125,0.0294 0.35089,-0.89193 -5.94899,-1.22732 -0.46768,0.23358 -0.99373,0.46767 -1.63711,0.70177 h -1.69551 -2.10478 -2.10478 v 1.57819 l 1.22783,0.40928 2.39727,0.52658 1.81229,1.05214 1.69551,1.57871 1.34462,1.98748 1.34462,0.29249 2.86494,0.29248 3.4494,0.11679 3.80029,0.40928 2.63085,0.23358 4.20956,0.52658 3.15691,0.40928 3.62459,0.52606 4.03437,0.76017 2.51406,0.35036 1.98748,-1.05213 -0.17518,-2.10478 v -1.87069 l 0.11678,-1.34462 0.40928,-1.28623 -0.23358,-0.81855 -0.58497,-0.99426 0.11679,-0.52606 0.1173,-0.58446 v -1.11105 l -0.29249,-0.99373 -0.23357,-0.99374 0.23357,-0.467676 0.29249,-0.935861 -0.1173,-0.935343 -0.52607,-0.876949 -0.11679,-0.876949 -0.29249,-1.227832 -0.17518,-3.098519 h -3.39101 -3.4494 l -4.38475,-0.05839 -4.96972,-0.234095 -5.0276,-0.40876 -3.80028,-0.350883 z m -9.27127,3.664892 0.062,0.599447 2.6665,0.620117 9.48779,0.248047 -0.0827,-0.330729 z m 5.33301,1.922364 2.00505,0.971517 5.78776,-0.413412 -0.4961,-0.475423 z m 10.68617,0.04134 -0.59945,0.620117 5.93246,-0.227376 -0.20671,-0.392741 z" /></g></svg>
