<?xml version="1.0" encoding="UTF-8" standalone="no"?>
<!-- Created with Inkscape (http://www.inkscape.org/) -->

<svg
   width="297mm"
   height="210mm"
   viewBox="0 0 297 210"
   version="1.1"
   id="svg1"
   xml:space="preserve"
   xmlns:inkscape="http://www.inkscape.org/namespaces/inkscape"
   xmlns:sodipodi="http://sodipodi.sourceforge.net/DTD/sodipodi-0.dtd"
   xmlns="http://www.w3.org/2000/svg"
   xmlns:svg="http://www.w3.org/2000/svg"><sodipodi:namedview
     id="namedview1"
     pagecolor="#ffffff"
     bordercolor="#000000"
     borderopacity="0.25"
     inkscape:showpageshadow="2"
     inkscape:pageopacity="0.0"
     inkscape:pagecheckerboard="0"
     inkscape:deskcolor="#d1d1d1"
     inkscape:document-units="mm"><inkscape:page
       x="0"
       y="0"
       width="297"
       height="210"
       id="page2"
       margin="0"
       bleed="0" /></sodipodi:namedview><defs
     id="defs1" /><g
     inkscape:label="Sloj 1"
     inkscape:groupmode="layer"
     id="layer1"><path
       id="path1"
       style="display:inline;fill:#ff6600;stroke-width:0.264583"
       d="m 43.490369,65.029106 -3.389974,0.165364 -3.803386,0.7028 -3.927409,1.240234 -3.183268,1.07487 -2.687174,1.281575 -2.479952,1.488282 -2.232422,1.529622 -2.52181,2.14974 -2.273763,2.149222 -2.067057,2.687175 -1.736328,2.563151 -1.612305,3.141927 -1.322917,3.017904 -1.0748696,3.555338 -0.8681641,3.265951 -0.9095052,4.630208 -0.3720703,3.844731 -0.1653646,3.7207 0.1653646,6.49056 0.6614583,4.09277 0.7854818,3.38998 1.0748698,3.55482 1.6536463,3.26595 1.984375,3.05924 1.860351,2.39779 3.472656,3.18327 1.612305,1.15755 1.240234,0.90951 1.612305,1.11621 1.901693,1.07487 2.231905,0.86816 1.860351,0.7028 1.984375,0.57878 1.984375,0.49609 2.480469,0.24805 2.191081,0.0827 3.348633,-0.16537 2.232422,-0.12402 1.81901,-0.33073 2.935221,-0.86816 3.017904,-1.15755 2.89388,-1.07487 2.563151,-1.24024 2.52181,-1.57096 2.769857,-1.81901 2.439128,-1.32292 2.769856,-1.32292 2.397787,-0.82682 2.52181,-0.12402 1.570446,0.0827 1.488282,0.41341 2.025716,0.82682 2.604492,1.11621 1.901693,0.66146 1.943034,0.7028 1.860351,0.66146 1.819011,0.33073 2.315104,0.49609 1.736328,0.0413 1.984375,0.0413 2.273763,-0.16537 2.273763,-0.37207 2.108398,-0.7028 1.777669,-0.9095 0.90951,-0.90951 0.66145,-1.24023 0.12403,-1.32292 -0.4961,-1.36426 -1.03352,-1.57096 -1.28158,-1.03353 -1.736328,-0.7028 -2.108399,-0.66146 -3.224609,-0.49609 -2.563151,-0.7028 -2.14974,-0.95085 -1.033529,-0.9095 -0.868164,-1.15755 -0.37207,-1.52963 -0.124023,-1.36425 0.248047,-1.65313 0.537434,-1.61231 0.826823,-1.07487 1.488282,-1.15755 1.405599,-0.49609 1.116211,-0.28939 12.981117,-0.20671 0.4961,-0.28939 0.33073,-0.74414 -13.849289,-0.0413 -0.454752,-0.53743 -1.364258,-0.20671 h -6.283854 l -0.744141,1.07487 -1.157552,1.19889 -1.653646,1.48829 -1.44694,1.11621 -1.44694,1.03353 -3.720703,2.14974 -2.315104,0.99218 -2.562635,0.82683 -2.356445,0.6196 -2.89388,0.49609 -3.224609,0.20671 -4.134115,-0.16537 -2.811198,-0.2067 -2.108398,-0.33073 -2.769857,-0.70229 -1.198893,-0.66145 -1.322917,-0.66146 -1.81901,-1.07487 -1.198894,-0.95085 -1.074869,-1.15755 -1.033529,-1.15755 -0.909505,-1.77767 -0.661459,-1.32292 -0.330729,-1.07487 -0.124023,-2.14974 -8.185547,-0.0413 -0.124024,2.14974 -0.289388,0.53743 -0.826823,0.62012 -1.653645,0.62012 -2.191081,0.82682 -2.39727,0.7028 -1.694987,0.28939 -1.901692,-0.0827 -1.529623,-0.37207 -1.281575,-0.4961 -1.198894,-0.57877 -0.702799,-0.7028 -0.496094,-0.28939 -0.537435,-0.12402 -0.496093,-0.20671 -0.413412,-0.20671 H 12.27832 l -0.165364,0.41342 -0.537435,0.28938 -0.826823,-0.45475 -0.578776,-0.57877 -0.08268,-0.90951 -0.2067061,-2.64583 v -2.1084 l -0.1653646,-2.60449 0.1653646,-1.4056 0.2893881,-2.728518 0.37207,-2.397787 0.454753,-1.81901 0.454752,-1.77767 0.413412,-1.033528 0.578776,-1.116211 1.033529,-0.04134 0.496093,0.454752 0.372071,0.620117 0.496093,0.33073 0.620118,0.08268 0.537434,0.04134 h 0.454753 l 0.992188,-0.578776 0.578776,-0.496094 1.488281,-0.537435 1.405599,-0.289388 h 1.240234 1.611788 l 1.570964,0.289388 2.439127,0.785482 0.950847,0.454753 1.157552,0.496094 1.198893,0.702799 0.661458,0.578776 -0.165364,1.116211 8.516276,0.330729 0.868164,-2.315104 0.578776,-0.785482 0.868164,-1.198893 0.661458,-0.785482 1.44694,-1.322916 1.033529,-0.620118 1.240234,-0.74414 1.116211,-0.744141 1.901693,-0.744141 2.025716,-0.785481 1.198893,-0.413412 1.157552,-0.124023 1.819011,-0.248047 2.852539,-0.413412 2.439128,0.04134 2.273763,0.04134 2.397786,0.330729 2.604492,0.537435 3.389457,1.033528 1.901693,0.7028 1.694987,0.826823 1.322917,0.744141 1.612304,1.074869 1.77767,1.44694 1.198893,1.157552 1.322917,1.364258 1.281575,1.529623 0.413412,0.74414 19.566759,0.557589 v -1.403532 l 0.0584,-1.286226 0.58446,-1.46141 1.05265,-1.111043 1.34462,-1.168921 1.22783,-1.052649 1.34462,-0.876949 2.16318,-0.818555 2.10478,-0.467671 3.50779,-0.467672 1.87069,-0.175183 1.98799,-0.292489 4.03386,-0.467671 1.11105,-0.175184 1.28622,-0.409277 0.99374,-0.701766 0.69867,-0.975134 -0.4961,-0.124024 -0.0207,-0.496093 0.28939,-1.012858 0.33073,-0.744141 0.3514,-0.434082 -0.37207,-1.591634 -0.74414,-1.405599 -0.95085,-0.95033 -1.32291,-1.033528 -1.36426,-0.744141 -2.27376,-1.033529 -1.9017,-0.578776 -2.39727,-0.620117 -2.23242,-0.37207 -2.60449,-0.165365 h -2.43913 l -2.39779,0.04134 -2.68717,0.289388 -2.23242,0.578776 -2.31511,0.454753 -2.935215,0.744141 -2.811198,0.578776 -2.191081,0.537435 -2.315104,0.826823 -4.010091,1.074353 -2.108399,0.37207 -2.811198,0.413411 -2.439127,-0.04134 -2.191081,-0.124023 -2.025716,-0.372071 -2.52181,-0.784965 -2.06654,-0.992187 -2.728516,-1.405599 -2.439128,-1.405599 -2.52181,-1.281576 -4.051432,-1.81901 -2.356445,-0.950846 -2.728516,-0.950847 -2.480469,-0.74414 -2.480468,-0.661459 -3.265951,-0.37207 z m -11.831836,30.238981 -0.233578,3.624585 8.18503,0.263033 0.291972,-3.741374 z m -0.379822,4.501534 -0.234094,3.888139 8.038786,0.0584 0.497127,-3.887618 z m -0.467672,4.385259 -0.292488,4.2969 8.155574,-0.0295 0.438733,-4.1801 z m -14.274581,13.08758 h 0.909506 l 1.157552,0.66094 0.620117,0.53743 0.578776,0.7028 0.950846,1.11621 1.612305,1.61231 1.653129,1.69498 1.44694,0.95085 2.067057,1.15755 2.604493,1.1989 2.728515,1.03352 1.984375,0.33073 2.397787,0.37207 2.19108,0.16537 2.397787,-0.12402 1.736328,-0.0413 2.480469,-0.41341 1.777669,-0.53743 2.108398,-0.66146 1.157552,-0.57878 1.488282,-0.33073 0.950846,0.45476 0.992188,0.66146 0.74414,0.78548 0.330729,1.03353 -0.248046,1.52962 -0.248047,1.36426 -0.7028,0.53743 -1.116211,0.90951 -2.232422,1.44694 -2.935221,1.65364 -2.14974,0.99219 -1.860351,0.62012 -2.728516,0.57877 -1.984375,0.41341 -2.439127,0.28939 -2.108399,0.0413 -2.439127,-0.33073 -3.265951,-0.9095 -1.281575,-0.45475 -1.529623,-0.62012 -1.322917,-0.74414 -1.240234,-0.57878 -1.115694,-0.66146 -1.281576,-0.82682 -1.240234,-1.19889 -1.116211,-0.90951 -0.950846,-1.11621 -0.826823,-1.03353 -0.868164,-0.99218 -0.744141,-1.24024 -0.744141,-1.48828 -0.620117,-1.11621 -0.537435,-1.73633 -0.454752,-1.52962 -0.124024,-1.03353 0.248047,-0.78548 0.454753,-1.03353 0.620117,-0.95085 0.992188,-0.57877 0.454752,-0.12403 z" /><path
       style="fill:#44aa00;stroke-width:0.264583"
       d="m 234.07099,100.49922 v -0.909494 l 0.86816,-0.537429 0.86815,-0.826815 0.74414,-1.240221 0.49608,-1.157539 0.53743,-1.116198 0.57877,-0.744133 0.86816,-0.57877 1.07485,-0.372065 1.15755,0.372065 49.60882,11.947459 -1.15753,16.867 -0.57877,0.0827 -42.82896,-2.31507 -0.74413,-2.14972 -0.57877,-1.1162 -0.9095,-1.19888 -1.24022,-1.19888 -1.1162,-0.90949 -1.03352,-0.99218 -1.69496,-0.99218 -0.9095,-0.49608 -0.78547,-0.28939 -1.28156,-0.16536 -1.94302,-0.24805 v -1.36424 l 12.40221,0.70279 0.49609,0.49609 0.74413,0.24804 0.53743,0.0827 0.9095,-0.16537 0.82681,-0.37206 0.16536,-0.33073 24.59772,0.28939 0.32554,0.55099 0.43849,0.38002 0.52618,0.32155 1.08159,0.11693 1.25698,-0.14616 0.87699,-0.78927 0.4677,-0.87697 0.0877,-0.93543 -0.17539,-0.78927 -0.70159,-0.84774 -0.96465,-0.58464 -0.61388,-0.14617 -0.84776,0.0292 -0.67233,0.49694 -0.67233,0.46772 -0.40926,0.64311 -0.2631,0.58465 v 0.67234 0.38002 l -24.02893,-0.1754 0.26309,-0.52617 v -0.43849 -0.73081 l -0.20462,-0.32155 12.7745,0.0877 0.2631,0.46772 0.6431,0.52618 0.6431,0.1754 h 0.73081 l 0.73083,-0.1754 0.70157,-0.29232 0.55541,-0.58465 0.35079,-0.70157 0.0877,-0.81851 -0.14615,-1.22775 -0.78928,-0.61388 -0.76002,-0.55541 -0.55541,-0.11693 -0.67236,-0.0292 -0.70157,0.0585 -0.35079,0.38002 -0.43848,0.43848 -0.49695,0.35079 -0.38002,0.70158 0.0292,0.58464 -0.0292,0.64311 0.0292,0.20463 -12.45295,0.0585 -0.17539,-0.29232 -0.84774,-0.46772 -0.58465,-0.14616 -1.16929,0.0585 -0.9062,0.76004 -12.54065,-0.78928 v 0.55542 l 12.16063,0.64311 -0.35079,0.46771 v 0.46772 l 0.1754,0.55542 0.29232,0.55541 -12.33602,-0.64311 0.0666,-2.06328 v -0.52709 l 0.031,-2.25307 17.41256,0.72169 0.1754,0.40925 0.87697,0.64311 0.67234,0.0877 1.08159,-0.0292 1.16929,-0.38002 0.43849,-0.40925 0.43848,-0.67234 0.0292,-1.25699 -0.26308,-0.8185 -0.49695,-0.76004 -0.76004,-0.58465 -0.61388,-0.20462 -1.02313,-0.0585 -0.38002,0.35079 -0.43848,0.29232 -0.55542,0.43848 -0.40925,0.58465 -0.23386,0.67234 0.0292,1.1693 -17.15935,-0.78928 -0.0292,-1.8124 5.90492,0.40925 0.20463,0.40926 0.73081,0.58464 0.7308,0.11693 0.84774,0.0292 0.73081,-0.0292 0.76004,-0.52618 0.40925,-0.55541 0.38002,-0.52618 0.20462,-0.87697 -0.20462,-0.964669 -0.49695,-0.643109 -0.76004,-0.584648 -0.64311,-0.409252 -0.58465,-0.175392 -0.9939,0.204626 -0.6431,0.584645 -0.32156,0.409252 -0.43848,0.526182 -0.23386,0.350787 -0.0292,1.052358 -0.0585,0.43849 z"
       id="path4" /></g></svg>
