<?xml version="1.0" encoding="UTF-8" standalone="no"?>
<!-- Created with Inkscape (http://www.inkscape.org/) -->

<svg
   width="297mm"
   height="210mm"
   viewBox="0 0 297 210"
   version="1.1"
   id="svg1"
   xml:space="preserve"
   xmlns:inkscape="http://www.inkscape.org/namespaces/inkscape"
   xmlns:sodipodi="http://sodipodi.sourceforge.net/DTD/sodipodi-0.dtd"
   xmlns="http://www.w3.org/2000/svg"
   xmlns:svg="http://www.w3.org/2000/svg"><sodipodi:namedview
     id="namedview1"
     pagecolor="#ffffff"
     bordercolor="#000000"
     borderopacity="0.25"
     inkscape:showpageshadow="2"
     inkscape:pageopacity="0.0"
     inkscape:pagecheckerboard="0"
     inkscape:deskcolor="#d1d1d1"
     inkscape:document-units="mm"><inkscape:page
       x="0"
       y="0"
       width="297"
       height="210"
       id="page2"
       margin="0"
       bleed="0" /></sodipodi:namedview><defs
     id="defs1" /><g
     inkscape:label="Sloj 1"
     inkscape:groupmode="layer"
     id="layer1"><path
       id="path1"
       style="display:inline;fill:#2ca02c;stroke-width:0.264583"
       inkscape:label="Body"
       d="m 35.222139,64.1196 -3.927408,0.57826 -4.258138,1.240234 -3.100586,1.322917 -2.852539,1.81901 -3.224093,2.728516 -2.315104,2.645833 -1.819011,2.852539 -1.405599,3.265951 -1.157552,4.299479 -0.826823,5.374349 -0.4960933,4.878255 -0.289388,4.175456 -0.041341,6.779951 0.082682,4.79557 0.2067058,4.09226 0.5374345,4.13411 0.454753,2.76986 0.950846,2.97656 1.364258,3.18327 2.811198,3.92741 1.819011,2.1084 1.901176,1.52962 1.570963,1.07487 2.315104,1.19889 2.356446,0.86817 2.273763,0.57877 3.803385,0.49609 3.679362,0.16537 4.588867,-0.33073 4.836914,-0.74414 6.573242,-2.19108 3.762045,-1.48828 3.96875,-1.90169 3.679362,-1.65365 3.430798,-1.36426 3.555339,-0.95084 2.315104,-0.0413 2.315104,0.16537 2.232422,0.45475 1.860351,0.82682 2.52181,0.90951 2.397787,1.03353 1.984375,0.7028 2.067057,0.53743 2.439128,0.41341 2.687174,0.20671 2.89388,-0.0413 3.265951,-0.24805 2.439129,-0.66146 2.48047,-0.86816 1.86035,-1.28158 1.28157,-1.57096 0.45476,-1.98438 -0.24805,-2.06705 -1.03353,-1.73633 -1.73633,-0.66146 -3.18327,-0.78548 -2.149735,-0.7028 -1.736328,-0.78548 -1.364258,-0.7028 -1.116211,-0.99167 -0.950846,-1.07487 -0.661458,-1.11621 -0.578776,-1.24024 -0.165365,-1.6123 0.37207,-1.61231 1.240235,-1.19889 1.281575,-0.78548 0.992188,-0.28939 1.281575,-0.16536 0.785482,-0.16537 8.433592,-0.0827 0.66146,-0.24805 0.0413,-0.82682 -10.914061,0.2067 -0.330729,-0.45475 -0.992188,-0.41341 -6.201172,0.0413 -0.0047,-0.0279 -0.07183,0.0491 -0.312125,0.98754 -0.291972,1.19837 -0.146245,1.72496 0.05839,1.34462 0.263033,1.66605 0.380338,1.37408 0.818038,1.87068 1.111044,1.75442 0.876949,1.02268 1.286226,1.14049 1.111043,0.90589 2.13372,1.08159 1.315682,0.58498 2.13372,0.46767 2.134239,0.14573 1.13998,0.0589 0.70125,0.43821 0.0589,0.93535 -0.99425,0.78961 -1.78284,0.67231 -2.104782,0.46767 -1.72496,0.17519 -2.251025,0.1757 -2.22157,-0.11731 -2.279964,-0.32143 -1.374076,-0.29248 -2.104782,-0.58446 -1.461409,-0.52607 -1.870687,-0.61392 -1.871204,-0.9064 -1.666048,-0.61392 -3.274218,-1.37356 -1.666049,-0.43873 -1.900142,-0.14624 -2.630847,-0.0289 -1.315682,-0.0295 -2.396753,0.52658 -1.637109,0.64286 -1.63711,0.76016 -2.13372,0.87695 -3.82974,1.63711 -1.256771,0.7307 -2.134237,0.81856 -2.13372,1.02319 -2.630847,1.13998 -2.279964,0.73071 -3.303674,1.11104 -1.899626,0.46767 -1.783354,0.32143 -1.666564,0.26303 -3.040125,0.2341 -2.250509,0.0289 -2.016931,-0.0879 -2.134236,-0.32143 -1.374077,-0.29249 -1.724442,-0.67231 -1.72496,-0.70125 -1.519803,-0.84801 -1.432471,-0.90589 -1.227832,-0.9648 -1.023194,-0.9064 -1.782836,-2.36781 -0.818555,-1.51981 -0.935344,-1.98799 -0.701766,-1.90014 -0.08785,-1.37356 0.263033,-0.76016 0.438732,-0.64337 1.052133,-0.35037 0.964799,0.17518 0.58446,0.55552 0.76016,0.58446 1.111044,0.81856 1.549259,0.9064 1.812293,0.99374 2.192631,0.73071 2.075325,0.55552 1.929081,0.23358 3.127975,0.23409 2.484603,-0.14624 2.075842,-0.20464 1.929081,-0.67231 0.994255,-0.52607 1.052132,-0.49713 1.315682,-1.13998 0.789099,-0.81855 0.67231,-0.8475 0.642855,-1.05265 0.643372,-1.54926 0.350883,-1.5198 0.146244,-7.04505 0.01447,-0.59428 -17.407723,0.30179 -0.02946,2.86494 -0.379822,0.23358 -9.705351,-0.0289 -0.233577,-0.11679 -0.02946,-0.84801 -0.847493,-0.0879 0.08733,-1.16892 -0.291972,-0.0589 -0.584977,-0.14572 -0.05839,-0.73123 0.467671,-0.40876 0.438733,-0.14624 0.116789,-2.77709 -0.818555,0.0289 -0.204638,-0.52607 0.204638,-0.84749 0.876949,-0.29249 0.116789,-2.835488 -1.052132,-0.08785 -0.02946,-1.198376 h 0.994255 v -3.098519 l -0.789616,-0.05891 -0.145728,-0.555005 0.05839,-0.526583 0.876949,-0.175183 -0.02946,-1.169438 0.116789,-0.642855 1.257288,-0.05839 0.02894,0.233577 4.677234,0.0584 0.02946,-0.409278 2.046387,0.08785 0.02894,0.234095 h 3.274219 v 1.549259 l 17.316773,0.10542 0.04702,-1.391646 0.1757,-2.777092 0.905888,-2.251025 1.344621,-1.63711 2.192631,-1.315165 2.309419,-0.876949 2.104782,-0.204639 2.338358,-0.146244 2.572453,0.379822 3.06958,0.467672 2.075326,0.613916 2.689241,0.964799 2.864941,0.876949 2.572453,0.701766 4.209562,0.993737 4.53099,0.818555 2.718697,0.263033 2.338359,0.146244 3.010669,-0.116788 2.748152,-0.08785 2.514059,-0.263033 1.841231,-0.438733 1.812809,-0.672311 1.636592,-0.116788 0.93586,0.409277 0.8475,0.876949 0.11679,1.081588 -0.49662,0.993738 -0.96479,1.286226 -0.96274,1.136882 0.002,0.0026 6.72673,-0.06925 -0.62012,-0.7028 -0.41341,-0.785481 -0.45476,-0.992188 -0.16536,-0.868164 v -0.950846 l 0.33073,-1.529623 0.7028,-1.198893 1.4056,-1.198893 1.36425,-0.992188 2.19109,-0.785481 1.73632,-0.578776 3.38946,-0.496094 3.43132,-0.578776 2.48046,-0.165365 1.98438,-0.124023 1.11621,-0.7028 0.82682,-1.157552 0.78549,-1.777669 0.24804,-1.198893 -0.0827,-1.570964 -0.99219,-1.943034 -1.73633,-1.529622 -1.48828,-0.826823 -3.38997,-1.488281 -3.10059,-0.661459 -3.43131,-0.578776 -3.01739,-0.248046 -3.10058,0.08268 -3.514,0.330729 -3.679366,0.620117 -3.720703,0.909505 -8.764323,2.52181 -5.002279,1.612305 -4.216797,0.826823 -2.604492,0.37207 -2.769857,0.206706 -3.059244,-0.330729 -2.480469,-0.537435 -2.108399,-0.785482 -3.348116,-1.44694 -4.423502,-2.315104 -4.010091,-1.901693 -4.175456,-1.943034 -5.663737,-1.570963 -4.588867,-0.454236 z m -6.252848,30.388326 -0.02945,3.741891 17.201017,0.08578 0.120406,-3.560506 z m -0.234094,4.297413 -0.02894,3.887621 17.321423,-0.19999 0.07183,-2.927988 0.02377,-0.702283 z m 17.279049,4.241601 -17.249593,0.11369 -0.116789,4.00492 17.27233,-0.27853 z" /><path
       id="path2"
       style="display:inline;fill:#00ff66;stroke-width:0.264583"
       inkscape:label="Pickguard"
       d="m 57.704488,83.429016 -2.338358,0.146244 -2.104782,0.204639 -2.309419,0.876949 -2.192631,1.315165 -1.344621,1.63711 -0.905888,2.251025 -0.1757,2.777092 -0.04651,1.383378 10.42417,0.165881 0.175183,-4.44314 1.987993,-0.02945 0.233577,-0.701766 0.321944,-0.350366 0.555005,-0.263033 h 0.672311 l 0.409277,0.145727 0.438733,0.263033 0.233577,0.380339 0.117306,0.497127 0.67231,0.08733 0.993738,0.05839 0.292489,0.263033 v 4.122229 l 21.120158,0.288354 0.04392,-0.376204 0.701766,-0.672311 13.242085,0.02894 1.461409,0.263033 0.9648,-1.139982 0.96479,-1.286226 0.49662,-0.993738 -0.11679,-1.081588 -0.8475,-0.876949 -0.93586,-0.409277 -1.636586,0.116788 -1.812809,0.672311 -1.841231,0.438733 -2.514059,0.263033 -2.748152,0.08785 -3.010669,0.116788 -2.338359,-0.146244 -2.718697,-0.263033 -4.53099,-0.818555 -4.209562,-0.993737 -2.572453,-0.701766 -2.864941,-0.876949 -2.689241,-0.964799 -2.075326,-0.613916 -3.06958,-0.467672 z m -5.78776,1.54926 0.642855,0.350883 v 0.58446 l -0.204639,0.409277 h -0.818555 l -0.350883,-0.204638 0.02946,-0.467672 0.175183,-0.379822 z m 49.450732,3.862813 0.41341,0.330729 0.28939,0.413411 -0.33073,0.620118 -0.66146,0.08268 -0.41341,-0.206706 -0.20671,-0.413411 0.0413,-0.496094 0.37207,-0.206706 z m -24.925098,0.02481 0.380339,0.350883 0.116789,0.467671 -0.350883,0.380339 -0.643372,0.05839 -0.379822,-0.204639 -0.08785,-0.409277 0.1757,-0.379822 0.584461,-0.204638 z m -30.182137,5.937622 -0.120922,3.588928 3.468005,-0.02584 v -0.467672 l 2.192114,-0.02894 0.02946,-0.526583 0.526066,-0.526066 0.58446,-0.263033 0.555522,0.02946 0.613916,0.145727 0.555522,0.497128 0.321427,0.467671 h 0.613916 l 0.67231,0.0584 0.117306,0.321944 0.350366,0.05839 v -3.274219 z m 17.407723,0.318326 -0.02946,3.332614 20.914486,-0.02894 0.01602,-0.819072 0.204639,-1.724442 0.07183,-0.615467 z m -14.119034,3.77083 -3.427698,0.02584 -0.0217,0.646472 -0.0739,3.009121 3.552238,-0.0563 z m 34.992179,0.118339 -20.873145,0.145211 -0.02946,3.273703 20.896916,-0.0574 -0.02481,-1.81332 z m -36.957951,0.74414 0.661458,0.413414 0.124024,0.37207 -0.165365,0.41341 -0.620117,0.20671 -0.413411,-0.20671 -0.33073,-0.41341 0.206706,-0.45475 z m 36.962085,3.029794 -20.877279,0.28836 -0.321427,0.49661 -1.520321,-0.0289 -0.321427,0.58446 -0.263033,0.67231 -0.643372,0.38034 -0.555005,0.0289 -0.555521,-0.0289 -0.526583,-0.2341 -0.350366,-0.32143 -0.234094,-0.52658 -0.175184,-0.52606 -1.461926,0.0589 -0.116789,3.15691 28.13265,-0.4501 z m -34.90898,0.2589 -3.624585,0.11162 -0.09198,3.74706 3.629236,-0.0878 z m 35.163745,3.66438 -28.349174,0.6537 0.124023,4.34082 -1.922363,0.0413 -0.04134,0.45476 -0.186035,0.59944 -1.033529,0.53744 -0.661458,-0.0207 -0.640788,-0.24805 -0.392741,-0.45476 -0.186035,-0.4961 -0.04134,-0.51676 -1.736328,0.0413 -0.227377,-0.7028 0.186036,-3.74137 -3.781165,0.094 -0.0155,0.6351 -0.146244,7.04505 -0.350883,1.5198 -0.643372,1.54927 -0.642855,1.05265 -0.67231,0.84749 -0.789099,0.81855 -1.315682,1.13998 -1.052132,0.49713 -0.994255,0.52607 -1.929081,0.67231 -2.075842,0.20464 -2.484603,0.14624 -3.127975,-0.23408 -1.929081,-0.23359 -2.075325,-0.55552 -2.192631,-0.73071 -1.812293,-0.99374 -1.549259,-0.9064 -1.111044,-0.81856 -0.76016,-0.58446 -0.58446,-0.55552 -0.964799,-0.17518 -1.052133,0.35037 -0.438732,0.64337 -0.263033,0.76016 0.08785,1.37356 0.701766,1.90014 0.935344,1.98799 0.818555,1.51981 1.782836,2.36781 1.023194,0.9064 1.227832,0.9648 1.432471,0.90589 1.519803,0.84801 1.72496,0.70125 1.724442,0.67231 1.374077,0.29249 2.134236,0.32143 2.016931,0.0879 2.250509,-0.0289 3.040125,-0.2341 1.666564,-0.26303 1.783354,-0.32143 1.899626,-0.46767 3.303674,-1.11104 2.279964,-0.73071 2.630847,-1.13998 2.13372,-1.02319 2.134237,-0.81856 1.256771,-0.7307 3.82974,-1.63711 2.13372,-0.87695 1.63711,-0.76016 1.637109,-0.64286 2.396753,-0.52658 1.315682,0.0295 2.630847,0.0289 1.900142,0.14624 1.666049,0.43873 3.274218,1.37356 1.666048,0.61392 1.871204,0.9064 1.870687,0.61392 1.461409,0.52607 2.104782,0.58446 1.374076,0.29248 2.279964,0.32143 2.22157,0.11731 2.251025,-0.1757 1.72496,-0.17519 2.104782,-0.46767 1.78284,-0.67231 0.99425,-0.78961 -0.0589,-0.93535 -0.70125,-0.43821 -1.13998,-0.0589 -2.134239,-0.14573 -2.13372,-0.46767 -1.315682,-0.58498 -2.13372,-1.08159 -1.111043,-0.90589 -1.286226,-1.14049 -0.876949,-1.02268 -1.111044,-1.75442 -0.818038,-1.87068 -0.380338,-1.37408 -0.263033,-1.66605 -0.05839,-1.34462 0.146245,-1.72496 0.291972,-1.19837 0.350883,-1.11053 -2.542998,-0.1757 -0.613916,-0.0879 -0.935343,-0.52607 z m 2.511474,2.55539 0.620118,0.4961 -0.165365,0.57877 -0.454753,0.12403 h -0.37207 l -0.248047,-0.20671 v -0.37207 l 0.206706,-0.37207 z m -40.389782,6.3252 0.620117,0.57878 -0.04134,0.57877 -0.620117,0.20671 -0.578776,-0.28939 -0.289388,-0.62012 0.413411,-0.28939 z m -30.385226,3.4308 0.496094,0.12402 0.124024,0.41341 -0.289389,0.57878 -0.661458,-0.0413 -0.206706,-0.37207 0.124024,-0.57878 z m 2.604493,2.06706 0.74414,0.57877 0.413412,0.86817 -0.04134,1.19889 -0.909505,0.49609 -0.826823,0.28939 -0.826823,-0.33073 -0.37207,-0.45475 -0.08268,-0.66146 v -0.7028 l 0.330729,-0.78548 0.744141,-0.24805 z m 43.738415,2.14974 0.454753,0.16536 0.330729,0.33073 -0.04134,0.53743 -0.413412,0.24805 -0.454752,-0.0413 -0.454753,-0.41341 0.04134,-0.4961 z m -20.546549,0.9095 0.826822,0.45475 0.7028,0.86817 0.206706,0.37207 0.248047,1.19889 0.248046,0.78548 -0.413411,0.7028 -0.37207,0.62012 -1.281576,0.45475 -0.826823,-0.24804 -0.661458,-0.41342 -0.909505,-0.45475 -0.248047,-0.62012 -0.289388,-1.32291 0.08268,-0.7028 0.330729,-0.62012 0.7028,-0.66146 0.992187,-0.33073 z m -7.276042,0.28939 0.620117,0.20669 0.248047,0.4961 -0.165365,0.49609 -0.537435,0.12403 -0.496093,-0.16536 -0.248047,-0.53743 0.124023,-0.33074 z m -5.829102,1.07487 0.950847,0.16536 1.198893,0.7028 0.661458,0.86817 0.289388,1.36424 -0.330729,0.82684 -0.454752,1.19889 -1.488282,0.33072 -1.157552,-0.0827 -1.07487,-0.90952 -0.537435,-0.7028 -0.289388,-0.95084 0.165365,-0.99218 0.37207,-0.82682 0.578776,-0.66146 z m 59.05531,0.64079 0.682129,0.16536 0.124024,0.47542 -0.206706,0.51677 -0.578776,0.10335 -0.516764,-0.16536 -0.08268,-0.47544 0.144694,-0.45475 z m 12.691737,0.18603 0.64078,0.3514 0.10336,0.51676 -0.43409,0.39274 -0.66145,-0.0827 -0.26872,-0.3514 0.14469,-0.6201 z m -76.129208,4.25813 0.330729,0.0413 0.37207,0.53744 -0.248047,0.66145 -0.74414,0.12404 -0.37207,-0.53744 0.08268,-0.7028 z m 19.347656,0.33073 0.661458,0.45475 -0.04134,0.53744 -0.330729,0.49609 -0.702799,-0.20671 -0.289388,-0.53743 0.04134,-0.49609 z" /><path
       style="fill:#0066ff;stroke-width:0.264583"
       d="m 239.11718,89.429166 48.61719,11.509374 0.66146,15.21354 -0.59531,0.59531 -40.81198,-1.32291 -0.52917,-0.99219 -0.99219,-1.85208 -1.52135,-1.91823 -1.38906,-1.45521 -2.05052,-1.32292 -1.65365,-0.7276 -2.51354,-0.72761 -1.52135,-0.26458 0.13229,-1.05833 11.70781,0.26458 0.8599,0.33073 0.66145,0.19844 0.72761,0.0661 0.66146,-0.0661 0.79375,-0.59531 23.54791,0.19843 0.33073,0.56224 0.62839,0.33073 0.52916,0.13229 0.89297,0.0992 0.76068,-0.33073 1.12448,-0.95911 0.3638,-0.95912 -0.0992,-1.02526 -0.62838,-0.69453 -0.19844,-0.7276 -0.76068,-0.29766 -0.82682,-0.19844 -0.69453,0.1323 -0.99219,0.16536 -0.7276,0.76068 -0.46302,1.25677 0.39687,1.05833 -22.9526,0.0331 0.13229,-0.52916 0.0992,-0.72761 -0.19844,-0.39687 12.27005,-0.16537 0.29766,0.39688 0.56224,0.23151 0.85989,0.26458 0.8599,-0.19843 1.2237,-0.62839 0.52916,-0.69453 0.13229,-1.05833 -0.19843,-0.8599 -0.39688,-0.496094 -0.49609,-0.628386 -0.62839,-0.330729 -1.12448,-0.09922 -1.02526,0.264583 -0.92604,0.595312 -0.3638,0.793754 0.0331,0.85989 0.29766,0.72761 -12.36927,0.23151 -0.4961,-0.46302 -0.59531,-0.26459 -0.95911,-0.0331 -0.69453,0.13229 -0.72761,0.69453 -11.90625,-0.76067 0.0331,0.62838 11.4763,0.79375 -0.0992,0.62839 0.0661,0.3638 0.4961,0.66146 -11.93932,-0.42995 0.002,-2.02509 -0.0351,-0.61388 v -1.941051 l 16.60276,0.247471 0.3638,0.52917 0.56224,0.39687 0.66146,0.19844 1.12448,0.13229 1.12447,-0.39688 0.72761,-0.82682 0.39687,-0.992188 -0.52916,-1.554427 -0.52917,-0.628385 -0.76068,-0.529167 h -1.35599 l -0.99218,0.496094 -0.69453,0.463021 -0.33073,1.223698 0.13229,0.760677 -16.7349,-0.264584 0.0331,-1.620573 5.98645,0.131922 0.30402,0.596347 0.30402,0.304019 0.36248,0.210473 0.63143,0.02339 0.79512,-0.0117 1.13423,-0.420949 0.74835,-0.713277 0.3391,-0.760048 0.0351,-0.99391 -0.30402,-0.549571 -0.37418,-0.724969 -0.64311,-0.467722 -0.40926,-0.280633 -0.57296,-0.05846 h -0.77174 l -0.6665,0.257246 -0.61973,0.350793 -0.47942,0.631423 -0.23386,0.678198 -0.0117,0.619731 v 0.608036 l -5.56588,-0.280633 0.0234,-0.46772 0.5028,-0.152011 0.44433,-0.491106 0.46772,-1.052375 0.93545,-3.414368 0.28063,-0.608037 0.49111,-0.514495 0.70158,-0.327404 z"
       id="path20" /></g></svg>
