<?xml version="1.0" encoding="UTF-8" standalone="no"?>
<!-- Created with Inkscape (http://www.inkscape.org/) -->

<svg
   width="297mm"
   height="210mm"
   viewBox="0 0 297 210"
   version="1.1"
   id="svg1"
   xml:space="preserve"
   xmlns:inkscape="http://www.inkscape.org/namespaces/inkscape"
   xmlns:sodipodi="http://sodipodi.sourceforge.net/DTD/sodipodi-0.dtd"
   xmlns="http://www.w3.org/2000/svg"
   xmlns:svg="http://www.w3.org/2000/svg"><sodipodi:namedview
     id="namedview1"
     pagecolor="#ffffff"
     bordercolor="#000000"
     borderopacity="0.25"
     inkscape:showpageshadow="2"
     inkscape:pageopacity="0.0"
     inkscape:pagecheckerboard="0"
     inkscape:deskcolor="#d1d1d1"
     inkscape:document-units="mm"><inkscape:page
       x="0"
       y="0"
       width="297"
       height="210"
       id="page2"
       margin="0"
       bleed="0" /></sodipodi:namedview><defs
     id="defs1" /><g
     inkscape:label="Sloj 1"
     inkscape:groupmode="layer"
     id="layer1"><path
       id="path1"
       style="display:inline;fill:#0066ff;stroke-width:0.264583"
       d="m 43.029932,60.452124 -3.85868,0.117306 -3.449401,0.701249 -4.735629,1.753898 -2.338358,1.403532 -2.455664,2.04587 -2.630847,2.631364 -3.040125,3.975468 -2.046387,4.092256 -1.753898,4.794023 -1.403015,5.437394 -0.701766,3.391008 -0.526066,4.443139 -0.467672,2.98173 v 4.852419 l -0.234094,2.92333 0.08785,5.55419 0.146244,2.80654 0.584461,3.68298 0.379822,3.12798 0.04806,1.65519 0.909505,3.34864 0.826823,3.05924 0.661458,2.39779 0.992188,2.27376 1.281575,2.68718 1.612305,2.72851 1.240234,1.4056 1.488281,1.6123 1.694987,1.57097 1.736329,1.24023 2.025199,1.11621 3.059245,1.15756 2.769856,0.82682 2.14974,0.24805 3.679362,0.33072 4.216797,-0.28938 2.604492,-0.41341 3.472656,-0.86817 2.563151,-1.03353 2.232422,-1.19889 2.025716,-1.15755 5.04362,-3.34864 4.712891,-3.47265 1.405599,-0.66146 1.653646,-0.66146 1.694987,-0.45475 1.44694,-0.0413 1.777152,0.37207 1.860352,0.57877 2.025716,0.86817 3.183268,1.28157 2.976563,1.1989 2.728515,0.82682 2.645834,0.62012 2.521809,0.37207 3.22461,-0.0827 3.7207,-0.28939 3.43132,-0.57878 2.8112,-0.82682 3.0179,-1.15755 2.56315,-1.32292 2.93522,-1.81901 2.06706,-1.52962 2.48047,-2.56315 -2.31511,-0.45476 -1.6123,-0.37207 -1.90169,-0.74414 -1.32292,-0.62012 -1.32292,-1.15755 -0.86816,-0.99218 -0.7028,-1.36426 -0.33073,-1.52963 -0.16537,-1.15755 0.0413,-2.1084 0.62011,-2.10839 1.03353,-1.57045 1.44694,-1.73633 1.81901,-1.11621 1.1989,-0.82682 -12.75995,-0.0109 v 3.4494 l -0.23358,0.76016 -0.35088,0.17518 -0.35088,2.28048 -0.35089,2.04587 0.35089,3.04013 0.87695,2.16317 0.99425,1.69551 1.11053,1.57871 3.33261,1.92908 0.0584,0.40928 -2.92334,1.34514 -2.86443,0.75964 -2.806541,0.64337 -3.917074,0.23358 -2.864941,0.0589 -2.922819,-0.11731 -2.39727,-0.29197 -3.917074,-1.11104 -4.267956,-1.87069 -1.987992,-1.05265 -2.104265,-0.81855 -1.871203,-0.58446 -2.046387,0.0584 -2.572453,0.1757 -1.753898,0.46767 -1.987476,0.40928 -0.05839,-0.93586 v -2.16317 l 0.642855,-3.09852 1.111043,-2.57246 1.46141,-2.51405 1.34462,-1.51981 1.052649,-0.81855 -6.665226,-0.29249 -0.935343,-0.52607 -0.292489,-0.87695 0.234094,-9.41286 -3.449402,-0.29197 -0.05839,0.46767 h -0.76016 l 0.116789,1.40302 0.643371,0.0584 0.05839,1.40302 -0.643371,-0.0584 0.234094,1.69551 0.701766,0.11678 v 1.22784 h -0.526583 l 0.350883,1.34462 -0.233577,1.05265 -0.876949,1.22783 -0.818555,0.29197 -1.286226,-0.40928 -1.111044,-0.52606 -0.233577,-0.99374 v -8.18503 l -6.898804,0.29197 0.116789,7.65896 0.935343,0.81856 v 1.22783 l -0.876949,0.76016 -0.643371,0.23358 -0.993738,0.35088 -1.403015,0.11679 -0.935344,-0.46767 -0.409277,-0.40928 0.175183,-24.496695 0.584977,-0.759643 1.227316,-0.117306 1.753898,0.234095 0.818554,0.292488 0.584978,0.642855 0.350883,1.111043 -0.468189,1.052132 -0.935343,0.467672 0.1757,1.812293 6.54792,0.05891 0.175183,-3.215825 0.818555,-0.876949 1.169438,-0.292488 1.34462,0.234094 0.87695,0.642855 0.409277,1.111043 -0.116789,1.286227 0.05839,0.993737 3.741891,-0.05839 0.175183,-2.80603 0.350883,-1.81281 0.526066,-0.467671 10.699089,0.117305 0.526066,0.350366 0.526066,0.760161 v 4.618839 l 14.382584,0.175183 0.116789,-4.033862 0.175183,-1.169438 0.643372,-0.409277 h 10.69909 l 0.58446,0.292489 0.40928,0.350883 -0.0584,4.267956 18.06556,0.584461 -2.16317,-1.63711 -1.46141,-1.286226 -0.99425,-1.227832 -0.87695,-2.04587 -0.11679,-2.046387 0.23357,-2.279964 1.11105,-2.104781 1.52032,-1.578715 1.92908,-1.111043 2.22157,-0.408761 2.39727,-0.05891 3.09852,0.350883 1.87069,0.292488 1.40353,0.116789 -1.05265,-1.695504 -1.98748,-2.630847 -2.10478,-2.046386 -2.51406,-2.04587 -3.21582,-2.046387 -3.04013,-1.578715 -3.2737,-1.519804 -3.27422,-0.876949 -3.56619,-0.818555 -3.91707,-0.350883 -3.15743,0.116789 -4.033862,0.234094 -4.092773,0.701249 -4.44314,1.461927 -3.391007,1.286226 -4.033863,1.637109 -2.572453,0.993738 -2.864941,0.526066 H 71.326912 L 69.280526,73.431694 66.942167,72.203861 64.486503,70.625146 62.323328,68.929643 59.575175,67.11735 57.061633,65.187752 54.371875,63.55116 51.858333,62.323328 48.993392,61.270679 46.128451,60.627824 Z m 11.663887,37.153288 -6.655924,0.124023 0.165364,2.191081 6.449219,-0.08268 z m 4.588867,0.124023 -0.04134,0.372071 -0.74414,-0.08268 0.04134,1.570964 0.785482,0.08268 v 0.45475 h 3.63802 l 0.165365,-2.27376 z m 16.494601,0.661459 v 1.901696 l 14.345377,0.33073 0.04134,-2.025721 z m -12.773898,2.108396 -3.762044,0.0827 v 0.24805 l -0.661458,-0.0413 v 1.65365 l 0.744141,0.0827 v 0.37207 l 3.513997,0.12402 z m -8.268229,0.0827 -6.655924,0.16537 0.08268,2.06706 6.531901,-0.0413 z m 20.79408,0.16537 0.08268,2.35644 14.552084,0.28939 -0.08268,-2.23242 z m -16.205212,2.60449 v 0.28939 h -0.496094 v 1.48828 l 0.620117,0.12402 v 0.45476 l 3.348633,0.0413 0.04134,-2.35645 z m -4.464844,0.12402 -6.697266,0.0827 0.08268,2.3151 6.614584,-0.24805 z m 20.711397,0.28939 0.04134,2.02572 14.510742,0.24805 v -2.06706 z m 0,2.56315 -0.0052,4.90048 14.616163,0.14624 -0.100253,-4.79867 z m -28.73158,16.20522 1.405599,0.0827 1.07487,0.53743 0.909505,0.90951 0.744141,1.6123 -0.206706,1.07487 -0.661458,1.4056 -1.157552,1.07487 -1.240234,0.33073 h -1.570964 l -1.44694,-0.57878 -0.785482,-1.28157 -0.206706,-1.52962 0.165365,-1.1989 0.537435,-1.28157 1.198893,-0.78548 z m -12.774414,0.45475 1.157552,0.16536 h 0.909506 l 1.240234,0.7028 0.785482,1.15755 0.206706,1.57097 -0.372071,1.4056 -1.240234,1.48828 -1.529623,0.45475 -1.405598,-0.2067 -1.529623,-0.45476 -0.826823,-1.24023 -0.413411,-1.32292 -0.08268,-1.07487 0.744141,-1.32291 0.950846,-0.82683 z m 25.879558,1.32292 1.364258,0.2067 1.322916,0.66146 1.240235,1.28157 0.496093,1.65365 0.124024,1.69499 -0.7028,1.57096 -1.281575,1.44694 -1.612305,0.66146 -1.653646,-0.0827 -1.240234,-0.33073 -1.240235,-0.74414 -0.826822,-1.1989 -0.496094,-1.73632 0.124023,-1.73633 0.620117,-1.24024 1.157553,-1.32291 1.364257,-0.62012 z m -10.211263,8.68164 2.19108,0.33073 1.240235,1.03352 0.702799,1.11621 -0.08268,1.44694 -0.37207,1.4056 -1.44694,1.1989 -1.529623,0.41341 -1.281575,-0.0827 -1.157552,-0.37207 -0.620118,-0.78549 -0.537435,-1.03352 v -1.48829 l 0.08268,-0.95084 0.496094,-1.11621 0.992187,-0.78548 z m -12.112956,0.37207 1.405599,0.0827 1.116211,0.53743 0.950846,0.95085 0.578776,1.28158 v 1.40559 l -0.578776,1.57097 -1.07487,0.86816 -1.694987,0.24805 -1.612304,-0.16537 -1.116211,-0.45475 -0.661459,-1.11621 -0.330729,-1.48828 0.206706,-1.24024 0.620117,-1.15755 1.116211,-0.99218 z" /><path
       id="path15"
       style="display:inline;fill:#d4aa00;stroke-width:0.264583"
       d="m 278.01611,96.695907 -0.74415,0.124023 -1.48828,0.413411 -1.98437,0.248047 -1.90169,0.33073 -1.65365,0.248046 -2.14974,0.165365 -3.26595,0.08268 -3.10059,0.124024 -2.68717,0.04134 h -2.52181 l -4.09277,-0.124024 -2.43861,-0.165364 -1.77767,-0.165365 -2.35645,-0.330729 -1.48828,-0.165365 -1.77767,-0.289388 -1.36426,-0.289388 -0.41341,0.496094 -0.86816,0.868164 -1.1989,0.868164 -1.03353,0.7028 -1.52962,0.826828 -1.28157,0.53743 -0.99219,0.16537 h -1.11621 l 0.0413,0.78548 13.76608,0.7028 -0.1235,-0.7028 0.1235,-0.7028 0.37207,-0.62012 0.82683,-0.45475 1.19889,-0.0413 0.7028,0.53743 0.45475,0.53744 0.24805,0.78548 -0.45475,1.32292 6.36653,-0.12403 -0.12402,-0.49609 -0.0413,-0.78548 0.37207,-0.7028 0.66146,-0.53744 0.86816,-0.33073 0.86817,0.33073 0.62011,0.78549 0.41341,1.03352 -0.0413,0.66146 5.95313,-0.49609 -0.12403,-0.57878 0.20671,-0.82682 0.41341,-0.57878 0.74414,-0.57877 0.62012,0.0413 0.86816,0.24805 0.66146,0.62011 0.45475,0.99219 -0.0827,0.66146 -0.41341,0.62012 -0.7028,0.62011 -0.62012,0.24805 -0.86816,-0.16536 -0.78548,-0.66146 -0.37207,-0.37207 -6.07715,0.49609 -0.41341,0.53744 -0.28939,0.33072 -0.95085,0.16537 -0.57877,-0.12402 -1.07487,-0.57878 -13.72371,1.4056 0.001,10e-4 2.23294,1.60404 0.0165,0.42995 -2.87735,1.75544 14.55519,1.94821 0.3545,-0.3545 0.7953,-0.0935 1.0051,0.2806 0.80099,0.56276 6.61613,0.88573 0.48783,-0.62993 0.84181,-0.2806 0.39739,-0.0935 1.00562,0.46767 0.5147,0.65526 0.0465,1.05213 -0.18707,0.70177 -0.65474,0.72502 -0.72502,0.30386 -0.74828,-0.16382 -0.65474,-0.32763 -0.42116,-0.60771 -0.2806,-1.02888 0.22634,-0.50436 -6.36344,-0.86558 0.10336,0.69143 -0.28061,0.95911 -0.72502,0.77153 -0.98185,0.25735 -0.84181,-0.14056 -0.44441,-0.32711 -0.32763,-0.63149 -0.18707,-0.95911 0.18707,-0.86506 0.20412,-0.20413 -14.63683,-1.99109 -0.11163,0.0682 -2.11666,0.8599 -2.61276,0.52917 -2.87735,0.0661 -1.28984,0.0662 0.0305,1.7849 1.4056,0.20671 1.28157,0.37207 0.90951,0.57877 1.86035,1.4056 2.1084,2.0252 2.23242,-0.0827 3.18327,-0.49609 3.67936,-0.28939 3.10059,0.0832 3.67936,-0.0413 3.30677,0.0827 3.18327,0.41341 2.8112,0.24805 3.05925,0.57877 6.11848,1.4056 1.44694,0.12403 1.28158,0.0827 -0.16536,-2.31511 0.0413,-1.36425 v -1.4056 l 0.62011,-0.95085 0.24805,-0.99219 0.0413,-1.03353 -0.37207,-0.45475 -0.33073,-0.57877 -0.0413,-0.53744 0.33073,-0.49609 0.24805,-0.78548 -0.0827,-1.44694 -0.37208,-0.86817 0.0827,-0.41341 0.57877,-0.33073 0.33073,-0.37207 -0.28939,-1.52962 -0.57877,-1.44694 -0.20671,-1.28158 0.16537,-1.488282 0.12402,-1.322917 z m -35.26245,8.722983 -0.41186,-0.39274 -5.2e-4,-5.2e-4 -0.002,5.2e-4 0.41341,0.39274 z m -0.41238,-0.39326 5.51698,-0.70228 -0.37207,-0.22738 -0.28939,-0.10335 -6.48798,0.18603 z m -1.63246,-0.84698 -0.88728,-0.51676 h -0.004 l 0.88884,0.51676 z m -0.88728,-0.51676 6.96185,-0.24805 -10.35596,-0.57877 3.38997,0.82424 z m 8.23464,7.14117 1.00562,0.21084 0.74827,0.70124 0.37414,0.44442 -0.0465,0.77205 -0.1173,0.53743 -0.4439,0.65526 -1.07591,0.56121 -1.02887,-0.16382 -0.86558,-0.70176 -0.30386,-1.02888 0.35088,-1.2392 0.53795,-0.60823 z" /></g></svg>
