<svg xmlns="http://www.w3.org/2000/svg" xml:space="preserve" width="297mm" height="210mm" viewBox="0 0 297 210"><path d="m35.32 51.253-2.637.204-3.34.636-3.66 1.319-3.363 1.773-2.16 1.5-1.637 1.295-2.704 2.91-2.046 2.954-2.25 3.682-1.432 3.228-1.318 3.636-.886 3.978-.637 5.545-.386 5.319-.386 5.5-.091 5.568-.137 7.092.25 6.5.364 5.364 1.182 4.819 2.16 4.863 3.09 4.069 1.545 1.84 3.296 3.046 3.478 2.046 4.909 1.841 5.614.795 7.955-.136 4.364-1 9.546-2.887 7.296-3 6.25-3.023 3.59-1.795 3.887-1.069 3.387-.295 3.341.023 3.41.864 3.523 1.227 4.863 2.045 5.796 2.114 4.023.773 3 .09 4.614-.113 3.75-1.068 3.114-1.637 1.568-2.09.591-2.523-.546-1.773-1.408-1.182-1.955-.795-3.614-.842-2.546-.772-2.045-1.091-1.727-1.228-1.091-1.431-1-1.887-.66-1.727-.295-2.092.068-2.545.614-2.045 1.25-1.819 2.114-1.659 1.068-.432 11.455.296.159-.319.886.023.41-.523.181-.568-.022-.409-13.024-.068-.295-.705-.682-.09-.864-.069h-3.523l-1.069 1.559-1.27 2.86-.562 1.881-.322 1.897-.08 2.072.289 2.154.643 2.138.675 1.623.868 1.51.916 1.254.868 1.013 1.655 1.157 1.704 1.028 2.105 1.045 2.54.788 2.024.337.755.209.595.273.402.322.112.353-.032.434-.273.29-.482.321-2.17.723-3.02.627-1.27.273-3.874.016-3.696-.82-4.693-1.446-6.3-2.491-4.291-1.736-2.62-.594-.852-.08-6.605-.065-2.202.434-1.51.482-2.411.884-1.768.707-3.31 1.672-3.15 1.784-7.522 3.117-6.22 2.186-5.046 1.447-5.577.032-1.43-.499-.724-.578-.755-.771-.354-.933-.176-1.301.386-1.35.482-.579 3.133-2.957 2.83-3.006 3.55-4.965 1.158-2.138 1.221-2.25.788-3.054.032-6.91-.321-.065.016 1.897-.21.273-.208.273-.354.129-6.203-.065-.257-.209-.338-.418-.048-.321.02-.816.028-1.24-.257-.419-.016-2.54-.53.081-.049-1.029.723-.192.097-1.607-.53.016-.017-1.608h.482l.13-1.414-.644-.032-.064-1.221.868-.322.064-1.205-.61-.097.08-1.542.434-.032-.016-1.367-.466-.112-.032-1.286.707-.064.128-1.334-.53-.064V86.4l.53-.016.032-2.492.756-.048.064.402 2.91.067 4.177.094V81.9l.595-1.897 1.125-1.88 1.43-1.447 1.93-1.125 2.104-1.012 2.781-.74 2.539-.16 2.668.241 2.459.29 2.009.433 3.053.74 8.036 3.134 4.66 1.784 2.364.803 3.037.466 2.121.322 6.284.177 4.291-.515 4.597-.916 1.481-.276h2l1.341.66.819 1.227-.091 1.386-1.273 3.319h9.205l-1.296-1.205-.727-1.5-.34-1.182-.183-1.25.114-1.568 1-1.273 1.34-1.91 1.547-1.568 1.795-1.318 2.477-1.273 2.273-.682 2.341-.454 2.455-.227 2.159-.137 1.455-.318.954-.636.41-1.023.545-1.136.204-1.455v-1.5l-.659-1.523-1.295-1.477-1.614-1.25-2.114-1.182-3.205-1.182-2.159-.523-2.34-.409-2-.182-5.592.046-3.84.545-5.024.932-3.068.727-6.5 1.978-3.478 1.34-2.41.478-3 .455-2.909.34-3.204-.022-3.796-.546-2.16-.432-3.09-.932-6.569-2.5-9.818-4.16-3.66-1.363-5.34-1.636-2.592-.591-2.455-.5-3.045-.477Z" style="display:inline;fill:#1a354e;stroke-width:.264999;paint-order:fill markers stroke"/><path d="m60.059 73.639-2.539.16-2.78.74-2.106 1.012-1.929 1.125-1.43 1.447-1.125 1.88-.595 1.897v2.507l-3.478-.078 6.168.141.889.176.374.362.023 1.684 6.654-.023.046-.094.187-.316.176-.292.35-.398.515-.303.456-.106.48-.129.409-.104-.234-.293-.304-.35.011-.55.55-.41.713-.163.456.269.305.35-.059.632-.199.35-.35.258.572.234.456.467.433.585.14.597 10.021.011.036-.35.187-.316s.631-.456.654-.515.468-.257.468-.257l.526-.187.561-.059.012-.245-.257-.058-.316-.164-.269-.246-.199-.444.047-.351.234-.152.561-.269.632-.105.28.175.316.257.07.398-.035.503-.21.199-.328.199-.339.058-.081.234.56.082.901.233.573.351.362.679.13.654 12.265.047.07-.316.175-.49.188-.387.502-.292.457-.269.642-.035.515-.047-.07-.339-.456-.187-.444-.257-.117-.608.374-.55.923-.374.445.304.35.456-.034.515-.304.549-.468.117-.047.292.713.152.796.375.666.666.327.877 3.473.082.421-.503 1.04-.257 9.125.166 1.27-3.31.09-1.386-.818-1.227-1.34-.66h-2l-1.482.276-4.597.916-4.29.515-6.285-.177-2.121-.322-3.037-.466-2.363-.803-4.66-1.784-8.037-3.134-3.053-.74-2.01-.433-2.458-.29zm4.656 1.379.62.231.356.422-.306.777-.496.29-.595-.017-.314-.405-.207-.637.347-.38zm-14.982 4.73.629.28.306.397-.017.554-.438.438-.57.091-.48-.306-.215-.446.09-.57zm30.715.735.526.199.468.48-.023.56s-.386.421-.48.456-.514.176-.514.176l-.585-.327-.421-.702.187-.538zm28.975 1.134.322.263.234.386-.018.48-.438.392-.573.099-.439-.146-.21-.41-.088-.555.45-.34zm.954 5.297h.029l1.319.049.022-.05zm-58.75.332.033 2.382 5.59-.067.694-2.298zm11.675.232-.563 2.265 10.402.182.116-2.364zm15.13.132-.016 2.332 12.303.248v-2.53zm20.666.322-3.157.011.047 2.187 2.41-.129.093.012.116-1.029.246-.561zm-47.422 2.241-.05 2.613 5.342-.016.414-2.497zm10.98.133-.214 2.48 10.748.05-.099-2.497zm15.76 0v2.58L90.603 93l.05-2.563zm17.537.233-.023 2.292 2.327.012.035-1.205.292-1.064zM57.034 93.2l-5.374.083-.033 2.53 4.465.033zm38.884.076v2.374l2.339-.07.058-2.28zm-5.282.007-12.204.05-.082 2.265 12.253.1zm-28.393.05-.661 2.53 11.36-.248.083-2.216zm36.13 2.562-2.525.012.117 2.386 2.385-.035zm-8.05.067-12.089.033.1 2.596 11.939-.165Zm-17.364.1-11.427.313-.43 2.53 11.708-.248zm-21.431.28-.133 2.382 4.035-.05.711-2.332zM95.8 98.514l-.059 2.69 3.228-.106-.27-1.076-.022-1.204-.14-.304zm-22.974.308-11.84.281-.563 2.728 10.966.03-11.115.103-.165.727-.248.711-.645.629-.661.413h-1.01l-.065.265.43.264.066.513-.215.595-.513.15-.595-.067-.48-.231-.165-.38.066-.563.149-.215.43-.132.016-.364-.463-.265-.611-.363-.513-.761-.033-.843-3.98.103-.018.819-.21 1.66-.726.328 16.464 4.91.631-.023 13.635.047.07-.397 4.116-.562 5.121.304.679.28.233.82-.327.818-5.519.725-3.461-.21-.936-.07-.14-.445-14.43.047-7.296-2.339.328 1.029-.258 1.403-.397 1.123-1.473 1.216-1.474.35-.78-.113-1.026-.198-1.257-.695-.661-1.257-.083-2.034.165-.91.91-.843.794-.694-6.88-1.736-.006.169.151.03-.032 6.91-.788 3.054-1.221 2.25-1.157 2.138-3.552 4.965-2.829 3.006-3.133 2.957-.482.578-.387 1.35.177 1.302.354.933.755.77.724.58 1.43.498 5.577-.032 5.046-1.447 6.22-2.186 7.521-3.117 3.15-1.784 3.311-1.672 1.768-.707 2.41-.884 1.511-.482 2.202-.434 6.605.064.852.081 2.62.594 4.29 1.736 6.301 2.491 4.693 1.447 3.696.82 3.873-.017 1.27-.273 3.022-.627 2.169-.723.482-.321.273-.29.032-.434-.112-.353-.402-.322-.595-.273-.755-.209-2.025-.337-2.54-.788-2.104-1.045-1.704-1.028-1.655-1.157-.868-1.013-.916-1.253-.868-1.511-.675-1.623-.643-2.138-.289-2.153.08-2.073.321-1.897.563-1.88 1.27-2.861 1.07-1.559h.019l-.011-.036-.017-.166-.413-.181-.893-.05-.91-.083-.71-.231-.612-.662-.282-.595-3.406.083.083 1.356-.248.71-.48.58-.976.462-.793.182v.414l.347.116.38.165.017.694-.215.397-.397.182-.413.248-.414-.082-.413-.364-.232-.414.133-.446.231-.314.628-.15-.016-.396-1.092-.132-.793-.397-.496-.728-.298-.794.033-1.356-12.088.298v.132l-.033 1.356-.397.546-.546.53-.579.38-.694.148.05.215.48.298.082.53-.298.43-.298.33-.595.116-.413-.215-.38-.182-.05-.414.016-.463.298-.248.364-.099-.033-.33-.496-.017-.645-.281-.629-.347-.347-.596-.248-.876.017-.728h-.083zm17.462 0-12.138.083.066 2.596c.199 0 11.956-.248 11.956-.248zm-34.826.215-4.068.05-.215 2.629 3.754.066zm43.747 5.39.356.05.43.248s.058.348.058.389-.108.43-.108.43l-.248.38-.512.083-.563-.116s-.322-.281-.33-.322a10 10 0 0 1-.017-.505c0-.058.281-.405.281-.405zm-50.279 2.25.645.297.248.678-.463.513-.628.083-.579-.199-.248-.612.298-.545zm17.509 9.622.374.164.421.327.07.842-.561.327-.678-.023-.421-.21-.117-.609.093-.607zm-16.862 1.473.819.024.959.163.701.421.842.796.445.794.304 1.685-.257 1.31-1.006 1.192-1.286.561-1.146.304-1.38-.07-1.1-.655-.677-.795-.538-1.193-.024-1.52.398-1.029.795-.865.935-.725zm15.038.702.397.07v.304l-1.964 1.988-.117.538-.725.748-.748.21-1.637 1.638-.632.327-.21-.35 1.94-2.036-.257-.42-.163-.842.491-1.123h.538l.842.14.468.468zm6.821 3.73.728.067.496.463-.099.529-.53.562-.595-.033-.628-.43v-.629zm17.265.926.826.298.265.628-.496.596h-.695l-.496-.33v-.762zm-31.032 1.681.631.258.234.514-.397.679-.515.116-.654-.164-.187-.537.187-.585zm-16.744 2.316 1.31.163.911.328.89.725.56.818.374 1.427-.046.865-.421.959-.678.959-1.006.631-1.123.398-1.38-.093-.981-.188-.983-.561-.467-.678-.422-1.146-.023-1.333.515-1.38 1.099-1.263 1.169-.538zm69.34 1.028.56.258.305.585-.398.701-.749.14-.49-.35.07-.772zm-56.01 1.685.398.07.443.327.235.49-.585.632-.772.047-.397-.303-.164-.538.397-.538zm-18.218 2.876.468.304.117.749-.375.631-.725-.024-.397-.397-.28-.468.163-.608.608-.164z" style="display:inline;fill:#1a354e;fill-opacity:1;stroke-width:.264999;paint-order:fill markers stroke"/><path d="m244.385 86.06-2.012 1.919-1.31 1.31-1.964.093.029.56.065-.326 7.717.514.234-.608.561-.655 1.123-.28 1.403.373.795.843v1.403l-.795.889-.122.044 3.677.19.047-1.077.608-.514 1.169-.328.982.562 1.17 1.216-.094 1.029-1.029.748-1.824.14-.842-.981-.047-.515-4.56-.203-.304.11-.424-.142-9.409-.418.478 9.446 3.228.935 3.04 1.965 2.946 3.18 2.48 3.836 39.756 2.151.888-.888.936-13.47-47.006-13.05zm-5.25 4.025.088 1.747.063-.252 8.247.426-.155-.052-.42-.935-.048-.515zm23.49 1.963 1.544.982.421 1.31-.748 1.356-1.403.374-1.263-.328-.796-1.215-6.688-.14.14 2.572-2.385-.094.047-2.385-11.974-.562-.047-.467 12.114.841-.093-.514 2.152.14.047.374 6.641-.187.374-1.169.702-.56zm6.409 2.057 1.87.609.468.982-.093 1.263-.936.935-1.59.047-1.123-.655-.187-1.216v-1.122l.608-.609zm7.015 1.731 1.17.608.795.89.14 1.262-.561.982-1.17.421-1.356-.515-.842-1.076v-.935l.374-.889zm7.016 2.011 1.31.561.561.796.094.842-.187.654-.796.609-1.169.467-1.216-.608-.701-1.356.327-1.076.514-.842zm-24.462.234h2.199l.233 3.134-2.198-.047z" style="display:inline;fill:#1a354e;fill-opacity:1;stroke-width:.264999;paint-order:fill markers stroke"/></svg>