<?xml version="1.0" encoding="UTF-8" standalone="no"?>
<!-- Created with Inkscape (http://www.inkscape.org/) -->

<svg
   width="297mm"
   height="210mm"
   viewBox="0 0 297 210"
   version="1.1"
   id="svg1"
   xml:space="preserve"
   sodipodi:docname="stlh_svg.svg"
   inkscape:export-filename="stlh_svg.svg"
   inkscape:export-xdpi="96"
   inkscape:export-ydpi="96"
   inkscape:version="1.4.2 (f4327f4, 2025-05-13)"
   xmlns:inkscape="http://www.inkscape.org/namespaces/inkscape"
   xmlns:sodipodi="http://sodipodi.sourceforge.net/DTD/sodipodi-0.dtd"
   xmlns="http://www.w3.org/2000/svg"
   xmlns:svg="http://www.w3.org/2000/svg"><sodipodi:namedview
     id="namedview1"
     pagecolor="#ffffff"
     bordercolor="#000000"
     borderopacity="0.25"
     inkscape:showpageshadow="2"
     inkscape:pageopacity="0.0"
     inkscape:pagecheckerboard="0"
     inkscape:deskcolor="#d1d1d1"
     inkscape:document-units="mm"
     inkscape:zoom="0.56572049"
     inkscape:cx="672.59364"
     inkscape:cy="278.40604"
     inkscape:window-width="1600"
     inkscape:window-height="837"
     inkscape:window-x="-8"
     inkscape:window-y="-8"
     inkscape:window-maximized="1"
     inkscape:current-layer="layer1"><inkscape:page
       x="0"
       y="0"
       width="297"
       height="210"
       id="page2"
       margin="0"
       bleed="0" /></sodipodi:namedview><defs
     id="defs1" /><g
     inkscape:label="Sloj 1"
     inkscape:groupmode="layer"
     id="layer1"><path
       id="path1"
       style="display:inline;fill:#d4aa00;stroke-width:0.264583"
       d="m 41.960746,59.572074 -4.423502,0.248047 -3.59668,0.454753 -3.638021,0.950846 -2.811198,1.033529 -4.422986,2.232422 -2.439127,1.860351 -2.232422,2.025716 -2.315104,2.521294 -1.488282,2.315104 -1.777669,3.26595 -1.364258,3.803386 -1.116211,4.216797 -1.5709631,7.069335 -1.2815755,7.56543 -0.7027995,4.960936 -0.289388,4.71289 v 5.41569 l -0.1240234,4.29896 0.4547526,3.47266 0.3307291,2.64583 0.8681641,3.47266 0.4960937,2.02572 0.7441407,1.94303 0.7854813,1.48828 1.488282,2.19108 1.116211,1.52963 1.240234,1.28157 0.744141,0.86816 0.950846,0.7028 0.826823,0.7028 1.116211,0.78549 1.07487,0.74414 1.281575,0.74414 1.694987,0.82682 1.819011,0.7028 2.025199,0.7028 1.736328,0.37207 1.943034,0.2067 3.513997,-0.0413 2.935222,-0.24804 3.224609,-0.57878 4.506185,-1.19889 11.782226,-4.05144 6.986654,-2.43912 5.374349,-1.81901 3.307292,-1.07487 3.389457,-0.99219 4.299479,-0.28939 2.811198,0.0413 2.935221,0.24805 3.638021,0.86816 3.927409,1.36426 4.134115,1.65365 6.118486,2.1084 3.55534,1.07487 3.80339,0.9095 3.0179,0.57878 3.76205,0.49609 4.09225,0.16537 2.93522,-0.16537 2.72852,-0.66146 2.27376,-0.66146 3.80339,-2.02571 1.4056,-1.32292 0.74414,-1.4056 0.16536,-1.36426 -0.12402,-1.24023 -0.0827,-1.32292 -0.53744,-1.32291 -0.53743,-1.07487 -1.77767,-1.32292 -1.98438,-0.49609 -2.3151,-0.24805 -2.8112,-0.53744 -2.48047,-0.49609 -2.3151,-0.7028 -1.94304,-0.78548 -1.65313,-0.78548 -0.9095,-0.86817 -1.07487,-1.65364 -0.57878,-0.99219 -0.16536,-1.36426 0.28939,-1.19889 0.2067,-1.07435 0.95085,-1.24024 1.19889,-1.11621 0.90951,-0.45475 1.40508,-0.66146 0.41341,-0.41341 0.95085,-0.57878 0.33073,-2.35644 -1.15756,-0.20671 -0.74414,-1.03353 -2.0252,-0.41341 -1.81901,-0.2067 -8.97103,-0.20671 0.86869,2.2102 0.55552,1.31568 0.32142,1.08159 -0.0873,1.31517 -0.9648,0.93586 -1.05265,0.555 -1.46141,-0.0873 -1.19837,-0.20464 -1.63711,-0.52658 -2.251027,-0.52607 -2.04587,-0.58446 -2.192631,-0.43873 -2.484603,-0.17519 -1.929598,-0.11678 -2.630847,0.0584 -2.251026,0.11679 -2.396753,0.14624 -2.98173,0.70177 -3.186369,0.96428 -3.624585,1.11104 -3.011185,1.16944 -4.355807,1.16892 -2.455147,0.46767 -2.30942,0.38034 -3.361552,0.23358 h -2.631364 l -2.04587,-0.52607 -1.841748,-0.58446 -1.461926,-0.67231 -1.286226,-0.87695 -1.168921,-0.99425 -0.701766,-0.93534 -0.760161,-1.49087 -0.291971,-1.13998 -0.05839,-1.02319 0.116789,-1.66605 h -6.869865 l -0.993738,-0.90641 -0.438216,-0.81855 0.964282,-7.42487 1.315682,-11.604978 0.760161,0.145728 0.02894,0.380338 0.380339,-0.05839 0.291972,-2.338876 2.060856,0.03462 0.475423,-0.609782 1.829346,-1.033529 3.120223,-1.588533 -0.0021,-0.01809 -0.672311,-4.063318 -0.701766,-2.016931 -0.818554,-1.578715 -0.701766,-1.169438 -1.37356,-1.900142 -1.286226,-1.54926 -2.349211,-3.054594 -0.713135,-1.09554 -0.485758,-0.940511 -0.12454,-0.774113 -5.029667,1.409216 5.030184,-1.41025 0.496093,-1.736328 1.322917,-1.529622 1.570964,-0.620117 1.943033,-0.124024 2.976563,0.372071 3.555338,0.868164 3.141928,0.992187 2.811197,1.157552 4.795573,2.025716 11.740369,5.29115 3.059245,-1.116211 V 71.105737 L 72.800724,69.990043 67.220186,67.426892 63.664848,65.89727 61.184379,64.8224 57.753064,63.416801 55.686007,62.465955 53.701632,61.845837 49.236788,60.522921 45.226697,59.902804 Z m 5.631698,24.693584 0.04651,0.42633 -0.04548,-0.426847 z m 0.04651,0.42633 0.12299,1.159619 -3.328996,1.81591 2.572453,0.467672 0.02945,2.046387 0.438216,0.05839 0.292489,-4.384745 z m 58.737496,-18.246948 -2.63084,0.233577 -2.74816,0.497128 -2.542993,0.58446 -3.127975,0.906405 -4.969722,1.461409 -3.449402,1.169438 -1.753898,0.467672 -2.22157,0.204638 -1.519804,-0.08733 -0.76016,0.291972 -1.198377,0.321427 -1.52032,0.321945 -0.935344,0.204638 -0.818555,-0.117305 -0.847493,0.467671 1.022677,0.321945 1.198893,0.204638 2.572453,0.204639 2.250508,-0.117306 2.835486,-0.263033 2.748153,-0.67231 2.864941,-0.847494 2.864425,-0.964799 3.537252,-1.052132 2.309419,-0.67231 3.858676,-0.731222 2.45515,-0.146244 2.51406,0.08785 2.30942,0.1757 1.87068,0.263033 1.69551,0.613916 1.05265,0.58446 0.32142,0.876949 -0.29248,0.847494 -0.64286,0.409277 -2.42621,0.468189 -1.7539,0.40876 -2.83548,0.731222 -1.66657,0.555005 -1.25677,0.555521 -1.75389,0.935344 -1.95854,1.461926 -1.05265,1.110527 -1.25677,1.695503 -0.672311,1.520321 -0.789616,2.279964 -0.263033,1.871204 0.05839,1.403015 0.204638,1.870687 0.438733,1.403015 0.701766,1.140499 0.964282,1.344621 3.829741,0.08733 -0.76016,-0.876949 -0.70176,-0.905888 -0.20464,-1.139982 0.20464,-1.783354 0.61391,-1.695504 1.08159,-1.695503 1.81281,-2.016932 2.07533,-1.549259 2.13372,-0.76016 2.6603,-0.467672 2.68924,-0.379822 2.36781,-0.643371 2.01694,-1.666049 0.93586,-1.637109 0.0873,-1.520321 -0.70125,-2.89388 -1.19889,-1.958537 -2.42621,-1.637109 -3.4494,-1.168921 -3.12798,-0.321944 z m -76.588603,0.453202 1.154451,0.452686 0.993738,0.555521 0.0047,-0.0015 0.74104,0.528133 1.403015,1.28571 1.490865,1.60817 0.906405,1.081588 1.373559,1.900143 1.052649,1.958536 0.964799,1.958537 0.526066,1.46141 0.263034,1.783353 -0.204639,1.256771 -1.227832,1.695504 -1.110527,0.76016 -0.994254,0.146245 -1.870687,-0.02946 -0.935344,-0.613916 -0.84801,-0.789099 -0.964282,-1.052649 -0.876949,-1.052132 -0.701766,-0.935344 -0.935343,-1.374076 -0.789616,-1.344621 -0.876949,-1.753898 -0.70125,-1.549259 -0.409277,-1.783354 -0.350883,-1.607654 0.248564,-2.499589 0.175183,-0.891418 0.76016,-0.789099 0.789099,-0.306958 z"
       inkscape:label="Body" /><path
       id="path2"
       style="display:inline;fill:#44aa00;stroke-width:0.264583"
       inkscape:label="Pickguard"
       d="m 43.697074,62.093884 -1.943033,0.124024 -1.570964,0.620117 -1.322917,1.529622 -0.496093,1.736328 -0.370004,0.10387 v 5.17e-4 l 0.369487,-0.103353 0.12454,0.774113 0.485758,0.940511 0.713135,1.09554 2.349211,3.054594 1.286226,1.54926 1.37356,1.900142 0.701766,1.169438 0.818554,1.578715 0.701766,2.016931 0.671794,4.059184 6.525183,-3.339848 6.573242,-3.348633 3.431315,-1.81901 -0.620117,-0.7028 -0.537435,-0.04134 -0.620117,-0.248047 -0.330729,-0.413411 -0.289388,-0.454753 -1.116211,-0.909505 0.04134,-0.413412 0.496094,-0.289388 0.909505,0.661459 0.206706,-0.868164 H 62.714 l 1.488282,1.116211 0.248047,0.785481 -0.33073,0.578776 0.909506,0.868164 0.74414,-0.37207 2.067058,-0.620117 4.919079,-1.612305 0.0041,-0.001 -0.0052,-0.01344 -0.04031,0.01447 -11.740369,-5.29115 -4.795573,-2.025716 -2.811197,-1.157552 -3.141928,-0.992187 -3.555338,-0.868164 z m 0.09302,1.106393 1.753898,0.263033 1.110527,0.08785 1.081587,0.58446 0.468189,0.906405 0.613399,0.847493 -0.116789,1.344621 -0.409277,0.84801 -1.46141,1.256771 -1.139982,0.379822 -1.783353,-0.02894 -1.315682,-0.613916 -0.730705,-0.876949 -0.204639,-1.256771 0.263033,-1.549776 0.497128,-0.935343 0.263033,-0.70125 z m -3.06958,0.204638 0.935343,0.409278 -0.02894,0.49661 -0.263034,0.497128 -0.789615,0.02945 -0.291972,-0.1757 -0.1757,-0.49661 0.05839,-0.467672 z m 15.551505,2.923336 0.701766,0.642855 0.02894,0.321427 -0.321427,0.409278 -0.613916,0.08785 -0.467672,-0.204639 -0.116789,-0.379822 -0.08785,-0.526583 0.438733,-0.291971 z m 49.577851,2.308903 -2.45515,0.146244 -3.858675,0.731222 -2.309419,0.67231 -3.537252,1.052132 -2.864425,0.964799 -2.864941,0.847494 -2.748153,0.67231 -2.835486,0.263033 -2.250508,0.117306 -2.572453,-0.204639 -1.198893,-0.204638 -1.022677,-0.321945 0.29869,-0.164847 -7.33547,2.445328 -2.222603,0.846977 0.401526,0.3514 -0.02894,0.146244 -0.350883,0.08785 -0.643888,-0.348816 -0.627869,0.239262 -9.197372,4.786788 1.259872,0.132808 0.806152,0.144694 1.178223,0.454753 0.640788,0.454753 0.516764,1.012858 0.310059,1.012858 -0.08268,0.909505 -0.454752,1.054199 -0.744141,0.868164 -0.599447,0.413412 -0.888834,0.413411 -1.219564,0.02067 -1.260905,-0.165365 -0.971517,-0.661458 -0.599446,-0.640788 -0.516765,-0.930176 v -1.054199 l 0.289388,-1.157552 0.3514,-0.806152 0.299206,-0.598413 -6.173266,3.21324 v 10e-4 l -0.227893,3.418396 -0.03721,0.973067 -0.09095,0.02015 0.0083,0.06253 2.769856,0.04134 0.496094,0.248047 0.206706,0.785482 -0.04134,0.744141 2.976562,0.04134 0.7028,-0.7028 0.537434,-0.37207 -0.165364,-0.744141 0.248047,-0.578776 0.37207,-0.37207 h 0.578776 l 0.537435,0.37207 0.124023,0.7028 -0.289388,0.454752 1.198894,0.289388 0.537435,0.537435 0.248046,0.413412 13.311333,0.413411 0.289388,-0.578776 0.702799,-0.537435 0.826823,-0.289388 -0.206706,-0.496094 0.248047,-0.74414 0.413412,-0.413412 0.413411,-0.04134 0.620117,0.165365 0.454753,0.496094 -0.248047,0.578776 -0.454753,0.454752 0.124024,0.248047 0.826823,0.165365 0.496094,0.454752 0.165364,0.7028 12.27832,0.413411 0.413412,-0.868164 0.826823,-0.744141 h 0.785482 l -0.33073,-0.496093 0.124024,-0.372071 0.454752,-0.578776 0.413412,-0.206705 0.496094,0.165364 0.248047,0.537435 0.206705,0.537435 -0.578776,0.496094 0.413412,0.206706 0.785481,0.496093 0.372071,0.372071 0.124023,0.578776 3.059245,0.08268 -0.537435,-0.206706 -0.330729,-0.496094 0.248047,-0.454752 0.37207,-0.454753 0.454753,0.04134 0.413411,0.248047 0.330729,0.372071 v 0.496093 l -0.454752,0.248047 -0.34985,0.31781 0.515214,-0.152445 3.767206,0.04134 -0.0403,-0.101803 -1.558553,-0.03566 -0.964282,-1.344621 -0.701766,-1.140499 -0.438733,-1.403015 -0.204638,-1.870687 -0.05839,-1.403015 0.263033,-1.871204 0.789616,-2.279964 0.672311,-1.520321 1.25677,-1.695503 1.052652,-1.110527 1.95854,-1.461926 1.75389,-0.935344 1.25677,-0.555521 1.66657,-0.555005 2.83548,-0.731222 1.7539,-0.40876 2.42621,-0.468189 0.64286,-0.409277 0.29248,-0.847494 -0.32142,-0.876949 -1.05265,-0.58446 -1.69551,-0.613916 -1.87068,-0.263033 -2.30942,-0.1757 z m -58.440359,21.629688 -0.0047,-0.03617 -0.370003,-0.04909 -0.02945,-2.046387 -0.632003,-0.114722 -0.274402,2.53938 z m 65.193439,-20.021517 0.64285,0.263033 0.35088,0.350883 -0.17518,0.49661 -0.76016,0.292489 -0.35088,-0.116789 -0.32143,-0.204639 -0.0584,-0.730704 0.23357,-0.146245 z m -53.43705,0.321427 0.643371,0.175183 0.438216,0.350883 0.05891,0.701766 -0.994254,0.438216 -0.555005,-0.116788 -0.204639,-0.379822 -0.08785,-0.380339 0.233578,-0.49661 z m 36.423616,0.847494 0.613916,0.350883 0.175183,0.438732 -0.263033,0.496611 -0.49661,0.146244 -0.584977,-0.291972 -0.02894,-0.468188 0.08733,-0.438216 z m -44.023669,0.409277 1.753898,0.146244 1.578715,0.964799 0.49661,1.374077 0.02946,1.607653 -0.555522,1.110527 -0.730704,1.052649 -1.198377,0.438216 h -1.987992 l -1.139982,-0.233577 -0.935344,-1.052649 -0.321944,-0.964283 -0.175183,-1.081587 0.292489,-0.760161 0.379821,-1.286226 0.906405,-0.906405 0.876949,-0.291972 z m 18.386991,0.438733 0.438733,0.467672 v 0.701766 l -0.584977,0.233577 -0.584461,-0.05839 -0.234094,-0.263033 -0.233577,-0.379822 0.146244,-0.350883 0.555005,-0.321944 z m -2.484603,4.910811 0.496611,0.263033 0.380338,0.350883 -0.05839,0.701766 -0.555522,0.263033 -0.67231,-0.175183 -0.116789,-0.409277 0.08733,-0.584977 0.146245,-0.233578 z m -18.252116,10.324435 0.806153,0.248047 0.144694,0.496093 -0.3514,0.620117 -0.537435,0.33073 -0.537435,-0.206706 -0.206706,-0.7028 0.227377,-0.578776 z m 1.764751,4.759399 -0.379822,2.280481 3.361552,0.08733 0.146244,-2.279964 z m 7.834663,0.350883 0.409278,2.104781 12.014253,0.438733 0.379822,-2.251025 z m 18.036626,0.491443 v 1.901693 l 11.286132,0.454752 0.289388,-2.025716 z m 19.481498,0.502295 -2.903699,0.07648 0.08268,2.067057 1.860352,-0.03359 0.08268,-0.545187 0.620117,-1.488281 z m -45.761548,1.227832 -0.26355,2.485119 3.888135,0.08733 -0.204639,-2.338359 z m 8.711096,0.1757 0.379822,2.542997 11.341943,0.1757 0.26355,-2.104781 z m 17.403589,0.491959 -0.04134,1.860352 11.327474,0.661458 0.206706,-2.232422 z m 18.635555,0.545187 -1.768368,0.03359 -0.206705,2.315105 1.769401,0.06821 0.04961,-1.391129 z m -45.01379,1.535307 -0.263033,2.309419 4.355807,0.175184 -0.234095,-2.338359 z m 9.383923,0.321427 0.438217,2.338356 10.582299,0.2341 0.291972,-2.251029 z m 16.704924,0.367936 v 1.81901 l 11.327474,0.57878 0.248047,-2.149743 z m 17.073893,0.454753 -0.206706,1.984377 1.612305,0.0718 0.206706,-1.394749 0.02377,-0.661458 z m -43.513106,1.749767 -0.234094,2.01693 4.940267,0.11679 -0.204639,-2.07533 z m 10.143567,0.23357 0.321427,2.10479 10.114112,0.1173 0.175699,-2.07584 z m 16.006258,0.12506 -0.04134,1.90169 11.410156,0.28939 0.248047,-1.90169 z m 17.032552,0.28939 -0.04134,2.14974 1.639693,0.0729 0.01395,-1.72651 0.06821,-0.46095 z m -43.504321,1.98282 -0.263033,2.39727 5.817216,0.0584 -0.350883,-2.33888 z m 10.757483,0.26304 0.146244,2.10478 9.968384,0.17518 0.146244,-2.16317 z m 15.383557,0.0279 -0.165365,2.23242 11.492839,0.0827 0.330729,-2.19108 z m 17.239258,0.33073 -0.248047,2.02572 1.950268,0.0357 0.01654,-1.98799 z m -43.738416,2.19108 v 0.7028 l -0.04134,1.36426 -0.04134,0.74414 -0.413412,0.86816 -0.454752,0.33073 -3.472657,-0.0827 -0.239778,0.2465 h 0.05219 l -0.116789,1.66605 0.05839,1.02319 0.291971,1.13998 0.760161,1.49087 0.701766,0.93534 1.168921,0.99425 1.286226,0.87695 1.461926,0.67231 1.841748,0.58446 2.04587,0.52607 H 56.7986 l 3.361552,-0.23358 2.30942,-0.38034 2.455147,-0.46767 4.355807,-1.16892 3.011185,-1.16944 3.624585,-1.11104 3.186369,-0.96428 2.98173,-0.70177 2.396753,-0.14624 2.251026,-0.11679 2.630847,-0.0584 1.929598,0.11678 2.484603,0.17519 2.192631,0.43873 2.04587,0.58446 2.251027,0.52607 1.63711,0.52658 1.19837,0.20464 1.46141,0.0873 1.05265,-0.555 0.9648,-0.93586 0.0873,-1.31517 -0.32142,-1.08159 -0.55552,-1.31568 -0.86869,-2.2102 2.15336,0.0496 -0.047,-0.11886 -9.258354,-0.0548 -0.04134,-0.28939 -1.81901,0.0413 -0.7028,-0.66146 -0.496093,-0.99219 0.0026,-0.34416 -2.069641,-0.0693 -0.124023,2.1084 -0.289388,0.62012 -0.454753,0.7028 -0.785482,0.41341 -0.785481,0.28939 0.08268,0.49609 0.206706,0.24805 -0.165365,0.53743 -0.537435,0.24805 -0.702799,-0.12402 -0.454753,-0.37207 v -0.4961 l 0.37207,-0.57877 -0.950846,-0.57878 -0.578776,-0.57878 -0.620117,-0.95084 0.206706,-0.7028 0.08268,-1.4056 h -11.53418 l 0.04134,1.15755 -0.248047,0.74414 -0.37207,0.86817 -0.496094,0.53743 -0.661458,0.37207 -0.950846,0.24805 0.165364,0.24804 0.330729,0.16537 0.04134,0.57878 -0.372071,0.33072 -0.537435,0.12403 -0.496093,-0.0827 -0.413412,-0.41342 v -0.53743 l 0.537435,-0.24805 -0.206706,-0.28939 -0.496093,-0.28938 -0.578776,-0.33073 -0.413412,-0.66146 -0.248047,-1.07487 0.08268,-1.44694 H 60.56426 v 1.03353 l -0.124024,0.78548 -0.661458,0.57878 -1.116211,0.95084 0.578776,0.24805 0.124024,0.37207 -0.165365,0.74414 -0.578776,0.16536 -0.702799,-0.37207 -0.33073,-0.53743 0.454753,-0.57878 -0.992188,-0.2067 -0.74414,-0.37207 -0.578776,-0.90951 -0.37207,-0.7028 -0.165365,-1.28157 z m -2.682007,5.10925 0.467672,0.20464 0.292489,0.52607 -0.292489,0.64337 -0.642855,0.17518 -0.350883,-0.23358 -0.146244,-0.43873 -0.02894,-0.43873 0.350366,-0.26304 z m 28.384831,1.5198 0.789099,0.49713 0.175183,0.46767 -0.555005,0.55553 h -0.643371 l -0.350883,-0.2341 -0.08733,-0.64285 0.233577,-0.43874 z m 29.173415,0.0589 0.61391,0.37982 0.26304,0.52606 -0.17519,0.38034 -0.93534,0.32143 -0.46767,-0.0879 -0.0295,-0.61392 0.0879,-0.43821 0.17518,-0.32195 z m -43.994216,4.32635 0.672311,0.32142 0.116788,0.40928 -0.321427,0.67231 -0.497127,0.0878 -0.438217,-0.32194 -0.08785,-0.46767 v -0.40928 z" /><path
       style="fill:#0055d4;stroke-width:0.264583"
       d="m 234.02172,109.14778 1.16924,0.99385 1.22769,0.99384 1.52,1.52 0.81846,1.05231 1.28616,1.05231 1.22769,0.40923 49.04926,-13.03693 0.40923,-0.52616 0.0585,-0.87692 -2.39694,-12.861549 -41.09848,1.929234 -0.11693,0.818462 -0.52615,1.461539 -0.70154,1.46154 -1.05231,1.286156 -1.98769,1.753846 -1.92924,1.169233 -2.22154,0.350769 -2.33846,-0.350769 -0.46769,-0.116924 0.35077,2.046155 17.9477,1.052308 0.0585,-1.929233 h 2.16307 l -0.0292,0.263078 21.01693,1.023075 0.14616,-0.613844 0.61385,-0.672309 0.8477,-0.409231 0.55539,0.02923 0.96462,0.409231 0.49691,0.613846 0.35076,0.701547 -0.0292,0.84769 -0.17539,0.49692 -0.61386,0.55539 -0.70152,0.35077 h -1.02309 l -0.75999,-0.40924 -0.52617,-0.38 -0.26308,-0.58461 v -0.49692 l 0.11247,-0.44399 -21.01549,-1.012797 -0.0155,1.942917 14.15159,1.09233 0.10231,-0.54077 0.39463,-0.43846 0.68691,-0.51154 0.40923,-0.13154 0.0585,-0.26308 0.36538,0.0585 0.61384,0.0439 0.54078,0.29231 0.24844,0.40923 0.3487,0.48527 0.31004,0.62008 -0.10335,0.86811 -0.26871,0.64075 -0.64074,0.45472 -0.64077,0.24803 -1.07479,-0.16535 -0.74409,-0.59941 -0.49607,-0.70276 -0.12401,-0.45472 0.0138,-0.30953 -14.15317,-1.09798 -0.009,0.83125 H 254.162 l 0.0861,-1.10829 -17.94353,-1.054134 0.0267,1.899344 11.42924,0.8477 0.0585,-0.14616 2.04616,0.0585 0.0292,0.17539 13.63942,1.16478 0.18603,-0.51674 0.37204,-0.39271 0.49605,-0.33071 0.39272,-0.16536 0.57875,-0.0827 0.62008,0.0207 0.70276,0.28937 0.39272,0.5374 0.35137,0.4754 0.26871,0.57874 -0.22738,0.62008 -0.24802,0.57874 -0.45472,0.43405 -0.78544,0.28937 -1.13681,0.0207 -0.55807,-0.31003 -0.66142,-0.7441 -0.20669,-0.41338 -0.062,-0.51674 -13.62106,-1.24015 0.10335,1.8809 6.88287,0.70276 0.18602,-0.57874 0.39272,-0.2687 0.2687,-0.31004 0.66142,-0.22736 0.51673,-0.0207 0.90945,0.10335 c 0,0 0.12402,0.31004 0.20669,0.33071 0.0827,0.0207 0.55807,0.35137 0.55807,0.35137 l 0.2067,0.53741 -0.0413,1.11614 -0.18603,0.68208 -0.55807,0.35138 -0.55807,0.31004 -0.70275,0.0827 -0.76477,-0.062 -0.62008,-0.33071 -0.31003,-0.43405 -0.39272,-0.5374 v -0.70276 l 0.0207,-0.20669 -6.75886,-0.70276 0.0207,0.62008 -2.14961,-0.0413 -0.0827,-2.74901 -11.43012,-0.78544 0.0207,1.46752 11.46112,0.95596 0.005,0.35654 -11.48696,-0.89911 v 1.55019 l 13.53839,2.06693 0.14468,-0.51673 0.31004,-0.37205 0.45473,-0.33071 0.57874,-0.3307 0.51673,-0.18603 0.51673,0.10335 0.66142,0.33071 0.59941,0.5374 0.39271,0.55807 0.0827,0.62008 -0.10334,0.68209 -0.31004,0.41338 -0.28937,0.39272 -0.51673,0.24803 -0.78544,0.16535 -0.93012,-0.062 -0.45472,-0.31004 -0.55807,-0.53741 -0.22736,-0.45472 -0.12402,-0.78543 -13.49705,-1.83957 -0.12401,1.75689 6.92421,1.32283 0.45472,-0.35137 0.31004,-0.33071 0.49607,-0.2687 0.35137,-0.2687 0.78544,0.0413 0.47539,0.22737 0.39272,0.31004 0.39272,0.28937 0.22736,0.45472 0.062,0.8061 -0.16535,0.76477 -0.33071,0.47539 -0.72342,0.37205 -0.62008,0.10334 -0.88878,-0.0207 -0.49606,-0.33071 -0.53741,-0.37204 -0.24803,-0.4754 v -1.03346 l -7.04823,-1.2815 0.062,1.46752 z"
       id="path3"
       inkscape:label="Headstock" /></g></svg>
