<?xml version="1.0" encoding="UTF-8" standalone="no"?>
<!-- Created with Inkscape (http://www.inkscape.org/) -->

<svg
   width="297mm"
   height="210mm"
   viewBox="0 0 297 210"
   version="1.1"
   id="svg1"
   xml:space="preserve"
   xmlns="http://www.w3.org/2000/svg"
   xmlns:svg="http://www.w3.org/2000/svg"><defs
     id="defs1" /><g
     id="layer1"><path
       id="path1"
       style="display:inline;fill:#3771c8;stroke-width:0.264999;paint-order:fill markers stroke"
       d="m 81.072571,80.163066 -4.705139,0.136425 -3.204456,0.204639 -1.841231,0.341064 -1.545642,0.295073 -1.386479,0.568441 -0.772563,0.295589 -0.136425,9.636621 h 2.704744 l 0.363802,0.341064 0.113688,0.454753 -0.02274,2.545581 23.751005,0.431498 0.04547,-0.476973 0.522965,-0.47749 0.431499,-0.341065 0.341064,-0.113688 0.181901,-0.204122 -0.38654,-0.02274 -0.204638,-0.432015 0.04548,-0.522965 0.295589,-0.363285 0.363802,-0.159164 0.38654,-0.02274 0.476973,0.272851 0.38654,0.499711 -0.09095,0.432015 -0.250114,0.295589 -0.113688,0.135909 0.02274,0.29559 0.636654,0.04547 0.296106,0.148828 0.329695,0.457853 0.104387,0.47439 0.0078,0.104386 3.60288,0.0646 0.56844,-0.70435 0.45424,-0.113688 11.29647,0.250114 -0.90951,-2.454631 -1.86345,-2.205033 -3.54552,-2.727482 -3.7729,-2.090829 -3.97753,-1.682067 -4.614191,-1.476913 -5.091163,-1.136881 -5.318538,-0.727088 z m -11.478369,2.159558 0.454752,0.04547 0.181901,0.454236 v 0.591178 l -0.409277,0.363286 -0.545186,-0.09095 -0.272852,-0.22686 -0.09095,-0.682128 z m 22.092191,0.09043 0.500228,0.181901 0.272852,0.545704 -0.227377,0.727087 -0.636653,0.181901 -0.590662,-0.136426 -0.09095,-0.772562 z m 19.910417,9.773564 0.72708,0.636137 0.0909,0.500228 -0.63665,0.409277 H 111.142 l -0.45475,-0.04547 -0.1819,-0.636654 0.13643,-0.681612 z m -40.946859,3.486609 0.01602,2.233972 23.448181,0.208773 0.01602,-2.137337 z m 27.739392,0.369486 0.04806,2.089279 2.860807,0.03204 -0.032,-0.980302 0.56224,-1.108976 z m -27.755412,2.459282 -0.03204,2.330095 23.576856,-0.032 -0.04858,-2.282035 z m 30.535609,0.128157 -2.748157,0.03256 0.01602,2.121318 2.571417,0.0641 -0.0801,-1.494485 z m -30.519589,2.748158 -0.128674,8.61446 c 0,0 0.09664,3.18234 0.09664,3.31091 0,0.12857 -0.257349,0.67489 -0.257349,0.67489 l -0.578259,0.48214 -2.314588,-0.032 0.0646,9.48211 1.157035,0.25735 1.028361,0.38551 1.124996,0.96428 0.675411,1.25367 0.353467,1.54254 -0.257349,1.96112 -0.835608,1.38183 -1.735811,1.41438 -1.703255,0.0641 -0.09663,4.14652 0.642855,-0.0641 2.025199,-0.80357 1.896008,-0.83561 3.27887,-1.28571 2.442745,-0.64285 2.153357,-0.41806 2.53938,-0.12868 1.864486,0.032 2.089278,0.32143 3.407027,0.96428 3.79305,1.54306 3.0856,1.06092 3.439066,1.31775 3.342941,0.93224 3.34295,0.57826 2.95693,0.28939 h 2.60397 l 2.76418,-0.19276 1.76785,-0.48214 2.0252,-0.96428 0.8356,-0.57878 0.89969,-0.99632 0.5147,-0.70693 0.032,-0.77153 -0.38603,-0.99632 -0.73897,-0.93224 -1.31826,-0.99633 -2.31408,-0.77152 -3.05356,-1.02888 -2.95692,-1.15704 -2.31459,-1.22111 -2.6355,-2.0898 -1.54306,-1.76785 -1.44642,-2.47478 -0.70693,-2.24999 -0.28939,-1.89653 0.25683,-2.21795 0.67541,-1.86397 1.28571,-1.83245 1.18908,-1.09244 -0.77153,0.19276 h -0.6749 l -0.67489,-0.41807 -0.57878,-0.32142 -0.41754,-1.02836 -0.57878,-7.90753 -2.700088,0.0966 0.09663,8.71058 -0.03204,0.6749 -0.257349,0.51469 -0.803568,0.25684 -0.642855,0.19327 0.418062,0.51418 0.06408,0.48214 -0.321427,0.67489 h -0.514181 l -0.642855,-0.0646 -0.192753,-0.38551 -0.09663,-0.57878 0.353467,-0.3855 0.514697,-0.25735 -0.578776,-0.28887 -0.996321,-0.54674 -0.450102,-0.64285 v -8.93538 z m 29.991449,9.90017 0.77308,0.59118 0.091,0.54518 -0.40928,0.45476 -0.3638,0.0909 c 0,0 -0.40883,-0.0455 -0.59066,-0.0455 -0.181822,0 -0.409276,-0.3638 -0.409276,-0.3638 l 0.09095,-0.63665 0.227376,-0.49972 z m -30.046743,7.40937 0.545187,0.50022 0.04548,0.54519 -0.09095,0.5457 -0.636136,0.1819 -0.863514,-0.0909 -0.04547,-0.86403 0.135909,-0.63613 z m -1.454691,15.22801 0.590661,0.63665 0.136426,0.54519 -0.545186,0.59118 -0.727604,0.0455 -0.408761,-0.45475 -0.181901,-0.22738 0.31781,-0.72709 z m 27.81949,0.1819 0.636654,0.40928 0.22686,0.36328 -0.181385,0.68213 -0.454752,0.40928 h -0.500228 l -0.499711,-0.63666 0.226859,-0.77256 z m 20.273694,0.50023 0.72761,0.36328 0.36328,0.5457 -0.40876,0.72709 -0.63665,0.1819 -0.59066,-0.22737 -0.31833,-0.54519 0.1819,-0.68213 z" /><path
       id="path6"
       style="display:inline;fill:#3771c8;stroke-width:0.264999;paint-order:fill markers stroke"
       d="m 43.320353,60.389596 -7.227466,0.204638 -4.318599,0.749825 -4.954736,2.045353 -4.136699,2.591057 -2.931604,2.818432 -3.045809,4.136699 -2.023132,4.273124 -1.431437,5.068424 -0.682129,5.477185 -0.772563,7.886858 -0.136426,7.750429 -0.181901,12.43232 0.591179,6.50038 0.681612,5.18211 2.318205,7.11429 3.068546,5.04569 2.863908,3.34088 2.045353,1.36374 3.818372,2.15904 3.863847,1.13637 0.681612,0.22738 0.591178,1.341 5.022949,0.65939 3.54552,0.091 4.295862,-0.15916 3.750159,-0.88677 5.20485,-1.43144 4.841048,-1.68207 8.955009,-3.6592 6.022889,-2.81844 5.68234,-2.02261 2.045353,-0.38654 2.431893,-0.13643 2.227771,0.15917 2.999817,0.47697 2.704744,1.04593 4.636927,1.88619 4.909265,1.75028 4.4545,0.99994 3.29593,0.38654 3.04529,0.0227 3.04581,-0.34107 2.38642,-0.40927 2.81843,-1.11363 2.06809,-1.47743 0.88625,-1.31827 0.38654,-1.25005 0.0455,-1.56838 -0.0682,-1.56786 -0.77256,-1.77302 -0.70487,-0.86351 -1.341,-0.95498 -1.65881,-0.6134 -2.70475,-0.74983 -4.1367,-1.63659 -2.88664,-1.40922 -1.65933,-1.40921 -2.15904,-2.52285 -1.09089,-2.1363 -0.52297,-1.50017 0.50023,-1.22731 0.9772,-1.86397 1.29553,-1.04542 1.75028,-1.1591 1.43195,-0.50023 2.22726,-0.27233 11.54606,-0.22738 0.90899,-0.34106 0.20464,-0.52297 -0.10077,-0.41238 -13.43587,0.19276 -0.16072,-0.64286 -0.61029,-0.16071 -5.93039,0.20257 -1.10898,1.01854 -1.28571,1.83245 -0.67541,1.86397 -0.25683,2.21795 0.28939,1.89653 0.70693,2.24999 1.44642,2.47478 1.54306,1.76785 2.6355,2.0898 2.31459,1.22111 2.95692,1.15704 3.05356,1.02888 2.31408,0.77152 1.31826,0.99633 0.73897,0.93224 0.38603,0.99632 -0.032,0.77153 -0.5147,0.70693 -0.89969,0.99632 -0.8356,0.57878 -2.0252,0.96428 -1.76785,0.48214 -2.76418,0.19276 h -2.60397 l -2.95693,-0.28939 -3.34295,-0.57826 -3.342945,-0.93224 -3.439066,-1.31775 -3.0856,-1.06092 -3.79305,-1.54306 -3.407027,-0.96428 -2.089278,-0.32143 -1.864486,-0.032 -2.53938,0.12868 -2.153357,0.41806 -2.442745,0.64285 -3.27887,1.28571 -1.896008,0.83561 -2.025199,0.80357 -0.642855,0.0641 0.09457,-4.04782 -4.8519,0.15865 -32.496208,0.4501 -1.607137,-0.54673 -1.221631,-0.93173 -1.092956,-1.18959 -0.224793,-1.5105 0.192753,-1.38235 0.578776,-1.41438 0.674894,-0.77153 0.867648,-0.86765 1.028877,-0.67489 h 0.867648 l 37.350175,-0.70745 0.12764,-0.11214 -0.06356,-9.30538 0.04754,5.2e-4 -0.03462,-0.0372 -24.455872,0.13643 -0.818038,-0.65887 -0.159163,-0.86403 0.159163,-1.70429 -0.931726,-0.11369 0.02274,-1.04542 0.7953,-0.15916 0.06821,-0.47749 -0.818038,-0.0227 0.181384,-1.47743 -0.249597,-0.52244 v -0.36381 l 0.476973,-0.1819 0.29559,-0.0227 -0.04548,-1.70428 -0.613399,0.0227 -0.227376,-0.65939 0.681612,-0.52245 0.522965,-0.11368 -0.02274,-0.4775 -0.47749,-0.0227 -0.29559,-1.15911 -0.272334,-0.38653 -0.02274,-0.68162 0.636137,-0.25011 0.409277,0.1819 0.04548,-1.977657 -0.954463,-0.09043 0.06821,-0.977718 0.818038,0.136426 0.04548,-0.636137 -0.727604,-0.204639 0.136425,-1.022676 -0.386022,-0.500228 0.158646,-0.658875 0.818555,0.295073 -0.181901,-3.181718 25.410335,-0.02274 -0.08268,-0.659391 h -0.0083 l 0.136425,-9.636621 0.772563,-0.295589 1.386479,-0.568441 1.545642,-0.295073 1.841231,-0.341064 3.204456,-0.204639 4.705139,-0.136425 3.977018,0.272851 5.318538,0.727088 5.091163,1.136881 4.614189,1.476913 3.97753,1.682067 3.7729,2.090829 3.54552,2.727482 1.86345,2.205033 0.90744,2.448946 6.27507,0.0739 -0.90951,-0.86403 0.86403,-0.999939 1.20458,-2.181779 1.27279,-2.886646 1.06815,-3.727421 0.52297,-3.15898 0.40876,-5.20485 -0.34106,-2.04587 -0.81804,-2.022616 -0.95447,-1.591117 -1.29552,-1.477429 -1.43196,-0.977202 -1.86397,-1.022676 -1.90892,-0.636654 -1.84124,-0.476973 -1.97714,-0.29559 -5.31853,0.04548 -3.18172,0.522448 -2.95486,0.77308 -3.295406,1.204577 -6.477641,2.954859 -2.75022,1.204577 -2.682006,0.454236 -2.318205,0.06821 -4.432288,-0.04547 L 74.572192,71.321745 71.185319,69.912528 67.275997,68.162764 63.639526,66.389746 55.93457,63.276241 51.616488,61.9125 47.57074,60.95752 Z m 61.040207,50.553504 -0.41032,0.0139 -0.0816,0.0966 h 0.0491 z m -34.631483,21.56923 -1.96112,0.60719 1.274857,-0.0481 z" /><path
       id="path14"
       style="display:inline;fill:#3771c8;fill-opacity:1;stroke-width:0.264999;paint-order:fill markers stroke"
       d="m 244.1944,93.050134 -1.36374,0.999939 -0.86352,1.272791 -0.95498,1.18184 -1.22731,0.545703 0.009,0.614949 5.42344,0.209807 v -0.225309 l 0.0646,-0.803569 0.57877,-0.706934 0.99632,-0.386023 1.09244,0.22531 0.86817,0.899686 0.22479,0.932243 -0.22479,0.868164 -0.41806,0.449585 -0.73898,0.353984 -0.37414,0.104903 4.45606,0.02325 0.19276,-0.931726 0.41806,-0.70745 1.22163,-0.417546 h 0.32143 l 0.70693,0.417546 0.57878,0.73949 0.32142,0.803568 0.032,0.899695 -0.57877,0.64337 -0.57878,0.48162 -0.86765,0.25735 -0.86764,-0.35347 -0.48214,-0.32142 -0.28939,-0.57878 -0.16072,-0.44958 H 239.8305 l 0.0186,1.22783 9.64334,0.50746 0.032,-0.57826 2.08928,0.0961 0.032,0.61081 6.9112,-0.16071 -0.0326,-0.28939 v -0.54622 l 0.35398,-0.51418 0.22479,-0.38602 0.64286,-0.128679 0.73949,-0.192753 0.77101,0.19327 0.70745,0.771012 0.32143,0.70745 0.032,0.86765 -0.28939,0.80357 -0.83561,0.51418 -0.61081,0.0966 h -0.54622 l -0.64286,-0.28939 -0.61081,-0.25683 -0.19276,-0.73949 -7.00732,-0.0966 0.0966,2.18591 -2.18591,-0.0641 -0.0641,-2.21796 -9.57254,-0.44235 0.11059,7.32462 0.99994,0.31781 1.04541,0.27285 1.63659,0.40928 1.68207,0.68161 0.95447,0.72761 1.09088,0.77256 0.90951,1.18184 0.63614,1.04541 0.72708,1.00046 0.86403,0.86351 38.4111,4.72736 h 0.81803 l 0.36381,-0.59066 0.31832,-0.5457 -0.68213,-12.36411 -0.22737,-0.59118 -0.27285,-0.40876 -43.91102,-13.319083 z m -4.3925,5.120101 0.0207,1.377177 6.74171,0.03566 -0.54312,-0.229444 -0.44959,-0.353466 -0.35398,-0.73949 z m 26.91929,3.530015 0.80357,0.22479 0.61081,0.45011 0.64286,0.73897 c 0,0 6e-5,0.7397 -0.032,0.99684 -0.0322,0.25715 -0.0643,0.44969 -0.16072,0.57826 -0.0964,0.12858 -0.0964,0.25725 -0.32142,0.4501 -0.225,0.19286 -0.73909,0.25713 -0.86765,0.32143 -0.12858,0.0643 -0.73949,-0.12868 -0.73949,-0.12868 l -0.80357,-0.19275 -0.48214,-0.38551 -0.25735,-0.70745 -0.0641,-0.77153 0.19275,-0.48214 0.38603,-0.54622 0.28887,-0.3855 z m 6.81457,1.99265 1.0604,0.3855 c 0,0 0.51467,0.41827 0.67541,0.67541 0.16071,0.25714 0.28917,0.67459 0.35347,0.93173 0.0643,0.25715 0.032,0.67541 0.032,0.67541 l -0.19276,0.64285 -1.06091,0.35347 -0.73898,0.25683 -0.83561,-0.22479 -0.93224,-0.64285 -0.0966,-0.51418 -0.0641,-0.99633 0.32143,-0.70745 0.4501,-0.57826 z m -17.48576,1.02836 2.15336,0.0326 0.41806,3.21428 -2.15335,-0.12868 z m 24.29981,0.80357 0.93225,0.51469 0.4501,0.38551 c 0,0 0.418,0.61071 0.4501,0.80357 0.0322,0.19286 0.19275,0.51408 0.19275,0.70693 0,0.19286 -0.0323,0.41786 -0.0966,0.64286 -0.0643,0.225 -0.16051,0.2251 -0.38551,0.4501 -0.225,0.225 -0.64285,0.41806 -0.64285,0.41806 l -1.15704,0.032 -0.51418,-0.38551 -0.54674,-0.19327 -0.22479,-0.6103 -0.28939,-0.73949 0.28939,-0.93224 0.32143,-0.70693 z" /></g></svg>
