<?xml version="1.0" encoding="UTF-8" standalone="no"?>
<!-- Created with Inkscape (http://www.inkscape.org/) -->

<svg
   width="297mm"
   height="210mm"
   viewBox="0 0 297 210"
   version="1.1"
   id="svg1"
   xml:space="preserve"
   xmlns:inkscape="http://www.inkscape.org/namespaces/inkscape"
   xmlns:sodipodi="http://sodipodi.sourceforge.net/DTD/sodipodi-0.dtd"
   xmlns="http://www.w3.org/2000/svg"
   xmlns:svg="http://www.w3.org/2000/svg"><sodipodi:namedview
     id="namedview1"
     pagecolor="#ffffff"
     bordercolor="#000000"
     borderopacity="0.25"
     inkscape:showpageshadow="2"
     inkscape:pageopacity="0.0"
     inkscape:pagecheckerboard="0"
     inkscape:deskcolor="#d1d1d1"
     inkscape:document-units="mm"><inkscape:page
       x="0"
       y="0"
       width="297"
       height="210"
       id="page2"
       margin="0"
       bleed="0" /></sodipodi:namedview><defs
     id="defs1" /><g
     inkscape:label="Sloj 1"
     inkscape:groupmode="layer"
     id="layer1"><path
       id="path2"
       style="display:inline;fill:#0055d4;fill-opacity:1;stroke-width:0.264583"
       inkscape:label="Body"
       d="m 36.5988,56.272017 -1.490865,0.117306 -2.251026,0.175183 -1.578198,0.233577 -1.54926,0.380339 -1.783353,0.555522 -1.695504,0.379821 -1.549259,0.555522 -1.72496,0.876949 -1.695503,1.023194 -1.54926,1.139982 -1.636592,1.34462 -1.140499,1.169438 -1.110527,1.227832 -1.695504,2.016931 -1.139982,1.870687 -0.876949,1.753898 -1.052649,2.338876 -0.935343,2.777091 -0.6428549,2.075326 -0.3803386,1.403015 -0.7012492,2.601908 -0.5555216,2.22157 -1.1983765,5.934005 -0.6728271,4.852417 -0.2335775,2.572452 -0.3798218,2.894402 -0.5265828,3.94601 -0.2919719,4.15117 -0.3508829,6.19703 0.1167887,4.61884 0.350883,3.80029 0.7307047,2.63084 0.7307048,2.10479 0.9942545,2.07532 1.0521322,1.66657 1.5203206,2.10426 1.6365923,2.01745 1.900143,1.92908 2.426208,1.98799 2.689759,1.90014 1.870686,0.90589 2.893881,0.81856 2.601908,0.61391 2.747636,0.32143 2.134237,0.23409 3.215307,-0.0294 2.367814,-0.23358 1.987993,-0.29249 5.0276,-1.25677 4.530989,-1.37407 10.903728,-4.23851 6.021854,-2.4262 3.654041,-1.11105 2.016931,-0.37982 1.958537,-0.23409 1.841748,-0.0289 1.490865,0.11679 1.637109,0.17518 1.198377,0.35088 1.871203,0.52607 3.391008,1.46193 5.290633,2.4846 3.566707,1.37407 2.016931,0.55501 1.900143,0.46819 1.900142,0.29197 1.782839,0.14624 1.81229,0.0584 2.16369,-0.0289 1.89963,-0.29249 2.16317,-0.61391 1.90015,-0.76017 2.16317,-1.28622 1.49087,-1.31517 1.34462,-1.52032 0.99425,-1.95853 0.70125,-2.39676 0.14625,-2.98173 0.0584,-1.6955 -0.555,-0.0295 -0.46768,-2.74763 0.29198,-0.37982 0.23409,-0.11731 -0.70177,-2.39675 -0.81855,-2.19263 -0.64286,-1.57872 -0.84801,-1.5782 -0.0584,-0.64337 0.20464,-0.87695 0.49713,-0.7891 0.78909,-0.58446 1.22784,-0.61391 0.76016,-0.26304 0.81855,-0.26355 0.20464,-0.40927 0.29197,-0.58446 -0.0584,-1.46141 -1.25677,-0.0589 -0.43874,-1.19838 -9.85107,-0.20464 -0.0672,-0.11575 -0.4005,1.43143 -0.67231,0.99374 -0.76016,1.02319 -0.7307,0.99374 -0.90641,0.9648 -1.78335,1.40302 -2.338358,1.60765 -3.507797,1.72496 -4.151167,1.43247 -7.045048,1.92908 -3.77083,0.49713 -4.472595,0.35088 -4.267956,0.26303 h -4.033863 l -3.56619,-0.26303 -2.952792,-0.58498 -1.637109,-0.52606 -0.993738,-0.70177 -0.204638,-0.67231 0.935343,-8.97413 0.789616,0.0584 1.023193,-0.0879 1.110527,-0.67231 0.0021,-0.016 -1.507919,0.0408 -25.466145,-0.53743 -0.372071,-0.41342 -1.033528,-0.99218 0.289388,-3.84473 -0.289388,-0.41341 v -0.7028 h 0.413411 l -0.274402,-0.6041 0.117306,-0.35088 0.438216,-0.29249 0.05839,-1.900142 -0.467671,-0.116789 0.08785,-0.555522 0.526066,-0.02894 0.175699,-0.935344 h -0.321944 l -0.02894,-1.227832 0.08785,-0.789616 0.526067,-0.05839 0.175183,-2.952275 0.409277,-0.497127 -0.526066,-0.555005 v -1.052649 h 0.379822 l 0.02945,-0.350883 -0.497127,-0.08733 0.116789,-0.26355 h 0.438733 l 0.204638,-3.156913 0.964799,-0.02894 -0.02946,0.409278 27.563692,0.759643 -0.202055,-0.291972 -0.701766,-0.234094 -1.461409,0.05839 0.263033,-5.846154 0.291971,-2.923336 1.286227,-0.497127 0.06098,-0.04186 -0.0021,-0.04599 -0.998389,0.397391 -1.44694,0.165365 -34.933268,-0.826823 -0.785482,-0.165365 -0.992187,-0.496093 -0.660942,-0.744141 -0.413411,-0.620117 -0.413412,-0.744141 -0.08268,-1.116211 0.206706,-1.570963 0.661458,-1.240235 0.784965,-0.868164 1.157552,-0.6196 1.033529,-0.206706 h 0.74414 l 35.677409,0.413412 0.620117,0.248047 0.08268,0.0057 -0.38809,-0.137459 0.204638,-3.537252 0.818555,0.350883 1.490865,0.847493 2.075326,0.876949 2.484603,0.848011 2.046386,0.526066 2.89388,0.497127 2.455665,0.233577 3.507796,-0.321427 3.098519,-0.730705 3.712435,-1.169437 5.320605,-1.929598 4.033862,-1.168921 2.309426,-0.409278 2.10478,-0.409277 2.25102,-0.146244 1.72445,0.02945 1.63711,-0.02945 1.87068,0.234094 1.52032,0.291972 1.08159,0.321427 1.40302,0.643372 1.25677,1.256771 0.43873,0.84801 0.23409,1.081588 -0.38033,0.905888 -0.99374,0.789615 -2.07533,0.876949 -3.94653,1.110527 -2.10478,0.584977 -1.90014,0.760161 -1.92908,0.964282 -1.72496,1.052649 -1.607658,1.198376 -1.637109,1.900143 -1.023194,1.549259 -0.876949,1.929598 -0.613916,1.841231 -0.146244,1.929598 0.1757,1.432471 0.555521,1.168921 0.818038,1.432471 1.045415,1.101741 0.07028,0.02325 3.232366,0.06201 -0.51677,-0.330729 -0.640787,-0.454753 -0.558105,-0.475423 -0.413412,-0.454752 -0.02067,-0.537435 -0.04134,-0.868164 0.08268,-1.198894 0.310058,-0.847493 0.516765,-0.868164 0.744141,-1.136882 0.66198,-0.883667 0.67231,-0.76016 1.08159,-0.935343 1.31568,-0.848011 1.46141,-0.789099 1.90014,-0.818554 2.01693,-0.7891 1.84175,-0.67231 1.72496,-0.613916 1.43247,-0.409277 1.13998,-0.409278 1.0232,-0.438733 1.05213,-0.67231 0.67231,-0.789099 0.58446,-0.993738 0.32194,-0.876949 v -0.789616 l -0.0879,-0.818554 -0.20464,-0.818555 -0.26303,-0.789099 -0.32143,-0.876949 -0.23409,-0.613916 -0.37982,-0.789099 -0.9648,-1.169438 -0.93535,-0.964799 -1.31568,-0.847494 -1.87068,-0.67231 -1.34462,-0.292489 -1.66657,-0.263033 -1.7539,-0.175183 -1.92908,-0.05891 h -1.81229 l -1.7539,0.08785 -2.514062,0.613916 -2.543514,0.526066 -4.413684,1.227832 -6.635771,2.30942 -1.139982,0.350883 -1.871203,0.49661 -1.753899,0.292489 -1.081587,0.116789 -1.578715,0.117305 -1.37356,-0.02945 L 76.033085,68.812854 74.659009,68.57876 72.905111,68.082149 71.765129,67.643416 70.01123,67.000562 67.964844,66.152551 62.030839,63.46331 55.132035,60.423185 51.536389,58.961259 49.577852,58.201615 47.268433,57.616638 45.865417,57.324666 43.497603,56.885933 41.334428,56.506112 38.761975,56.359867 Z" /><path
       id="path3"
       style="display:inline;fill:#00aa44;fill-opacity:1;stroke-width:0.264583"
       inkscape:label="Pickguard"
       d="m 104.62255,64.340259 -2.25102,0.146244 -2.10478,0.409277 -2.309422,0.409278 -4.033862,1.168921 -5.320605,1.929598 -3.712435,1.169437 -3.098519,0.730705 -3.507796,0.321427 -2.455665,-0.233577 -2.89388,-0.497127 -2.046386,-0.526066 -2.484603,-0.848011 -2.075326,-0.876949 -1.490865,-0.847493 -0.818555,-0.350883 -0.204638,3.537252 0.905888,0.321427 0.701766,0.555522 1.023193,0.964282 0.58446,1.052649 0.1757,1.374076 -0.1757,0.935344 -0.730704,1.168921 -1.374077,1.140498 -1.023193,0.70125 -1.286227,0.497127 -0.291971,2.923336 -0.263033,5.846154 1.461409,-0.05839 0.701766,0.234094 0.263033,0.379822 v 0.584461 l -0.05839,0.964799 -0.1757,1.169437 23.473502,0.467672 0.204639,-0.146244 0.672311,-0.497128 0.467671,-0.08733 -0.175183,-0.146244 -0.175183,-0.555522 0.204639,-0.58446 0.701249,-0.438733 0.584977,0.292488 0.438216,0.350883 v 0.584461 l -0.555521,0.497127 0.67231,0.321428 0.526583,0.497127 h 1.782837 l 0.08785,-0.672311 0.701766,-0.380338 0.467671,0.116789 0.409278,0.350883 v 0.643371 l 2.71818,0.233578 -1.081588,-1.139982 -0.818038,-1.432471 -0.555521,-1.168921 -0.1757,-1.432471 0.146244,-1.929598 0.613916,-1.841231 0.876949,-1.929598 1.023194,-1.549259 1.637109,-1.900143 1.60765,-1.198376 1.72496,-1.052649 1.92908,-0.964282 1.90014,-0.760161 2.10478,-0.584977 3.94653,-1.110527 2.07533,-0.876949 0.99374,-0.789615 0.38033,-0.905888 -0.23409,-1.081588 -0.43873,-0.84801 -1.25677,-1.256771 -1.40302,-0.643372 -1.08159,-0.321427 -1.52032,-0.291972 -1.87068,-0.234094 -1.63711,0.02945 z m 8.7695,3.127974 0.61391,0.263033 0.23358,0.526066 -0.17518,0.584461 -0.55553,0.321944 h -0.46767 l -0.46767,-0.409277 -0.11679,-0.497128 0.32143,-0.467671 z m -21.076755,0.263033 0.701766,0.292489 0.380339,0.291972 -0.409277,0.76016 -0.672828,0.321427 -0.555004,-0.146244 -0.204639,-0.409277 -0.146244,-0.555005 0.233577,-0.438733 z m -27.039693,0.379822 0.84801,0.380339 0.233578,0.49661 -0.613916,0.613916 -0.789099,0.02946 -0.409278,-0.350883 v -0.584461 l 0.175184,-0.380338 z m -1.486731,13.908712 0.7028,0.04134 0.413411,0.578776 -0.124023,0.702799 -0.620117,0.33073 -0.744141,-0.124024 -0.37207,-0.74414 0.248047,-0.537435 z m 0.463538,8.89248 -0.350883,2.280481 23.239925,0.526066 0.204639,-1.637109 0.292488,-0.526066 z m 27.273787,0.643372 v 2.484603 l 1.286227,-0.0584 0.02945,-2.397269 z m -27.653609,1.987475 -0.175183,2.426209 23.297803,0.292489 0.1757,-2.192115 z m 27.565759,0.731222 -0.145727,2.279964 1.256771,0.0584 0.175183,-2.338359 z m -27.770398,2.104264 -0.204638,2.338876 23.210469,0.175183 0.204639,-2.22157 z m 27.536821,0.497128 -0.05839,2.338875 h 1.198376 l 0.05839,-2.222087 z m -27.799854,2.367814 -0.204638,2.397265 23.268864,0.20464 0.204638,-2.485117 z m 27.683065,0.263033 -0.292488,2.426212 h 1.25677 c 0,0 0.379963,-2.367818 0.263033,-2.367818 -0.11693,0 -1.227315,-0.05839 -1.227315,-0.05839 z m -27.975553,2.543512 -0.233578,2.16318 23.297803,0.14572 0.234094,-2.13372 z m 27.653609,0.23358 -0.175183,2.13424 1.344621,0.0584 0.05839,-2.16318 z m -27.916642,2.39727 -0.613916,4.76457 -1.110527,0.67231 -1.023193,0.0879 -0.789616,-0.0584 -0.935343,8.97413 0.204638,0.67231 0.993738,0.70177 1.637109,0.52606 2.952792,0.58498 3.56619,0.26303 h 4.033863 l 4.267956,-0.26303 4.472595,-0.35088 3.77083,-0.49713 7.045048,-1.92908 4.151167,-1.43247 3.507797,-1.72496 2.338358,-1.60765 1.78335,-1.40302 0.90641,-0.9648 0.7307,-0.99374 0.76016,-1.02319 0.67231,-0.99374 0.38138,-1.36271 -0.21808,-0.20722 -0.017,0.0202 -11.430312,-0.0289 -2.104264,-0.0584 -0.613916,-0.1757 -0.292489,-0.23357 -0.08785,-0.46768 v -1.22783 l -1.286226,0.0584 -0.08733,0.67231 -0.146245,0.81855 -0.321944,0.81856 -0.526066,0.49712 -0.613916,0.17519 -0.701249,0.0879 0.175183,0.0584 0.526066,0.20464 -0.02894,0.49661 -0.02945,0.43873 -0.467672,0.40928 -0.555522,0.0289 -0.49661,-0.20464 -0.204639,-0.49661 -0.05839,-0.46767 0.204639,-0.2341 0.350366,-0.0879 -0.05839,-0.23357 -0.58446,-0.2341 -0.67231,-0.52606 -0.292489,-0.37983 v -0.67231 l 0.1757,-1.37407 z m 40.749966,3.12746 0.81856,0.46819 c 0,0 0.0289,0.58424 0.0289,0.75964 0,0.17539 -0.58446,0.38034 -0.58446,0.38034 l -0.64337,-0.0295 -0.43821,-0.64285 v -0.55552 z m -43.531192,9.68158 0.7028,0.37207 0.248046,0.49609 -0.124023,0.49609 -0.826823,0.33073 -0.413411,-0.2067 -0.330729,-0.45476 0.165364,-0.57877 z m 22.551078,0.3514 0.578776,0.16536 0.310059,0.45475 -0.165365,0.59945 -0.310058,0.39274 -0.806152,-0.22738 -0.310059,-0.47542 0.186035,-0.59945 z" /><path
       style="fill:#88aa00;fill-opacity:1;stroke-width:0.264583"
       d="m 232.04586,107.4871 1.19853,0.43849 1.22775,0.84774 1.19853,1.11082 1.28622,1.28622 1.25699,1.46162 0.9062,0.38002 1.52008,0.17539 1.37391,-0.35079 1.54931,-0.43848 46.24548,-12.36526 0.11692,-0.8185 -2.04626,-13.856102 -41.39291,2.046258 -0.67486,1.601984 -0.49609,1.281559 -0.53743,0.868156 -0.62011,1.116198 -0.99217,0.909495 -1.19888,1.240221 -1.73631,0.744132 -1.69497,0.578771 -1.86033,0.248044 -1.81899,-0.248044 0.0542,0.166079 18.21171,0.993897 0.0292,-0.292322 1.84164,0.05846 0.0292,0.263091 22.27499,-0.05846 0.4385,-0.263091 0.58465,-0.175393 0.61386,0.05846 0.76004,0.175395 0.58465,0.584644 0.46773,0.526182 0.26307,0.584645 -0.40925,1.227756 -0.6431,0.613885 -1.46161,0.46771 -1.05238,-0.35078 -0.73081,-0.584654 -0.35078,-0.847735 c 0,0 -0.0585,-0.64311 0,-0.76004 0.0585,-0.11693 0.52617,-0.701574 0.52617,-0.701574 l 0.11695,-0.146161 -21.80729,-0.05846 0.0292,1.54931 14.96693,-0.02923 0.58463,-0.350788 h 0.7308 l 1.22778,0.204627 0.35078,0.438483 0.55541,0.643109 0.0585,0.643113 -0.23387,0.96466 -0.40926,0.67234 -0.76004,0.43849 -0.93543,0.11693 -0.87696,-0.29233 -0.9062,-0.61387 -0.2631,-0.64311 v -0.73081 l 0.55541,-1.052361 -14.6746,0.05846 -0.0585,0.64311 -2.0755,0.02923 -0.0292,-2.630905 -18.09478,-1.052362 0.0585,1.724705 18.06555,0.840428 -0.0146,0.445791 -18.16786,-0.964665 -0.0292,1.403148 11.48829,0.613881 v -0.20462 l 2.10473,0.0292 v 0.23386 l 14.72966,0.35149 0.45475,-0.33072 0.74413,-0.33073 0.66143,0.0827 0.66146,0.57877 0.57877,0.41341 0.57878,0.66145 -0.20672,0.53743 -0.0827,0.99218 -0.41339,0.37206 -0.70281,0.45475 -1.44691,-0.12402 -0.99217,-0.53743 -0.57877,-0.70279 -0.0827,-0.57877 0.74413,-1.3229 -14.6346,-0.16537 0.12402,1.69497 7.93741,0.12402 0.49609,-0.24804 0.70279,-0.2067 0.90949,0.2067 0.53743,0.37207 0.33073,0.24804 0.28939,0.57877 -0.0414,0.70279 -0.16536,0.99218 -0.45475,0.66145 -0.90949,0.24804 -0.86816,0.0827 -0.95083,-0.24804 -0.57877,-0.62011 -0.41341,-0.70279 0.16536,-0.74413 0.49609,-0.95084 -7.524,-0.2067 0.0413,0.57877 -2.31508,-0.0413 v -2.48044 l -11.45137,-0.785484 -0.0827,1.694974 11.53405,0.52451 -0.0138,0.64329 -11.54675,-0.68696 v 1.40315 l 14.99616,0.67234 0.55541,-0.23386 0.84774,0.0292 0.8185,0.38002 0.70158,0.67235 0.17539,0.52618 v 0.70157 l -0.40925,1.02313 -0.61388,0.55542 -0.58464,0.29232 -1.05237,-0.0585 -0.9062,-0.32155 -0.46771,-0.64311 -0.38002,-0.67235 v -0.8185 l 0.40925,-0.70157 0.55541,-0.49695 -14.61614,-0.64311 0.0585,1.66624 7.95119,0.52618 0.49694,-0.11693 0.40926,-0.0877 0.58464,0.1754 0.43849,0.23386 0.52618,0.35078 0.40925,0.46772 0.20463,0.78927 -0.1754,0.61388 -0.29232,0.70157 -0.52618,0.58465 -0.58465,0.23386 -0.84773,-0.0292 -1.11083,-0.52618 -0.43848,-0.67234 -0.2631,-0.61388 -0.0292,-0.8185 0.32156,-0.52618 0.46771,-0.46772 -7.60039,-0.43848 -0.0877,1.84163 z"
       id="path20"
       inkscape:label="Headstock" /></g></svg>
