<?xml version="1.0" encoding="UTF-8" standalone="no"?>
<!-- Created with Inkscape (http://www.inkscape.org/) -->

<svg
   width="297mm"
   height="210mm"
   viewBox="0 0 297 210"
   version="1.1"
   id="svg1"
   xml:space="preserve"
   xmlns:inkscape="http://www.inkscape.org/namespaces/inkscape"
   xmlns:sodipodi="http://sodipodi.sourceforge.net/DTD/sodipodi-0.dtd"
   xmlns="http://www.w3.org/2000/svg"
   xmlns:svg="http://www.w3.org/2000/svg"><sodipodi:namedview
     id="namedview1"
     pagecolor="#ffffff"
     bordercolor="#000000"
     borderopacity="0.25"
     inkscape:showpageshadow="2"
     inkscape:pageopacity="0.0"
     inkscape:pagecheckerboard="0"
     inkscape:deskcolor="#d1d1d1"
     inkscape:document-units="mm"><inkscape:page
       x="0"
       y="0"
       width="297"
       height="210"
       id="page2"
       margin="0"
       bleed="0" /></sodipodi:namedview><defs
     id="defs1" /><g
     inkscape:label="Sloj 1"
     inkscape:groupmode="layer"
     id="layer1"><path
       style="fill:#d40000;stroke-width:0.264999;paint-order:fill markers stroke"
       d="m 122.36988,111.23295 1.13642,-0.50003 0.68185,-0.81822 v -1.22734 l -17.09178,0.13637 -0.36365,-0.86368 -0.90914,-0.50002 -1.59099,-0.18183 -2.72741,-0.13637 -1.40917,1.59099 -1.045504,1.54553 -0.590939,1.81828 -0.272741,1.50007 -0.04546,1.72736 0.363657,1.77282 0.681852,2.04556 1.181875,1.59099 0.77277,1.22734 1.13642,0.90913 1.81828,1.40917 1.81827,1.0455 1.50008,0.6364 1.59099,0.72731 1.54553,0.50003 2.13648,0.86368 2.0001,0.63639 1.09096,0.77277 0.81823,1.3637 0.18182,1.00006 -0.77276,1.09096 -0.77277,1.00005 -2.0001,0.86368 -2.86378,0.72731 -2.22739,0.0909 -2.81833,-0.0455 -2.40921,-0.0909 -2.86378,-0.50003 -5.909398,-1.86373 -3.318351,-1.31825 -3.409264,-1.45462 -3.136522,-1.27279 -3.045611,-0.72731 -3.045611,-0.27274 -2.863781,0.0909 -3.272896,0.45457 -2.636496,0.68185 -1.772819,0.68186 -4.77297,1.77281 -4.772972,1.77282 -4.363857,1.63645 -5.591194,2.04556 -4.772972,1.18187 -3.500178,0.77277 -3.045611,0.40911 -3.63655,0.0455 -3.72746,0.0909 -2.591043,-0.31819 -2.363756,-0.59094 -2.772869,-1.00005 -1.045508,-0.86369 -1.045508,-1.50007 -0.09091,-2.04556 0.72731,-1.72736 0.454569,-0.9546 1.545533,-1.50007 1.45462,-1.22734 2.3183,-1.22733 3.318352,-1.45462 2.72741,-1.00005 2.454672,-0.90914 4.18203,-1.04551 21.228357,-6.45487 1.227336,-0.45457 0.500025,-1.13642 0.04546,-2.54559 c 0,0 0.181827,-1.13642 0.363656,-1.13642 0.181827,0 3.727461,-0.0909 3.727461,-0.0909 l 0.818224,-0.38639 0.06819,-0.88641 -2.000102,0.25002 -26.069512,-0.61367 -1.113692,-1.11369 -0.09091,-1.15915 0.1591,-1.2728 c 0,0 -0.477298,-0.0227 -0.477298,-0.1591 0,-0.13637 0.159099,-0.8864 0.159099,-0.8864 l 0.477295,-0.0455 -0.04546,-0.86368 0.136371,-1.02278 -0.477297,-0.0909 c 0,0 -0.04546,-0.9546 0.09091,-0.84096 0.136372,0.11365 0.454568,-0.0455 0.454568,-0.0455 l 0.181829,-1.841007 h -0.295471 l -0.02273,-0.818224 0.318198,0.02273 0.227282,-1.954646 -0.454567,-0.181827 0.113641,-0.727311 0.45457,0.227285 0.295468,-2.272842 -0.522753,-0.06819 0.04546,-0.795496 0.772766,0.204557 0.02273,-1.090967 h -0.43184 v -1.977371 l 0.681853,-0.04546 0.340926,-3.45472 0.931865,0.113641 0.09092,0.500025 25.810263,0.348147 0.578569,0.835715 v 1.992858 l 1.414286,0.128572 0.321429,-3.92143 6.139285,-0.35357 2.892859,-0.257143 3.182141,-0.578573 4.660715,-0.674999 4.114287,-1.125001 2.796429,-0.835713 2.699998,-0.867857 1.960714,-0.707144 1.8,-0.610714 H 100.125 l 0.64286,0.482143 1.15714,1.028573 12.6,9.192855 0.19286,0.289287 6.91071,0.144643 -0.36964,-0.43393 1.59107,-2.555357 1.20536,-2.008928 1.17321,-2.346428 0.85179,-2.764287 0.17678,-0.514284 -0.36964,0.08036 -0.75536,-0.337499 0.17679,-1.205357 0.5625,-1.671429 0.35357,0.176784 0.70714,-0.06429 -0.0804,-2.796426 -0.59464,-2.185715 -0.80357,-2.024999 -0.77143,-1.767858 -0.86785,-1.703571 -1.20536,-1.478573 -2.00893,-1.414285 -2.33036,-1.189287 -2.34643,-0.482142 -2.94107,-0.498213 -3.9375,-0.06429 -2.90893,0.369642 -3.32678,0.594643 -2.37857,0.562501 -8.357147,3.310713 -3.278571,0.916072 -3.953571,0.642858 L 79.633928,68.689283 76.049999,67.805355 73.285714,66.760711 70.923213,65.426782 63.948214,62.276783 56.346428,58.982138 52.2,57.439281 l -4.467858,-1.124997 -4.05,-0.578573 -4.275,0.03214 -4.403572,0.417859 -3.953571,1.124998 -4.017856,1.767858 -2.764286,1.478571 -3.857143,3.439287 -3.591674,3.597929 -2.386486,4.068389 -1.977373,5.659379 -1.045508,4.704787 -1.5228051,7.000356 -0.9318657,6.977629 -0.6363962,5.863937 -0.8182234,8.45498 -0.022728,7.81858 0.5454824,5.77302 1.3864344,4.9548 2.0228306,4.02293 2.659227,3.70473 0.795495,0.3182 1.068236,1.04551 1.545533,0.95459 1.727361,1.1137 1.75009,0.86368 1.704632,0.52275 2.181929,2.72741 2.113744,0.72731 3.386537,0.56821 5.841207,0.0227 5.318453,-0.29547 7.045814,-1.72736 7.159455,-2.3183 5.93212,-2.18193 9.13683,-3.52291 4.341132,-1.29551 2.500128,-0.36366 3.841104,0.0455 2.886511,0.47729 3.227438,1.2728 8.932273,3.59109 3.272893,1.20461 4.522956,0.77276 4.88662,0.0682 3.25016,0.0227 3.22744,-1.02278 2.09101,-1.02278 1.61372,-1.65918 1.00005,-1.15915 0.0227,-1.43189 -0.34093,-1.75009 -0.59094,-1.43189 -1.09096,-2.20466 -1.25006,-1.6819 -6.13668,-2.3183 -2.97742,-1.27279 -3.13653,-1.79555 -1.65917,-1.70463 -1.15915,-1.93192 0.0455,-2.3183 0.4773,-1.86373 1.5228,-1.77282 1.97738,-1.29552 1.20461,-0.54548 z"
       id="path1" /><path
       id="path2"
       style="display:inline;fill:#0066ff;stroke-width:0.264999;paint-order:fill markers stroke"
       d="m 244.96076,93.053752 -1.5105,0.931726 -1.41439,1.221631 -1.15755,0.803568 -2.66754,0.09663 -0.0119,2.268595 9.58029,0.520382 -0.82579,-0.764294 -0.0641,-0.803569 -8.5819,-0.128674 0.0961,-0.578259 8.6465,0.224792 0.54622,-0.964282 1.31826,-0.514181 0.93173,0.128675 1.09295,0.867647 0.12868,1.25367 c 0,0 -0.28911,0.867751 -0.38551,0.996322 -0.049,0.06529 -0.33424,0.244013 -0.6072,0.406693 l 3.75688,0.204122 v -0.418062 l 0.51418,-1.060401 1.31827,-0.353466 0.41754,-0.0646 0.83561,0.482141 0.70745,0.868164 0.12868,0.996322 -0.41807,0.964286 -1.02836,0.67489 -0.83612,-0.0641 -0.96428,-0.32143 -0.54622,-0.64285 -0.16072,-0.803569 -4.21266,-0.178284 c -0.002,9.2e-4 -0.03,0.01757 -0.03,0.01757 l -1.15755,0.06408 -0.17881,-0.13901 -10.02471,-0.424263 -0.007,1.331696 22.13612,1.48157 0.0641,-0.16072 0.38551,-1.02836 0.54674,-0.450098 1.15703,-0.353466 0.38551,0.224792 1.22163,0.674892 0.35347,0.9002 -0.032,0.99633 -0.86765,0.80356 -1.02888,0.12868 -1.18907,-0.16072 -0.6749,-0.48214 -0.16071,-0.73949 c 0,0 -21.42104,-1.25582 -22.29942,-1.29656 l -0.0403,7.53236 2.34662,0.32143 3.72846,1.73581 3.18223,2.12131 2.08928,2.79673 1.38235,4.08192 35.80711,3.02153 4.88549,0.25683 2.05724,-14.39964 -46.86432,-14.624945 z m 8.29303,8.517828 -0.0646,2.95692 -1.70326,0.032 0.0961,-2.92488 z m 16.00678,0.12867 0.70745,0.22479 0.96428,0.96429 c 0,0 0.32143,0.73938 0.32143,0.93224 0,0.19285 -0.0966,0.83561 -0.0966,0.83561 l -1.22111,0.80357 -0.77153,0.16071 -1.15755,-0.25735 -0.73898,-0.32143 -0.12867,-1.0604 0.16071,-1.02887 0.51418,-0.77102 z m 7.00732,2.15336 c 0,0 0.86807,0.32163 1.06092,0.73949 0.19286,0.41785 0.44982,0.44999 0.54622,0.64285 0.0964,0.19286 0.12867,0.54612 0.12867,0.89969 0,0.35357 -0.16095,0.61092 -0.25735,0.73949 -0.0964,0.12857 -0.61069,0.28907 -1.12499,0.54622 -0.51427,0.25718 -0.48194,0.32149 -0.70694,0.28939 -0.22498,-0.0322 -0.80356,-0.0641 -0.80356,-0.0641 0,0 -0.51417,-0.25744 -0.6749,-0.38602 -0.16071,-0.12857 -0.4504,-0.675 -0.5147,-0.80357 -0.0644,-0.12857 -0.032,-0.86765 -0.032,-0.86765 l 0.12867,-0.96428 0.73949,-0.57878 z m -18.19269,1.63918 1.67122,0.032 0.032,2.76468 -1.63918,0.0641 z m 24.55716,0.19275 c 0,0 0.73917,0.0644 0.99632,0.12867 0.25715,0.0643 0.57835,0.35347 0.70694,0.51418 0.12856,0.16071 0.28962,0.48214 0.38602,0.96429 0.0964,0.48214 -0.0643,0.64315 -0.32143,1.02887 -0.25713,0.38571 -0.51448,0.51408 -0.73949,0.70694 -0.225,0.19286 -0.25692,0.22531 -0.54622,0.38602 -0.28927,0.1607 -0.80357,0.0641 -0.80357,0.0641 0,0 -0.25747,-0.16052 -0.70745,-0.38551 -0.45,-0.225 -0.28918,-0.19306 -0.51418,-0.41806 -0.22499,-0.225 -0.22509,-0.48214 -0.28939,-0.80357 -0.0643,-0.32143 -0.0321,-0.41795 0,-0.61081 0.0321,-0.19285 0.22525,-0.54643 0.25735,-0.80357 0.0322,-0.25714 0.57826,-0.41755 0.57826,-0.41755 z" /></g></svg>
